<?xml version="1.0" encoding="UTF-8" standalone="no"?><!DOCTYPE svg PUBLIC "-//W3C//DTD SVG 1.1//EN" "http://www.w3.org/Graphics/SVG/1.1/DTD/svg11.dtd"><svg viewBox="0 0 1285 800" version="1.1" xmlns="http://www.w3.org/2000/svg" xmlns:xlink="http://www.w3.org/1999/xlink" xml:space="preserve" xmlns:serif="http://www.serif.com/" style="fill-rule:evenodd;clip-rule:evenodd;stroke-linejoin:round;stroke-miterlimit:2;"><rect x="-0.888" y="0" width="1285.73" height="800"/><path d="M973.157,509.485l32.657,-0l8.595,25.095l42.627,107.599l3.094,19.251l4.125,-19.251l40.565,-107.599l7.562,-25.095l30.596,-0l-83.192,216.573c-11.688,25.783 -27.158,34.721 -49.503,34.721c-13.063,-0 -25.438,-3.094 -36.783,-8.595l0,-27.157l5.157,-2.75c23.032,18.563 47.784,16.157 57.409,-4.813l11.001,-26.814l-73.91,-181.165Zm-567.84,76.316c-0,-46.065 -29.22,-80.442 -72.191,-80.442c-36.783,0 -79.754,25.439 -79.754,91.786c-0,66.347 42.971,91.786 92.817,91.786c24.064,0 40.221,-5.844 52.253,-11.344l-0,-25.783l-5.157,-2.75c-9.626,8.594 -22.689,15.126 -44.69,15.126c-34.033,-0 -59.815,-15.126 -64.628,-55.347l118.943,0c1.376,-6.875 2.407,-13.75 2.407,-23.032Zm174.29,71.504l0,-87.317c0,-42.284 -17.876,-64.629 -67.378,-64.629c-16.157,0 -39.877,2.407 -55.347,10.313l-0,28.533l5.157,1.719c12.375,-8.594 25.095,-15.126 46.752,-15.126c36.783,0 41.94,18.564 41.94,38.158l-0,24.408l-14.782,-9.626c-8.595,-2.75 -17.533,-4.812 -28.877,-4.812c-31.97,-0 -64.972,16.5 -64.972,55.69c-0,38.846 32.658,54.315 61.878,54.315c8.594,0 16.501,-1.375 25.095,-3.781l21.658,-17.532l5.156,17.188l27.158,0l-3.438,-27.501Zm137.926,-4.126l-5.156,-2.75c-3.438,4.469 -11.345,11.001 -24.408,11.001c-16.845,-0 -20.626,-11.001 -20.626,-22.689l-0,-177.04l3.438,-27.502l-35.752,0l3.438,27.502l-0,180.822c-0,27.845 16.5,45.377 47.096,45.377c12.032,-0 24.063,-2.75 31.97,-6.875l0,-27.846Zm236.19,-3.437c-6.188,6.531 -17.188,12.375 -28.887,12.375c-15.803,0 -21.991,-10.656 -21.991,-27.845l0,-102.099l46.065,0l0,-22.688l-46.065,-0l0,-52.941l-28.876,10.313l-0,42.628l-29.564,-0l-0,22.688l29.564,0l-0,105.881c-0,36.095 21.313,49.846 48.46,49.846c14.449,-0 27.512,-3.782 36.45,-8.594l0,-26.814l-5.156,-2.75Zm-746.191,-143.008c-7.906,0 -14.782,1.375 -22.001,4.469l-24.407,23.72l-5.844,-25.438l-26.47,-0l3.437,27.501l0,120.319l-3.437,27.501l35.751,0l-3.437,-27.501l-0,-100.724c10.313,-13.407 24.407,-21.314 39.877,-21.314c8.938,0 18.907,2.75 24.751,8.938l5.156,-2.75l0,-29.564c-6.531,-3.438 -14.782,-5.157 -23.376,-5.157Zm533.968,2.751l1.719,22.344l27.845,0l0,125.476l-3.438,27.501l35.065,0l-2.75,-27.501l-0,-122.725l2.75,-25.095l-61.191,-0Zm-234.428,156.414c-24.064,-0 -36.096,-12.376 -36.096,-31.627c0,-24.064 18.22,-33.345 43.315,-33.345c16.501,-0 26.814,3.781 36.44,9.281l-0,38.846c-8.938,9.626 -25.783,16.845 -43.659,16.845Zm-223.449,-81.129c2.75,-31.283 17.876,-54.659 48.471,-54.659c32.315,-0 44.003,26.126 44.003,54.659l-92.474,-0Zm497.41,-104.162c13.064,0 22.689,-9.625 22.689,-22.689c0,-12.375 -9.625,-22.345 -22.689,-22.345c-12.719,0 -22.688,9.97 -22.688,22.345c-0,13.064 9.969,22.689 22.688,22.689Zm216.314,-314.819l-0,-22.345l68.753,0l0,22.345l-18.907,3.782l8.594,3.094l40.221,111.38l3.094,19.595l3.438,0l3.094,-19.595l36.783,-111.38l8.594,-3.094l-18.907,-3.782l-0,-22.345l63.94,0l0,22.345l-23.72,6.876l-62.909,174.29c-9.625,23.376 -23.376,50.877 -60.503,50.877c-10.313,0 -22.001,-2.062 -31.283,-5.844l0,-26.126l33.689,0c14.095,0 20.626,-5.5 25.783,-17.532l11,-26.126l-7.219,-0l-59.128,-149.539l-24.407,-6.876Zm-586.36,59.472c-0,-52.596 -25.783,-85.254 -71.848,-85.254c-40.564,-0 -78.723,26.126 -78.723,93.848c0,67.035 36.096,93.505 85.942,93.505c22.345,0 41.596,-3.781 58.097,-13.407l0,-23.72l-14.438,0c-9.969,7.907 -24.751,10.657 -37.471,10.657c-35.408,-0 -54.659,-14.782 -58.097,-55.347l114.475,0c1.719,-5.844 2.063,-14.438 2.063,-20.282Zm171.561,67.722l0,-93.848c0,-40.909 -13.751,-58.785 -60.847,-58.785c-19.251,0 -42.283,3.094 -61.534,11.689l-0,33.689l15.813,-0c7.563,-15.47 23.376,-19.939 38.846,-19.939c24.751,0 36.096,8.251 36.096,28.877l-0,22.001c-13.064,0.344 -31.627,1.719 -44.003,2.406c-20.626,1.375 -60.503,13.063 -60.503,56.722c0,38.846 31.283,51.565 61.535,51.565c13.063,0 24.063,-2.75 31.626,-5.156l16.501,-22.689l4.125,-0l11.345,22.689l39.877,-0l-0,-22.345l-28.877,-6.876Zm280.858,-120.318l35.752,-0l-5.156,6.875l-0,91.786c-0,34.377 15.813,54.315 51.221,54.315c11.344,0 28.876,-3.781 38.846,-12.375l-0,-25.095l-15.814,-0c-2.75,5.844 -13.407,11.688 -21.313,11.688c-12.72,-0 -20.626,-7.219 -20.626,-25.783l-0,-94.536l-5.157,-6.875l53.284,-0l0,-25.783l-53.284,0l5.157,-6.875l-0,-36.096l-28.189,0l-4.125,42.971l-30.596,5.5l0,20.283Zm-649.957,-31.971c-9.625,0 -14.782,1.719 -22.001,5.844l-21.314,25.783l-15.125,-28.877l-47.097,5.501l4.126,23.72l26.47,-0l-0,121.006l-29.22,6.188l-0,22.345l99.005,-0l-0,-22.345l-38.159,-6.532l0,-97.286c7.22,-13.063 17.533,-22.689 34.033,-22.689c6.876,0 11.001,1.719 16.501,6.876l15.814,-0l-0,-34.377c-6.188,-3.438 -13.407,-5.157 -23.033,-5.157Zm416.077,-70.816l54.315,-10.657l14.782,8.938l-3.437,25.095l-0,200.073l29.22,6.532l-0,22.345l-90.067,-0l-0,-22.345l29.22,-6.532l0,-202.135l-29.908,-0l-4.125,-21.314Zm186.247,223.449l-0,-118.6l3.438,-25.095l-15.47,-8.938l-53.284,10.657l3.782,21.314l30.251,-0l0,120.662l-29.22,6.532l-0,22.345l89.723,-0l0,-22.345l-29.22,-6.532Zm-305.416,8.251c-18.907,-0 -31.97,-10.314 -31.97,-28.533c-0,-17.532 12.031,-31.627 35.408,-33.002c9.281,-0.687 24.407,-1.719 37.127,-2.406l-0,49.158c-9.97,9.626 -26.814,14.783 -40.565,14.783Zm-172.249,-135.445c24.064,0 40.564,15.126 40.564,49.846l0,5.844l-84.223,0c2.063,-37.47 15.126,-55.69 43.659,-55.69Zm459.102,-58.44c13.406,-0 24.063,-9.97 24.063,-24.064c0,-13.407 -10.313,-24.064 -24.407,-24.064c-13.407,0 -24.064,10.657 -24.064,24.064c0,13.751 10.657,24.064 24.408,24.064Z" style="fill:#fff;fill-rule:nonzero;"/></svg>