<svg width="277" height="36"  version="1.1" xmlns="http://www.w3.org/2000/svg" xmlns:xlink="http://www.w3.org/1999/xlink">
<g transform="scale(1,-1) translate(0,-34.704)">
	<!-- A out (no animation) -->
	<path d="M13.73,33.84 l5.95,0 l12.86,-33.84 l-5.38,0 l-3.46,9.6 l-14.16,0 l-3.5,-9.6 l-5.09,0 Z"/>

	<!-- A counter -->
	<path d="M10.61,12.05 c.16,-.0,.3,.06,.41,.17 c.11,.11,.17,.26,.17,.46 l0,1.01 l10.94,0 l0,-1.01 c0,-.19,.06,-.34,.17,-.46 c.11,-.11,.25,-.17,.41,-.17 c.16,-.0,.3,.06,.41,.19 c.11,.13,.17,.27,.17,.43 c.19,0,.34,.06,.46,.17 c.11,.11,.17,.25,.17,.41 c0,.16,-.06,.3,-.19,.41 c-.13,.11,-.3,.17,-.53,.17 l-.96,0 l-5.42,15.22 l.72,.67 c.13,.13,.19,.27,.19,.43 c0,.16,-.05,.3,-.14,.41 c-.1,.11,-.24,.17,-.43,.17 c-.16,0,-.3,-.06,-.43,-.19 c-.13,.13,-.27,.19,-.43,.19 c-.19,0,-.34,-.06,-.43,-.17 c-.1,-.11,-.14,-.25,-.14,-.41 c.0,-.16,.06,-.3,.19,-.43 l.72,-.67 l-5.52,-15.22 l-.96,0 c-.22,0,-.4,-.06,-.53,-.17 c-.13,-.11,-.19,-.25,-.19,-.41 c0,-.16,.06,-.3,.17,-.41 c.11,-.11,.26,-.17,.46,-.17 c0,-.16,.06,-.3,.17,-.43 c.11,-.13,.25,-.19,.41,-.19 Z" fill="rgb(255,255,255)"> <animate dur='1s' attributeName='d' repeatCount='indefinite'
	values="M10.13,10.32 c.35,0,.63,.11,.84,.34 c.21,.22,.31,.51,.31,.86 l0,2.16 l10.75,0 l0,-2.16 c0,-.35,.11,-.64,.34,-.86 c.22,-.22,.51,-.34,.86,-.34 c.35,0,.63,.12,.84,.36 c.21,.24,.31,.54,.31,.89 c.32,0,.61,.12,.86,.36 c.26,.24,.38,.52,.38,.84 c0,.35,-.13,.63,-.38,.84 c-.26,.21,-.59,.31,-1.01,.31 l-2.02,0 l-5.38,14.98 l1.54,1.44 c.29,.29,.43,.61,.43,.96 c0,.32,-.11,.59,-.34,.82 c-.22,.22,-.5,.34,-.82,.34 c-.35,0,-.67,-.14,-.96,-.43 c-.29,.29,-.61,.43,-.96,.43 c-.32,0,-.59,-.11,-.82,-.34 c-.22,-.22,-.34,-.5,-.34,-.82 c.0,-.35,.14,-.67,.43,-.96 l1.54,-1.44 l-5.47,-14.98 l-2.02,0 c-.42,0,-.75,-.1,-1.01,-.31 c-.26,-.21,-.38,-.49,-.38,-.84 c0,-.32,.13,-.6,.38,-.84 c.26,-.24,.54,-.36,.86,-.36 c0,-.32,.11,-.61,.34,-.86 c.22,-.26,.51,-.38,.86,-.38 Z;

	M10.61,12.05 c.16,-.0,.3,.06,.41,.17 c.11,.11,.17,.26,.17,.46 l0,1.01 l10.94,0 l0,-1.01 c0,-.19,.06,-.34,.17,-.46 c.11,-.11,.25,-.17,.41,-.17 c.16,-.0,.3,.06,.41,.19 c.11,.13,.17,.27,.17,.43 c.19,0,.34,.06,.46,.17 c.11,.11,.17,.25,.17,.41 c0,.16,-.06,.3,-.19,.41 c-.13,.11,-.3,.17,-.53,.17 l-.96,0 l-5.42,15.22 l.72,.67 c.13,.13,.19,.27,.19,.43 c0,.16,-.05,.3,-.14,.41 c-.1,.11,-.24,.17,-.43,.17 c-.16,0,-.3,-.06,-.43,-.19 c-.13,.13,-.27,.19,-.43,.19 c-.19,0,-.34,-.06,-.43,-.17 c-.1,-.11,-.14,-.25,-.14,-.41 c.0,-.16,.06,-.3,.19,-.43 l.72,-.67 l-5.52,-15.22 l-.96,0 c-.22,0,-.4,-.06,-.53,-.17 c-.13,-.11,-.19,-.25,-.19,-.41 c0,-.16,.06,-.3,.17,-.41 c.11,-.11,.26,-.17,.46,-.17 c0,-.16,.06,-.3,.17,-.43 c.11,-.13,.25,-.19,.41,-.19 Z;

	M10.13,10.32 c.35,0,.63,.11,.84,.34 c.21,.22,.31,.51,.31,.86 l0,2.16 l10.75,0 l0,-2.16 c0,-.35,.11,-.64,.34,-.86 c.22,-.22,.51,-.34,.86,-.34 c.35,0,.63,.12,.84,.36 c.21,.24,.31,.54,.31,.89 c.32,0,.61,.12,.86,.36 c.26,.24,.38,.52,.38,.84 c0,.35,-.13,.63,-.38,.84 c-.26,.21,-.59,.31,-1.01,.31 l-2.02,0 l-5.38,14.98 l1.54,1.44 c.29,.29,.43,.61,.43,.96 c0,.32,-.11,.59,-.34,.82 c-.22,.22,-.5,.34,-.82,.34 c-.35,0,-.67,-.14,-.96,-.43 c-.29,.29,-.61,.43,-.96,.43 c-.32,0,-.59,-.11,-.82,-.34 c-.22,-.22,-.34,-.5,-.34,-.82 c.0,-.35,.14,-.67,.43,-.96 l1.54,-1.44 l-5.47,-14.98 l-2.02,0 c-.42,0,-.75,-.1,-1.01,-.31 c-.26,-.21,-.38,-.49,-.38,-.84 c0,-.32,.13,-.6,.38,-.84 c.26,-.24,.54,-.36,.86,-.36 c0,-.32,.11,-.61,.34,-.86 c.22,-.26,.51,-.38,.86,-.38 Z
	"/></path>

	<!-- V -->
	<path d="M30.38,33.84 l5.38,0 l9.79,-28.46 l-.72,-.72 c-.13,-.13,-.19,-.27,-.19,-.43 c0,-.16,.05,-.3,.14,-.41 c.1,-.11,.24,-.17,.43,-.17 c.16,.0,.3,.06,.43,.19 c.13,-.13,.27,-.19,.43,-.19 c.19,.0,.34,.06,.43,.17 c.1,.11,.14,.25,.14,.41 c0,.16,-.06,.3,-.19,.43 l-.72,.72 l9.98,28.46 l5.09,0 l-12.19,-33.84 l-5.95,0 Z"> <animate dur='1s' attributeName='d' repeatCount='indefinite'
	values="M30.38,33.84 l5.38,0 l9.7,-28.18 l-1.49,-1.44 c-.29,-.29,-.43,-.61,-.43,-.96 c0,-.29,.1,-.55,.31,-.79 c.21,-.24,.49,-.36,.84,-.36 c.35,0,.67,.14,.96,.43 c.29,-.29,.61,-.43,.96,-.43 c.35,0,.63,.12,.84,.36 c.21,.24,.31,.5,.31,.79 c0,.35,-.14,.67,-.43,.96 l-1.49,1.44 l9.89,28.18 l5.09,0 l-12.19,-33.84 l-5.95,0 Z;

	M30.38,33.84 l5.38,0 l9.79,-28.46 l-.72,-.72 c-.13,-.13,-.19,-.27,-.19,-.43 c0,-.16,.05,-.3,.14,-.41 c.1,-.11,.24,-.17,.43,-.17 c.16,.0,.3,.06,.43,.19 c.13,-.13,.27,-.19,.43,-.19 c.19,.0,.34,.06,.43,.17 c.1,.11,.14,.25,.14,.41 c0,.16,-.06,.3,-.19,.43 l-.72,.72 l9.98,28.46 l5.09,0 l-12.19,-33.84 l-5.95,0 Z;

	M30.38,33.84 l5.38,0 l9.7,-28.18 l-1.49,-1.44 c-.29,-.29,-.43,-.61,-.43,-.96 c0,-.29,.1,-.55,.31,-.79 c.21,-.24,.49,-.36,.84,-.36 c.35,0,.67,.14,.96,.43 c.29,-.29,.61,-.43,.96,-.43 c.35,0,.63,.12,.84,.36 c.21,.24,.31,.5,.31,.79 c0,.35,-.14,.67,-.43,.96 l-1.49,1.44 l9.89,28.18 l5.09,0 l-12.19,-33.84 l-5.95,0 Z
	"/></path>

	<!-- U (no animation) -->
	<path d="M77.47,-.72 c-2.62,0,-4.92,.5,-6.89,1.49 c-1.97,.99,-3.49,2.42,-4.56,4.27 c-1.07,1.86,-1.61,4.06,-1.61,6.62 l0,22.18 l4.66,0 l0,-22.08 c0,-2.72,.72,-4.8,2.16,-6.24 c1.44,-1.44,3.52,-2.16,6.24,-2.16 c2.72,-.0,4.8,.72,6.24,2.16 c1.44,1.44,2.16,3.52,2.16,6.24 l0,22.08 l4.66,0 l0,-22.18 c0,-2.56,-.54,-4.77,-1.61,-6.62 c-1.07,-1.86,-2.59,-3.28,-4.56,-4.27 c-1.97,-.99,-4.26,-1.49,-6.89,-1.49 Z"/>

	<!-- V -->
	<path d="M105.89,33.84 l5.38,0 l9.79,-28.46 l-.72,-.72 c-.13,-.13,-.19,-.27,-.19,-.43 c0,-.16,.05,-.3,.14,-.41 c.1,-.11,.24,-.17,.43,-.17 c.16,.0,.3,.06,.43,.19 c.13,-.13,.27,-.19,.43,-.19 c.19,.0,.34,.06,.43,.17 c.1,.11,.14,.25,.14,.41 c0,.16,-.06,.3,-.19,.43 l-.72,.72 l9.98,28.46 l5.09,0 l-12.19,-33.84 l-5.95,0 Z"> <animate dur='1s' attributeName='d' repeatCount='indefinite'
	values="M105.89,33.84 l5.38,0 l9.7,-28.18 l-1.49,-1.44 c-.29,-.29,-.43,-.61,-.43,-.96 c0,-.29,.1,-.55,.31,-.79 c.21,-.24,.49,-.36,.84,-.36 c.35,0,.67,.14,.96,.43 c.29,-.29,.61,-.43,.96,-.43 c.35,0,.63,.12,.84,.36 c.21,.24,.31,.5,.31,.79 c0,.35,-.14,.67,-.43,.96 l-1.49,1.44 l9.89,28.18 l5.09,0 l-12.19,-33.84 l-5.95,0 Z;

	M105.89,33.84 l5.38,0 l9.79,-28.46 l-.72,-.72 c-.13,-.13,-.19,-.27,-.19,-.43 c0,-.16,.05,-.3,.14,-.41 c.1,-.11,.24,-.17,.43,-.17 c.16,.0,.3,.06,.43,.19 c.13,-.13,.27,-.19,.43,-.19 c.19,.0,.34,.06,.43,.17 c.1,.11,.14,.25,.14,.41 c0,.16,-.06,.3,-.19,.43 l-.72,.72 l9.98,28.46 l5.09,0 l-12.19,-33.84 l-5.95,0 Z;

	M105.89,33.84 l5.38,0 l9.7,-28.18 l-1.49,-1.44 c-.29,-.29,-.43,-.61,-.43,-.96 c0,-.29,.1,-.55,.31,-.79 c.21,-.24,.49,-.36,.84,-.36 c.35,0,.67,.14,.96,.43 c.29,-.29,.61,-.43,.96,-.43 c.35,0,.63,.12,.84,.36 c.21,.24,.31,.5,.31,.79 c0,.35,-.14,.67,-.43,.96 l-1.49,1.44 l9.89,28.18 l5.09,0 l-12.19,-33.84 l-5.95,0 Z
	"/></path>

	<!-- second a out -->
	<path d="M143.66,-.72 c-2.4,0,-4.38,.65,-5.95,1.94 c-1.57,1.3,-2.35,3.05,-2.35,5.26 c0,2.18,.68,3.9,2.04,5.18 c1.36,1.28,3.37,2.05,6.02,2.3 l5.47,.53 c.93,.1,1.62,.34,2.06,.74 c.45,.4,.67,1.0,.67,1.8 c0,1.12,-.5,2.04,-1.49,2.76 c-.99,.72,-2.27,1.08,-3.84,1.08 c-1.6,0,-2.94,-.39,-4.01,-1.18 c-1.07,-.78,-1.62,-1.82,-1.66,-3.1 l-4.37,0 c-.03,1.31,.34,2.57,1.1,3.77 c.77,1.2,1.92,2.18,3.46,2.95 c1.54,.77,3.38,1.15,5.52,1.15 c3.1,-.0,5.49,-.72,7.15,-2.16 c1.66,-1.44,2.5,-3.52,2.5,-6.24 l0,-9.94 c0,-1.34,.05,-2.48,.14,-3.41 c.1,-.93,.27,-1.84,.53,-2.74 l-4.51,0 c-.26,.93,-.4,1.94,-.43,3.02 l.91,0 c.22,0,.4,.06,.53,.17 c.13,.11,.19,.25,.19,.41 c0,.16,-.06,.3,-.17,.41 c-.11,.11,-.26,.17,-.46,.17 c0,.16,-.06,.3,-.17,.43 c-.11,.13,-.25,.19,-.41,.19 c-.16,0,-.3,-.06,-.41,-.17 c-.11,-.11,-.17,-.26,-.17,-.46 l0,-1.1 c-.77,-1.18,-1.85,-2.11,-3.24,-2.78 c-1.39,-.67,-2.95,-1.01,-4.68,-1.01 Z"> <animate dur='1s' attributeName='d' repeatCount='indefinite'
	values="M143.66,-.72 c-2.4,0,-4.38,.65,-5.95,1.94 c-1.57,1.3,-2.35,3.05,-2.35,5.26 c0,2.18,.68,3.9,2.04,5.18 c1.36,1.28,3.37,2.05,6.02,2.3 l5.47,.53 c.93,.1,1.62,.34,2.06,.74 c.45,.4,.67,1.0,.67,1.8 c0,1.12,-.5,2.04,-1.49,2.76 c-.99,.72,-2.27,1.08,-3.84,1.08 c-1.6,0,-2.94,-.39,-4.01,-1.18 c-1.07,-.78,-1.62,-1.82,-1.66,-3.1 l-4.37,0 c-.03,1.31,.34,2.57,1.1,3.77 c.77,1.2,1.92,2.18,3.46,2.95 c1.54,.77,3.38,1.15,5.52,1.15 c3.1,-.0,5.49,-.72,7.15,-2.16 c1.66,-1.44,2.5,-3.52,2.5,-6.24 l0,-9.94 c0,-1.34,.05,-2.48,.14,-3.41 c.1,-.93,.27,-1.84,.53,-2.74 l-4.51,0 c-.26,.9,-.38,1.84,-.38,2.83 l2.02,0 c.38,0,.7,.11,.94,.34 c.24,.22,.36,.51,.36,.86 c0,.32,-.12,.59,-.36,.82 c-.24,.22,-.54,.34,-.89,.34 c0,.35,-.11,.65,-.34,.89 c-.22,.24,-.51,.36,-.86,.36 c-.32,0,-.59,-.11,-.82,-.34 c-.22,-.22,-.34,-.51,-.34,-.86 l0,-2.26 c-.77,-1.15,-1.84,-2.06,-3.22,-2.71 c-1.38,-.66,-2.91,-.98,-4.61,-.98 Z;

	M143.66,-.72 c-2.4,0,-4.38,.65,-5.95,1.94 c-1.57,1.3,-2.35,3.05,-2.35,5.26 c0,2.18,.68,3.9,2.04,5.18 c1.36,1.28,3.37,2.05,6.02,2.3 l5.47,.53 c.93,.1,1.62,.34,2.06,.74 c.45,.4,.67,1.0,.67,1.8 c0,1.12,-.5,2.04,-1.49,2.76 c-.99,.72,-2.27,1.08,-3.84,1.08 c-1.6,0,-2.94,-.39,-4.01,-1.18 c-1.07,-.78,-1.62,-1.82,-1.66,-3.1 l-4.37,0 c-.03,1.31,.34,2.57,1.1,3.77 c.77,1.2,1.92,2.18,3.46,2.95 c1.54,.77,3.38,1.15,5.52,1.15 c3.1,-.0,5.49,-.72,7.15,-2.16 c1.66,-1.44,2.5,-3.52,2.5,-6.24 l0,-9.94 c0,-1.34,.05,-2.48,.14,-3.41 c.1,-.93,.27,-1.84,.53,-2.74 l-4.51,0 c-.26,.93,-.4,1.94,-.43,3.02 l.91,0 c.22,0,.4,.06,.53,.17 c.13,.11,.19,.25,.19,.41 c0,.16,-.06,.3,-.17,.41 c-.11,.11,-.26,.17,-.46,.17 c0,.16,-.06,.3,-.17,.43 c-.11,.13,-.25,.19,-.41,.19 c-.16,0,-.3,-.06,-.41,-.17 c-.11,-.11,-.17,-.26,-.17,-.46 l0,-1.1 c-.77,-1.18,-1.85,-2.11,-3.24,-2.78 c-1.39,-.67,-2.95,-1.01,-4.68,-1.01 Z;

	M143.66,-.72 c-2.4,0,-4.38,.65,-5.95,1.94 c-1.57,1.3,-2.35,3.05,-2.35,5.26 c0,2.18,.68,3.9,2.04,5.18 c1.36,1.28,3.37,2.05,6.02,2.3 l5.47,.53 c.93,.1,1.62,.34,2.06,.74 c.45,.4,.67,1.0,.67,1.8 c0,1.12,-.5,2.04,-1.49,2.76 c-.99,.72,-2.27,1.08,-3.84,1.08 c-1.6,0,-2.94,-.39,-4.01,-1.18 c-1.07,-.78,-1.62,-1.82,-1.66,-3.1 l-4.37,0 c-.03,1.31,.34,2.57,1.1,3.77 c.77,1.2,1.92,2.18,3.46,2.95 c1.54,.77,3.38,1.15,5.52,1.15 c3.1,-.0,5.49,-.72,7.15,-2.16 c1.66,-1.44,2.5,-3.52,2.5,-6.24 l0,-9.94 c0,-1.34,.05,-2.48,.14,-3.41 c.1,-.93,.27,-1.84,.53,-2.74 l-4.51,0 c-.26,.9,-.38,1.84,-.38,2.83 l2.02,0 c.38,0,.7,.11,.94,.34 c.24,.22,.36,.51,.36,.86 c0,.32,-.12,.59,-.36,.82 c-.24,.22,-.54,.34,-.89,.34 c0,.35,-.11,.65,-.34,.89 c-.22,.24,-.51,.36,-.86,.36 c-.32,0,-.59,-.11,-.82,-.34 c-.22,-.22,-.34,-.51,-.34,-.86 l0,-2.26 c-.77,-1.15,-1.84,-2.06,-3.22,-2.71 c-1.38,-.66,-2.91,-.98,-4.61,-.98 Z
	"/></path>

	<!-- first a counter -->
	<path d="M144.77,2.69 c1.31,0,2.5,.31,3.55,.94 c1.06,.62,1.88,1.44,2.47,2.45 c.59,1.01,.89,2.04,.89,3.1 l0,2.16 l.91,0 c.22,0,.4,.06,.53,.17 c.13,.11,.19,.25,.19,.41 c0,.16,-.06,.3,-.17,.41 c-.11,.11,-.26,.17,-.46,.17 c0,.16,-.06,.3,-.17,.43 c-.11,.13,-.25,.19,-.41,.19 c-.16,-.0,-.3,-.06,-.41,-.17 c-.11,-.11,-.17,-.26,-.17,-.46 l0,-1.01 l-7.3,-.82 c-2.91,-.32,-4.37,-1.63,-4.37,-3.94 c0,-1.22,.45,-2.19,1.34,-2.93 c.9,-.74,2.08,-1.1,3.55,-1.1 Z" fill="rgb(255,255,255)"> <animate dur='1s' attributeName='d' repeatCount='indefinite'
	values="M144.77,2.69 c1.31,0,2.5,.31,3.55,.94 c1.06,.62,1.88,1.44,2.47,2.45 c.59,1.01,.89,2.04,.89,3.1 l0,2.06 l2.06,0 c.38,0,.7,.11,.94,.34 c.24,.22,.36,.51,.36,.86 c0,.32,-.12,.59,-.36,.82 c-.24,.22,-.54,.34,-.89,.34 c0,.35,-.11,.65,-.34,.89 c-.22,.24,-.51,.36,-.86,.36 c-.32,0,-.59,-.11,-.82,-.34 c-.22,-.22,-.34,-.51,-.34,-.86 l0,-2.16 l-7.2,-.82 c-2.91,-.32,-4.37,-1.63,-4.37,-3.94 c0,-1.22,.45,-2.19,1.34,-2.93 c.9,-.74,2.08,-1.1,3.55,-1.1 Z;

	M144.77,2.69 c1.31,0,2.5,.31,3.55,.94 c1.06,.62,1.88,1.44,2.47,2.45 c.59,1.01,.89,2.04,.89,3.1 l0,2.16 l.91,0 c.22,0,.4,.06,.53,.17 c.13,.11,.19,.25,.19,.41 c0,.16,-.06,.3,-.17,.41 c-.11,.11,-.26,.17,-.46,.17 c0,.16,-.06,.3,-.17,.43 c-.11,.13,-.25,.19,-.41,.19 c-.16,-.0,-.3,-.06,-.41,-.17 c-.11,-.11,-.17,-.26,-.17,-.46 l0,-1.01 l-7.3,-.82 c-2.91,-.32,-4.37,-1.63,-4.37,-3.94 c0,-1.22,.45,-2.19,1.34,-2.93 c.9,-.74,2.08,-1.1,3.55,-1.1 Z;

	M144.77,2.69 c1.31,0,2.5,.31,3.55,.94 c1.06,.62,1.88,1.44,2.47,2.45 c.59,1.01,.89,2.04,.89,3.1 l0,2.06 l2.06,0 c.38,0,.7,.11,.94,.34 c.24,.22,.36,.51,.36,.86 c0,.32,-.12,.59,-.36,.82 c-.24,.22,-.54,.34,-.89,.34 c0,.35,-.11,.65,-.34,.89 c-.22,.24,-.51,.36,-.86,.36 c-.32,0,-.59,-.11,-.82,-.34 c-.22,-.22,-.34,-.51,-.34,-.86 l0,-2.16 l-7.2,-.82 c-2.91,-.32,-4.37,-1.63,-4.37,-3.94 c0,-1.22,.45,-2.19,1.34,-2.93 c.9,-.74,2.08,-1.1,3.55,-1.1 Z
	"/></path>

	<!-- r -->
	<path d="M162.19,24 l4.37,0 l0,-3.98 l-.96,0 c-.22,0,-.4,-.06,-.53,-.17 c-.13,-.11,-.19,-.25,-.19,-.41 c0,-.16,.06,-.3,.17,-.41 c.11,-.11,.26,-.17,.46,-.17 c0,-.16,.06,-.3,.17,-.43 c.11,-.13,.25,-.19,.41,-.19 c.16,0,.3,.06,.41,.17 c.11,.11,.17,.26,.17,.46 l0,1.06 c.58,1.44,1.46,2.56,2.64,3.36 c1.18,.8,2.5,1.2,3.94,1.2 c.67,-.0,1.22,-.06,1.63,-.19 l0,-4.18 c-.58,.1,-1.2,.14,-1.87,.14 c-1.92,0,-3.46,-.66,-4.63,-1.99 c-1.17,-1.33,-1.75,-3.1,-1.75,-5.3 l0,-12.96 l-4.42,0 Z"> <animate dur='1s' attributeName='d' repeatCount='indefinite'
	values="M162.19,24 l4.37,0 l0,-3.65 l-2.02,0 c-.38,0,-.7,-.11,-.96,-.34 c-.26,-.22,-.38,-.5,-.38,-.82 c0,-.32,.12,-.6,.36,-.84 c.24,-.24,.54,-.36,.89,-.36 c0,-.35,.11,-.65,.34,-.89 c.22,-.24,.51,-.36,.86,-.36 c.32,0,.59,.11,.82,.34 c.22,.22,.34,.51,.34,.86 l0,2.21 c.58,1.34,1.44,2.4,2.59,3.17 c1.15,.77,2.43,1.15,3.84,1.15 c.67,-.0,1.22,-.06,1.63,-.19 l0,-4.18 c-.58,.1,-1.2,.14,-1.87,.14 c-1.92,0,-3.46,-.66,-4.63,-1.99 c-1.17,-1.33,-1.75,-3.1,-1.75,-5.3 l0,-12.96 l-4.42,0 Z;

	M162.19,24 l4.37,0 l0,-3.98 l-.96,0 c-.22,0,-.4,-.06,-.53,-.17 c-.13,-.11,-.19,-.25,-.19,-.41 c0,-.16,.06,-.3,.17,-.41 c.11,-.11,.26,-.17,.46,-.17 c0,-.16,.06,-.3,.17,-.43 c.11,-.13,.25,-.19,.41,-.19 c.16,0,.3,.06,.41,.17 c.11,.11,.17,.26,.17,.46 l0,1.06 c.58,1.44,1.46,2.56,2.64,3.36 c1.18,.8,2.5,1.2,3.94,1.2 c.67,-.0,1.22,-.06,1.63,-.19 l0,-4.18 c-.58,.1,-1.2,.14,-1.87,.14 c-1.92,0,-3.46,-.66,-4.63,-1.99 c-1.17,-1.33,-1.75,-3.1,-1.75,-5.3 l0,-12.96 l-4.42,0 Z;

	M162.19,24 l4.37,0 l0,-3.65 l-2.02,0 c-.38,0,-.7,-.11,-.96,-.34 c-.26,-.22,-.38,-.5,-.38,-.82 c0,-.32,.12,-.6,.36,-.84 c.24,-.24,.54,-.36,.89,-.36 c0,-.35,.11,-.65,.34,-.89 c.22,-.24,.51,-.36,.86,-.36 c.32,0,.59,.11,.82,.34 c.22,.22,.34,.51,.34,.86 l0,2.21 c.58,1.34,1.44,2.4,2.59,3.17 c1.15,.77,2.43,1.15,3.84,1.15 c.67,-.0,1.22,-.06,1.63,-.19 l0,-4.18 c-.58,.1,-1.2,.14,-1.87,.14 c-1.92,0,-3.46,-.66,-4.63,-1.99 c-1.17,-1.33,-1.75,-3.1,-1.75,-5.3 l0,-12.96 l-4.42,0 Z
	"/></path>

	<!-- i stem (no animation) -->
	<path d="M179.42,24 l4.42,0 l0,-24 l-4.42,0 Z"/>
	<!-- i dot (no animation) -->
	<path d="M179.42,33.02 l4.42,0 l0,-4.56 l-4.42,0 Z"/>

	<!-- second a -->
	<path d="M197.66,-.72 c-2.4,0,-4.38,.65,-5.95,1.94 c-1.57,1.3,-2.35,3.05,-2.35,5.26 c0,2.18,.68,3.9,2.04,5.18 c1.36,1.28,3.37,2.05,6.02,2.3 l5.47,.53 c.93,.1,1.62,.34,2.06,.74 c.45,.4,.67,1.0,.67,1.8 c0,1.12,-.5,2.04,-1.49,2.76 c-.99,.72,-2.27,1.08,-3.84,1.08 c-1.6,0,-2.94,-.39,-4.01,-1.18 c-1.07,-.78,-1.62,-1.82,-1.66,-3.1 l-4.37,0 c-.03,1.31,.34,2.57,1.1,3.77 c.77,1.2,1.92,2.18,3.46,2.95 c1.54,.77,3.38,1.15,5.52,1.15 c3.1,-.0,5.49,-.72,7.15,-2.16 c1.66,-1.44,2.5,-3.52,2.5,-6.24 l0,-9.94 c0,-1.34,.05,-2.48,.14,-3.41 c.1,-.93,.27,-1.84,.53,-2.74 l-4.51,0 c-.26,.93,-.4,1.94,-.43,3.02 l.91,0 c.22,0,.4,.06,.53,.17 c.13,.11,.19,.25,.19,.41 c0,.16,-.06,.3,-.17,.41 c-.11,.11,-.26,.17,-.46,.17 c0,.16,-.06,.3,-.17,.43 c-.11,.13,-.25,.19,-.41,.19 c-.16,0,-.3,-.06,-.41,-.17 c-.11,-.11,-.17,-.26,-.17,-.46 l0,-1.1 c-.77,-1.18,-1.85,-2.11,-3.24,-2.78 c-1.39,-.67,-2.95,-1.01,-4.68,-1.01 Z"> <animate dur='1s' attributeName='d' repeatCount='indefinite'
	values="M197.66,-.72 c-2.4,0,-4.38,.65,-5.95,1.94 c-1.57,1.3,-2.35,3.05,-2.35,5.26 c0,2.18,.68,3.9,2.04,5.18 c1.36,1.28,3.37,2.05,6.02,2.3 l5.47,.53 c.93,.1,1.62,.34,2.06,.74 c.45,.4,.67,1.0,.67,1.8 c0,1.12,-.5,2.04,-1.49,2.76 c-.99,.72,-2.27,1.08,-3.84,1.08 c-1.6,0,-2.94,-.39,-4.01,-1.18 c-1.07,-.78,-1.62,-1.82,-1.66,-3.1 l-4.37,0 c-.03,1.31,.34,2.57,1.1,3.77 c.77,1.2,1.92,2.18,3.46,2.95 c1.54,.77,3.38,1.15,5.52,1.15 c3.1,-.0,5.49,-.72,7.15,-2.16 c1.66,-1.44,2.5,-3.52,2.5,-6.24 l0,-9.94 c0,-1.34,.05,-2.48,.14,-3.41 c.1,-.93,.27,-1.84,.53,-2.74 l-4.51,0 c-.26,.9,-.38,1.84,-.38,2.83 l2.02,0 c.38,0,.7,.11,.94,.34 c.24,.22,.36,.51,.36,.86 c0,.32,-.12,.59,-.36,.82 c-.24,.22,-.54,.34,-.89,.34 c0,.35,-.11,.65,-.34,.89 c-.22,.24,-.51,.36,-.86,.36 c-.32,0,-.59,-.11,-.82,-.34 c-.22,-.22,-.34,-.51,-.34,-.86 l0,-2.26 c-.77,-1.15,-1.84,-2.06,-3.22,-2.71 c-1.38,-.66,-2.91,-.98,-4.61,-.98 Z;

	M197.66,-.72 c-2.4,0,-4.38,.65,-5.95,1.94 c-1.57,1.3,-2.35,3.05,-2.35,5.26 c0,2.18,.68,3.9,2.04,5.18 c1.36,1.28,3.37,2.05,6.02,2.3 l5.47,.53 c.93,.1,1.62,.34,2.06,.74 c.45,.4,.67,1.0,.67,1.8 c0,1.12,-.5,2.04,-1.49,2.76 c-.99,.72,-2.27,1.08,-3.84,1.08 c-1.6,0,-2.94,-.39,-4.01,-1.18 c-1.07,-.78,-1.62,-1.82,-1.66,-3.1 l-4.37,0 c-.03,1.31,.34,2.57,1.1,3.77 c.77,1.2,1.92,2.18,3.46,2.95 c1.54,.77,3.38,1.15,5.52,1.15 c3.1,-.0,5.49,-.72,7.15,-2.16 c1.66,-1.44,2.5,-3.52,2.5,-6.24 l0,-9.94 c0,-1.34,.05,-2.48,.14,-3.41 c.1,-.93,.27,-1.84,.53,-2.74 l-4.51,0 c-.26,.93,-.4,1.94,-.43,3.02 l.91,0 c.22,0,.4,.06,.53,.17 c.13,.11,.19,.25,.19,.41 c0,.16,-.06,.3,-.17,.41 c-.11,.11,-.26,.17,-.46,.17 c0,.16,-.06,.3,-.17,.43 c-.11,.13,-.25,.19,-.41,.19 c-.16,0,-.3,-.06,-.41,-.17 c-.11,-.11,-.17,-.26,-.17,-.46 l0,-1.1 c-.77,-1.18,-1.85,-2.11,-3.24,-2.78 c-1.39,-.67,-2.95,-1.01,-4.68,-1.01 Z;

	M197.66,-.72 c-2.4,0,-4.38,.65,-5.95,1.94 c-1.57,1.3,-2.35,3.05,-2.35,5.26 c0,2.18,.68,3.9,2.04,5.18 c1.36,1.28,3.37,2.05,6.02,2.3 l5.47,.53 c.93,.1,1.62,.34,2.06,.74 c.45,.4,.67,1.0,.67,1.8 c0,1.12,-.5,2.04,-1.49,2.76 c-.99,.72,-2.27,1.08,-3.84,1.08 c-1.6,0,-2.94,-.39,-4.01,-1.18 c-1.07,-.78,-1.62,-1.82,-1.66,-3.1 l-4.37,0 c-.03,1.31,.34,2.57,1.1,3.77 c.77,1.2,1.92,2.18,3.46,2.95 c1.54,.77,3.38,1.15,5.52,1.15 c3.1,-.0,5.49,-.72,7.15,-2.16 c1.66,-1.44,2.5,-3.52,2.5,-6.24 l0,-9.94 c0,-1.34,.05,-2.48,.14,-3.41 c.1,-.93,.27,-1.84,.53,-2.74 l-4.51,0 c-.26,.9,-.38,1.84,-.38,2.83 l2.02,0 c.38,0,.7,.11,.94,.34 c.24,.22,.36,.51,.36,.86 c0,.32,-.12,.59,-.36,.82 c-.24,.22,-.54,.34,-.89,.34 c0,.35,-.11,.65,-.34,.89 c-.22,.24,-.51,.36,-.86,.36 c-.32,0,-.59,-.11,-.82,-.34 c-.22,-.22,-.34,-.51,-.34,-.86 l0,-2.26 c-.77,-1.15,-1.84,-2.06,-3.22,-2.71 c-1.38,-.66,-2.91,-.98,-4.61,-.98 Z
	"/></path>


	<!-- second a counter -->
	<path d="M198.77,2.69 c1.31,0,2.5,.31,3.55,.94 c1.06,.62,1.88,1.44,2.47,2.45 c.59,1.01,.89,2.04,.89,3.1 l0,2.16 l.91,0 c.22,0,.4,.06,.53,.17 c.13,.11,.19,.25,.19,.41 c0,.16,-.06,.3,-.17,.41 c-.11,.11,-.26,.17,-.46,.17 c0,.16,-.06,.3,-.17,.43 c-.11,.13,-.25,.19,-.41,.19 c-.16,-.0,-.3,-.06,-.41,-.17 c-.11,-.11,-.17,-.26,-.17,-.46 l0,-1.01 l-7.3,-.82 c-2.91,-.32,-4.37,-1.63,-4.37,-3.94 c.0,-1.22,.45,-2.19,1.34,-2.93 c.9,-.74,2.08,-1.1,3.55,-1.1 Z" fill="rgb(255,255,255)"> <animate dur='1s' attributeName='d' repeatCount='indefinite'
	values="M198.77,2.69 c1.31,0,2.5,.31,3.55,.94 c1.06,.62,1.88,1.44,2.47,2.45 c.59,1.01,.89,2.04,.89,3.1 l0,2.06 l2.06,0 c.38,0,.7,.11,.94,.34 c.24,.22,.36,.51,.36,.86 c.0,.32,-.12,.59,-.36,.82 c-.24,.22,-.54,.34,-.89,.34 c0,.35,-.11,.65,-.34,.89 c-.22,.24,-.51,.36,-.86,.36 c-.32,0,-.59,-.11,-.82,-.34 c-.22,-.22,-.34,-.51,-.34,-.86 l0,-2.16 l-7.2,-.82 c-2.91,-.32,-4.37,-1.63,-4.37,-3.94 c.0,-1.22,.45,-2.19,1.34,-2.93 c.9,-.74,2.08,-1.1,3.55,-1.1 Z;

	M198.77,2.69 c1.31,0,2.5,.31,3.55,.94 c1.06,.62,1.88,1.44,2.47,2.45 c.59,1.01,.89,2.04,.89,3.1 l0,2.16 l.91,0 c.22,0,.4,.06,.53,.17 c.13,.11,.19,.25,.19,.41 c0,.16,-.06,.3,-.17,.41 c-.11,.11,-.26,.17,-.46,.17 c0,.16,-.06,.3,-.17,.43 c-.11,.13,-.25,.19,-.41,.19 c-.16,-.0,-.3,-.06,-.41,-.17 c-.11,-.11,-.17,-.26,-.17,-.46 l0,-1.01 l-7.3,-.82 c-2.91,-.32,-4.37,-1.63,-4.37,-3.94 c.0,-1.22,.45,-2.19,1.34,-2.93 c.9,-.74,2.08,-1.1,3.55,-1.1 Z;

	M198.77,2.69 c1.31,0,2.5,.31,3.55,.94 c1.06,.62,1.88,1.44,2.47,2.45 c.59,1.01,.89,2.04,.89,3.1 l0,2.06 l2.06,0 c.38,0,.7,.11,.94,.34 c.24,.22,.36,.51,.36,.86 c.0,.32,-.12,.59,-.36,.82 c-.24,.22,-.54,.34,-.89,.34 c0,.35,-.11,.65,-.34,.89 c-.22,.24,-.51,.36,-.86,.36 c-.32,0,-.59,-.11,-.82,-.34 c-.22,-.22,-.34,-.51,-.34,-.86 l0,-2.16 l-7.2,-.82 c-2.91,-.32,-4.37,-1.63,-4.37,-3.94 c.0,-1.22,.45,-2.19,1.34,-2.93 c.9,-.74,2.08,-1.1,3.55,-1.1 Z
	"/></path>

	<!-- b outside -->
	<path d="M228.62,-.72 c-1.5,0,-2.99,.37,-4.46,1.1 c-1.47,.74,-2.54,1.68,-3.22,2.83 l0,1.06 c0,.19,-.06,.34,-.17,.46 c-.11,.11,-.25,.17,-.41,.17 c-.16,0,-.3,-.06,-.41,-.19 c-.11,-.13,-.17,-.27,-.17,-.43 c-.19,0,-.34,-.06,-.46,-.17 c-.11,-.11,-.17,-.25,-.17,-.41 c0,-.16,.06,-.3,.19,-.41 c.13,-.11,.3,-.17,.53,-.17 l.91,0 l0,-3.12 l-4.37,0 l0,33.84 l4.42,0 l0,-13.34 l-.91,0 c-.22,0,-.4,-.06,-.53,-.17 c-.13,-.11,-.19,-.25,-.19,-.41 c0,-.16,.06,-.3,.17,-.41 c.11,-.11,.26,-.17,.46,-.17 c.0,-.16,.06,-.3,.17,-.43 c.11,-.13,.25,-.19,.41,-.19 c.16,0,.3,.06,.41,.17 c.11,.11,.17,.26,.17,.46 l0,1.1 c.77,1.15,1.87,2.11,3.31,2.88 c1.44,.77,2.93,1.15,4.46,1.15 c2.08,-.0,3.94,-.5,5.57,-1.49 c1.63,-.99,2.91,-2.43,3.84,-4.32 c.93,-1.89,1.39,-4.14,1.39,-6.77 c0,-2.56,-.46,-4.79,-1.37,-6.7 c-.91,-1.9,-2.19,-3.37,-3.84,-4.39 c-1.65,-1.02,-3.56,-1.54,-5.74,-1.54 Z"> <animate dur='1s' attributeName='d' repeatCount='indefinite'
	values="M228.62,-.72 c-1.47,0,-2.93,.35,-4.37,1.06 c-1.44,.7,-2.5,1.62,-3.17,2.74 l0,2.21 c-.0,.35,-.11,.64,-.34,.86 c-.22,.22,-.5,.34,-.82,.34 c-.35,0,-.64,-.12,-.86,-.36 c-.22,-.24,-.34,-.54,-.34,-.89 c-.35,0,-.65,-.11,-.89,-.34 c-.24,-.22,-.36,-.5,-.36,-.82 c0,-.35,.12,-.64,.36,-.86 c.24,-.22,.55,-.34,.94,-.34 l2.02,0 l0,-2.88 l-4.37,0 l0,33.84 l4.42,0 l0,-13.06 l-1.97,0 c-.38,0,-.7,-.11,-.96,-.34 c-.26,-.22,-.38,-.5,-.38,-.82 c0,-.32,.12,-.6,.36,-.84 c.24,-.24,.54,-.36,.89,-.36 c0,-.35,.11,-.65,.34,-.89 c.22,-.24,.51,-.36,.86,-.36 c.32,0,.59,.11,.82,.34 c.22,.22,.34,.51,.34,.86 l0,2.26 c.77,1.09,1.86,2.0,3.26,2.74 c1.41,.74,2.86,1.1,4.37,1.1 c2.08,-.0,3.94,-.5,5.57,-1.49 c1.63,-.99,2.91,-2.43,3.84,-4.32 c.93,-1.89,1.39,-4.14,1.39,-6.77 c0,-2.56,-.46,-4.79,-1.37,-6.7 c-.91,-1.9,-2.19,-3.37,-3.84,-4.39 c-1.65,-1.02,-3.56,-1.54,-5.74,-1.54 Z;

	M228.62,-.72 c-1.5,0,-2.99,.37,-4.46,1.1 c-1.47,.74,-2.54,1.68,-3.22,2.83 l0,1.06 c0,.19,-.06,.34,-.17,.46 c-.11,.11,-.25,.17,-.41,.17 c-.16,0,-.3,-.06,-.41,-.19 c-.11,-.13,-.17,-.27,-.17,-.43 c-.19,0,-.34,-.06,-.46,-.17 c-.11,-.11,-.17,-.25,-.17,-.41 c0,-.16,.06,-.3,.19,-.41 c.13,-.11,.3,-.17,.53,-.17 l.91,0 l0,-3.12 l-4.37,0 l0,33.84 l4.42,0 l0,-13.34 l-.91,0 c-.22,0,-.4,-.06,-.53,-.17 c-.13,-.11,-.19,-.25,-.19,-.41 c0,-.16,.06,-.3,.17,-.41 c.11,-.11,.26,-.17,.46,-.17 c.0,-.16,.06,-.3,.17,-.43 c.11,-.13,.25,-.19,.41,-.19 c.16,0,.3,.06,.41,.17 c.11,.11,.17,.26,.17,.46 l0,1.1 c.77,1.15,1.87,2.11,3.31,2.88 c1.44,.77,2.93,1.15,4.46,1.15 c2.08,-.0,3.94,-.5,5.57,-1.49 c1.63,-.99,2.91,-2.43,3.84,-4.32 c.93,-1.89,1.39,-4.14,1.39,-6.77 c0,-2.56,-.46,-4.79,-1.37,-6.7 c-.91,-1.9,-2.19,-3.37,-3.84,-4.39 c-1.65,-1.02,-3.56,-1.54,-5.74,-1.54 Z;

	M228.62,-.72 c-1.47,0,-2.93,.35,-4.37,1.06 c-1.44,.7,-2.5,1.62,-3.17,2.74 l0,2.21 c-.0,.35,-.11,.64,-.34,.86 c-.22,.22,-.5,.34,-.82,.34 c-.35,0,-.64,-.12,-.86,-.36 c-.22,-.24,-.34,-.54,-.34,-.89 c-.35,0,-.65,-.11,-.89,-.34 c-.24,-.22,-.36,-.5,-.36,-.82 c0,-.35,.12,-.64,.36,-.86 c.24,-.22,.55,-.34,.94,-.34 l2.02,0 l0,-2.88 l-4.37,0 l0,33.84 l4.42,0 l0,-13.06 l-1.97,0 c-.38,0,-.7,-.11,-.96,-.34 c-.26,-.22,-.38,-.5,-.38,-.82 c0,-.32,.12,-.6,.36,-.84 c.24,-.24,.54,-.36,.89,-.36 c0,-.35,.11,-.65,.34,-.89 c.22,-.24,.51,-.36,.86,-.36 c.32,0,.59,.11,.82,.34 c.22,.22,.34,.51,.34,.86 l0,2.26 c.77,1.09,1.86,2.0,3.26,2.74 c1.41,.74,2.86,1.1,4.37,1.1 c2.08,-.0,3.94,-.5,5.57,-1.49 c1.63,-.99,2.91,-2.43,3.84,-4.32 c.93,-1.89,1.39,-4.14,1.39,-6.77 c0,-2.56,-.46,-4.79,-1.37,-6.7 c-.91,-1.9,-2.19,-3.37,-3.84,-4.39 c-1.65,-1.02,-3.56,-1.54,-5.74,-1.54 Z"/></path>

	<!-- b counter (no animation) -->
	<path d="M228.19,3.07 c2.14,0,3.82,.79,5.04,2.38 c1.22,1.58,1.82,3.72,1.82,6.41 c0,2.69,-.6,4.83,-1.8,6.43 c-1.2,1.6,-2.87,2.4,-5.02,2.4 c-2.37,0,-4.23,-.82,-5.59,-2.47 c-1.36,-1.65,-2.04,-3.77,-2.04,-6.36 c0,-2.66,.68,-4.78,2.04,-6.38 c1.36,-1.6,3.21,-2.4,5.54,-2.4 Z" fill="rgb(255,255,255)"/>
	<!-- l (no animation) -->
	<path d="M244.37,33.84 l4.42,0 l0,-33.84 l-4.42,0 Z"/>

	<!-- e -->
	<path d="M265.54,-.72 c-2.34,0,-4.41,.55,-6.22,1.66 c-1.81,1.1,-3.22,2.61,-4.22,4.51 c-1.01,1.9,-1.51,4.06,-1.51,6.46 c0,2.34,.51,4.46,1.54,6.38 c1.02,1.92,2.43,3.43,4.22,4.54 c1.79,1.1,3.79,1.66,6,1.66 c2.5,-.0,4.61,-.6,6.34,-1.8 c1.73,-1.2,3.0,-2.85,3.82,-4.94 c.82,-2.1,1.16,-4.49,1.03,-7.18 l-18.29,0 l0,1.01 c0,.19,-.06,.34,-.17,.46 c-.11,.11,-.25,.17,-.41,.17 c-.16,0,-.3,-.06,-.41,-.19 c-.11,-.13,-.17,-.27,-.17,-.43 c-.19,0,-.34,-.06,-.46,-.17 c-.11,-.11,-.17,-.25,-.17,-.41 c0,-.16,.06,-.3,.19,-.41 c.13,-.11,.3,-.17,.53,-.17 l.91,0 c.03,-2.14,.74,-3.92,2.14,-5.33 c1.39,-1.41,3.14,-2.11,5.26,-2.11 c1.73,0,3.06,.36,4.01,1.08 c.94,.72,1.67,1.69,2.18,2.9 l4.46,0 c-.32,-1.31,-.94,-2.55,-1.85,-3.72 c-.91,-1.17,-2.11,-2.12,-3.6,-2.86 c-1.49,-.74,-3.21,-1.1,-5.16,-1.1 Z"> <animate dur='1s' attributeName='d' repeatCount='indefinite'
	values="M265.44,-.72 c-2.34,0,-4.4,.54,-6.19,1.63 c-1.79,1.09,-3.18,2.58,-4.18,4.49 c-.99,1.9,-1.49,4.04,-1.49,6.41 c0,2.37,.51,4.52,1.54,6.46 c1.02,1.94,2.45,3.46,4.27,4.56 c1.82,1.1,3.87,1.66,6.14,1.66 c2.34,-.0,4.36,-.58,6.07,-1.73 c1.71,-1.15,2.99,-2.78,3.84,-4.87 c.85,-2.1,1.21,-4.54,1.08,-7.32 l-18.19,0 l0,2.11 c0,.32,-.1,.59,-.31,.82 c-.21,.22,-.47,.34,-.79,.34 c-.32,0,-.6,-.11,-.84,-.34 c-.24,-.22,-.36,-.51,-.36,-.86 c-.32,0,-.6,-.1,-.84,-.31 c-.24,-.21,-.36,-.47,-.36,-.79 c0,-.32,.13,-.6,.38,-.84 c.26,-.24,.56,-.36,.91,-.36 l1.97,0 c.06,-2.14,.79,-3.9,2.18,-5.28 c1.39,-1.38,3.19,-2.06,5.4,-2.06 c1.63,0,2.91,.36,3.84,1.08 c.93,.72,1.65,1.69,2.16,2.9 l4.46,0 c-.29,-1.31,-.9,-2.55,-1.85,-3.72 c-.94,-1.17,-2.17,-2.12,-3.67,-2.86 c-1.5,-.74,-3.23,-1.1,-5.18,-1.1 Z;

	M265.54,-.72 c-2.34,0,-4.41,.55,-6.22,1.66 c-1.81,1.1,-3.22,2.61,-4.22,4.51 c-1.01,1.9,-1.51,4.06,-1.51,6.46 c0,2.34,.51,4.46,1.54,6.38 c1.02,1.92,2.43,3.43,4.22,4.54 c1.79,1.1,3.79,1.66,6,1.66 c2.5,-.0,4.61,-.6,6.34,-1.8 c1.73,-1.2,3.0,-2.85,3.82,-4.94 c.82,-2.1,1.16,-4.49,1.03,-7.18 l-18.29,0 l0,1.01 c0,.19,-.06,.34,-.17,.46 c-.11,.11,-.25,.17,-.41,.17 c-.16,0,-.3,-.06,-.41,-.19 c-.11,-.13,-.17,-.27,-.17,-.43 c-.19,0,-.34,-.06,-.46,-.17 c-.11,-.11,-.17,-.25,-.17,-.41 c0,-.16,.06,-.3,.19,-.41 c.13,-.11,.3,-.17,.53,-.17 l.91,0 c.03,-2.14,.74,-3.92,2.14,-5.33 c1.39,-1.41,3.14,-2.11,5.26,-2.11 c1.73,0,3.06,.36,4.01,1.08 c.94,.72,1.67,1.69,2.18,2.9 l4.46,0 c-.32,-1.31,-.94,-2.55,-1.85,-3.72 c-.91,-1.17,-2.11,-2.12,-3.6,-2.86 c-1.49,-.74,-3.21,-1.1,-5.16,-1.1 Z;

	M265.44,-.72 c-2.34,0,-4.4,.54,-6.19,1.63 c-1.79,1.09,-3.18,2.58,-4.18,4.49 c-.99,1.9,-1.49,4.04,-1.49,6.41 c0,2.37,.51,4.52,1.54,6.46 c1.02,1.94,2.45,3.46,4.27,4.56 c1.82,1.1,3.87,1.66,6.14,1.66 c2.34,-.0,4.36,-.58,6.07,-1.73 c1.71,-1.15,2.99,-2.78,3.84,-4.87 c.85,-2.1,1.21,-4.54,1.08,-7.32 l-18.19,0 l0,2.11 c0,.32,-.1,.59,-.31,.82 c-.21,.22,-.47,.34,-.79,.34 c-.32,0,-.6,-.11,-.84,-.34 c-.24,-.22,-.36,-.51,-.36,-.86 c-.32,0,-.6,-.1,-.84,-.31 c-.24,-.21,-.36,-.47,-.36,-.79 c0,-.32,.13,-.6,.38,-.84 c.26,-.24,.56,-.36,.91,-.36 l1.97,0 c.06,-2.14,.79,-3.9,2.18,-5.28 c1.39,-1.38,3.19,-2.06,5.4,-2.06 c1.63,0,2.91,.36,3.84,1.08 c.93,.72,1.65,1.69,2.16,2.9 l4.46,0 c-.29,-1.31,-.9,-2.55,-1.85,-3.72 c-.94,-1.17,-2.17,-2.12,-3.67,-2.86 c-1.5,-.74,-3.23,-1.1,-5.18,-1.1 Z
	"/></path>

	<!-- e counter -->
	<path d="M272.54,12.58 c.16,0,.3,.06,.41,.19 c.11,.13,.17,.27,.17,.43 c.19,-.0,.34,.06,.46,.17 c.11,.11,.17,.25,.17,.41 c0,.16,-.06,.3,-.19,.41 c-.13,.11,-.3,.17,-.53,.17 l-.91,0 c-.19,1.98,-.86,3.56,-2.02,4.73 c-1.15,1.17,-2.72,1.75,-4.7,1.75 c-1.31,0,-2.5,-.3,-3.55,-.91 c-1.06,-.61,-1.9,-1.42,-2.54,-2.42 c-.64,-1.01,-1.01,-2.1,-1.1,-3.29 l13.78,0 l0,-1.01 c0,-.19,.06,-.34,.17,-.46 c.11,-.11,.25,-.17,.41,-.17 Z" fill="rgb(255,255,255)"> <animate dur='1s' attributeName='d' repeatCount='indefinite'
	values="M272.98,11.09 c.32,0,.58,.1,.79,.31 c.21,.21,.31,.49,.31,.84 c.32,-.0,.59,.11,.82,.34 c.22,.22,.34,.5,.34,.82 c0,.32,-.12,.58,-.36,.77 c-.24,.19,-.54,.29,-.89,.29 l-1.92,0 c-.16,1.95,-.81,3.5,-1.94,4.66 c-1.14,1.15,-2.66,1.73,-4.58,1.73 c-1.34,0,-2.56,-.3,-3.65,-.91 c-1.09,-.61,-1.95,-1.42,-2.59,-2.42 c-.64,-1.01,-1.01,-2.1,-1.1,-3.29 l13.68,0 l0,-2.02 c0,-.32,.1,-.58,.31,-.79 c.21,-.21,.47,-.31,.79,-.31 Z;

	M272.54,12.58 c.16,0,.3,.06,.41,.19 c.11,.13,.17,.27,.17,.43 c.19,-.0,.34,.06,.46,.17 c.11,.11,.17,.25,.17,.41 c0,.16,-.06,.3,-.19,.41 c-.13,.11,-.3,.17,-.53,.17 l-.91,0 c-.19,1.98,-.86,3.56,-2.02,4.73 c-1.15,1.17,-2.72,1.75,-4.7,1.75 c-1.31,0,-2.5,-.3,-3.55,-.91 c-1.06,-.61,-1.9,-1.42,-2.54,-2.42 c-.64,-1.01,-1.01,-2.1,-1.1,-3.29 l13.78,0 l0,-1.01 c0,-.19,.06,-.34,.17,-.46 c.11,-.11,.25,-.17,.41,-.17 Z;

	M272.98,11.09 c.32,0,.58,.1,.79,.31 c.21,.21,.31,.49,.31,.84 c.32,-.0,.59,.11,.82,.34 c.22,.22,.34,.5,.34,.82 c0,.32,-.12,.58,-.36,.77 c-.24,.19,-.54,.29,-.89,.29 l-1.92,0 c-.16,1.95,-.81,3.5,-1.94,4.66 c-1.14,1.15,-2.66,1.73,-4.58,1.73 c-1.34,0,-2.56,-.3,-3.65,-.91 c-1.09,-.61,-1.95,-1.42,-2.59,-2.42 c-.64,-1.01,-1.01,-2.1,-1.1,-3.29 l13.68,0 l0,-2.02 c0,-.32,.1,-.58,.31,-.79 c.21,-.21,.47,-.31,.79,-.31 Z
	"/></path>
</g>
</svg>