<?xml version="1.0" encoding="UTF-8" standalone="no"?>
<!DOCTYPE svg PUBLIC "-//W3C//DTD SVG 1.1//EN" "http://www.w3.org/Graphics/SVG/1.1/DTD/svg11.dtd">
<svg viewBox="0 0 1611 772" version="1.1" xmlns="http://www.w3.org/2000/svg" xmlns:xlink="http://www.w3.org/1999/xlink" xml:space="preserve" xmlns:serif="http://www.serif.com/" style="fill-rule:evenodd;clip-rule:evenodd;stroke-linecap:round;stroke-miterlimit:10;">
    <g transform="matrix(1,0,0,1,-8338,-3005)">
        <g id="アートボード2" transform="matrix(1.26697,0,0,1.81575,-1096.43,0)">
            <rect x="4104.61" y="0" width="4833.69" height="2842.88" style="fill:none;"/>
            <g transform="matrix(3.20436,0,0,2.23591,-6990.62,-3004.62)">
                <g transform="matrix(750,0,0,750,4484.45,2492.88)">
                    <path d="M0.054,-0.517L0.054,-0L0.196,-0L0.196,-0.271C0.196,-0.324 0.205,-0.362 0.222,-0.385C0.239,-0.407 0.267,-0.419 0.306,-0.419C0.34,-0.419 0.364,-0.409 0.377,-0.388C0.39,-0.367 0.397,-0.335 0.397,-0.292L0.397,-0L0.539,-0L0.539,-0.318C0.539,-0.35 0.536,-0.379 0.531,-0.406C0.525,-0.432 0.515,-0.454 0.501,-0.473C0.487,-0.491 0.468,-0.505 0.444,-0.516C0.419,-0.526 0.388,-0.531 0.35,-0.531C0.32,-0.531 0.291,-0.524 0.262,-0.511C0.233,-0.497 0.21,-0.475 0.192,-0.445L0.189,-0.445L0.189,-0.517L0.054,-0.517Z" style="fill-rule:nonzero;"/>
                </g>
            </g>
            <g transform="matrix(0.502362,-0.118961,0.475655,0.406667,1877.54,1471.44)">
                <g transform="matrix(1.23036,0.359915,-1.00415,1.06053,8346.39,2892.83)">
                    <path d="M438.968,352.175L469.603,347.869L473.909,378.503" style="fill:none;stroke:rgb(7,116,249);stroke-width:14.58px;"/>
                    <path d="M379.366,467.622C379.366,467.622 448.287,376.157 469.603,347.869" style="fill:none;stroke:rgb(7,116,249);stroke-width:14.58px;stroke-linejoin:round;stroke-miterlimit:100;"/>
                </g>
            </g>
        </g>
    </g>
</svg>
