<?xml version="1.0" encoding="UTF-8" standalone="no"?>
<!DOCTYPE svg PUBLIC "-//W3C//DTD SVG 1.1//EN" "http://www.w3.org/Graphics/SVG/1.1/DTD/svg11.dtd">
<svg viewBox="0 0 2534 1633" version="1.1" xmlns="http://www.w3.org/2000/svg" xmlns:xlink="http://www.w3.org/1999/xlink" xml:space="preserve" xmlns:serif="http://www.serif.com/" style="fill-rule:evenodd;clip-rule:evenodd;stroke-linejoin:round;stroke-miterlimit:2;">
    <g transform="matrix(1,0,0,1,-4617,-2144)">
        <g id="アートボード2" transform="matrix(1.26697,0,0,1.81575,-1096.43,0)">
            <rect x="4104.61" y="0" width="4833.69" height="2842.88" style="fill:none;"/>
            <g transform="matrix(4.83297e-17,-0.550737,0.789283,3.37229e-17,3165.68,4045.96)">
                <path d="M4805.6,1911.2C4826.95,1830.49 4900.53,1770.92 4987.92,1770.92C5091.99,1770.92 5176.48,1855.41 5176.48,1959.48C5176.48,2063.55 5091.99,2148.04 4987.92,2148.04L4471.69,2148.04L4471.69,1775.08L4805.6,1775.08L4805.6,1911.2Z"/>
            </g>
            <g transform="matrix(4.83297e-17,-0.550737,0.789283,3.37229e-17,3165.68,4521.3)">
                <path d="M4805.6,1911.2C4826.95,1830.49 4900.53,1770.92 4987.92,1770.92C5091.99,1770.92 5176.48,1855.41 5176.48,1959.48C5176.48,2063.55 5091.99,2148.04 4987.92,2148.04L4471.69,2148.04L4471.69,1775.08L4805.6,1775.08L4805.6,1911.2Z"/>
            </g>
            <g transform="matrix(4.83297e-17,-0.550737,0.789283,3.37229e-17,3272.79,5063.93)">
                <path d="M5795.19,1899.98C5795.19,4783.38 6704.35,4812.79 5795.19,1899.98Z"/>
            </g>
        </g>
    </g>
</svg>
