<?xml version="1.0" encoding="UTF-8" standalone="no"?>
<!DOCTYPE svg PUBLIC "-//W3C//DTD SVG 1.1//EN" "http://www.w3.org/Graphics/SVG/1.1/DTD/svg11.dtd">
<svg viewBox="0 0 2712 609" version="1.1" xmlns="http://www.w3.org/2000/svg" xmlns:xlink="http://www.w3.org/1999/xlink" xml:space="preserve" xmlns:serif="http://www.serif.com/" style="fill-rule:evenodd;clip-rule:evenodd;stroke-linejoin:round;stroke-miterlimit:2;">
    <g transform="matrix(1,0,0,1,-4553,-8179)">
        <g id="アートボード4" transform="matrix(1,0,0,1,-0.904563,-0.692083)">
            <rect x="4107.9" y="5382.69" width="6087.74" height="3938.98" style="fill:none;"/>
            <g transform="matrix(1,0,0,1,0.904563,762.003)">
                <g transform="matrix(600,0,0,600,4577.95,7900.55)">
                    <path d="M0.194,-0.24C0.208,-0.271 0.218,-0.302 0.225,-0.336L0.275,-0.566C0.28,-0.59 0.286,-0.619 0.288,-0.652L0.309,-0.652C0.312,-0.616 0.317,-0.588 0.322,-0.566L0.368,-0.352C0.374,-0.326 0.388,-0.269 0.403,-0.24L0.194,-0.24ZM0.014,-0L0.15,-0L0.183,-0.154L0.41,-0.154L0.444,-0L0.597,-0L0.379,-0.741L0.225,-0.741L0.014,-0Z" style="fill-rule:nonzero;"/>
                </g>
                <g transform="matrix(600,0,0,600,4944.55,7900.55)">
                    <path d="M0.285,-0.237L0.349,-0.157C0.364,-0.139 0.375,-0.121 0.403,-0.113L0.403,-0.104C0.385,-0.097 0.369,-0.094 0.353,-0.094C0.252,-0.094 0.198,-0.19 0.198,-0.38C0.198,-0.552 0.249,-0.64 0.332,-0.64C0.417,-0.64 0.47,-0.551 0.47,-0.381C0.47,-0.297 0.465,-0.228 0.453,-0.172L0.445,-0.172C0.439,-0.202 0.425,-0.218 0.412,-0.234L0.357,-0.302L0.285,-0.237ZM0.615,0.018L0.572,-0.035C0.559,-0.051 0.543,-0.062 0.522,-0.069L0.516,-0.077C0.584,-0.135 0.609,-0.234 0.609,-0.382C0.609,-0.62 0.506,-0.753 0.335,-0.753C0.159,-0.753 0.059,-0.622 0.059,-0.373C0.059,-0.122 0.164,0.012 0.337,0.012C0.39,0.012 0.435,-0.004 0.475,-0.039L0.481,-0.033L0.481,-0.028C0.481,-0.006 0.487,0.011 0.498,0.025L0.546,0.086L0.615,0.018Z" style="fill-rule:nonzero;"/>
                </g>
                <g transform="matrix(600,0,0,600,5344.75,7900.55)">
                    <path d="M0.014,-0.741L0.195,0.006L0.326,0.006L0.407,-0.364C0.424,-0.443 0.434,-0.496 0.438,-0.582L0.461,-0.582C0.464,-0.519 0.47,-0.473 0.476,-0.443L0.572,0.006L0.69,0.006L0.875,-0.741L0.743,-0.741L0.653,-0.286C0.644,-0.242 0.636,-0.192 0.632,-0.133L0.611,-0.133C0.604,-0.216 0.59,-0.293 0.574,-0.378L0.506,-0.741L0.389,-0.741L0.299,-0.286C0.289,-0.236 0.282,-0.185 0.278,-0.133L0.257,-0.133C0.248,-0.219 0.24,-0.272 0.237,-0.289L0.151,-0.741L0.014,-0.741Z" style="fill-rule:nonzero;"/>
                </g>
                <g transform="matrix(600,0,0,600,5878.15,7900.55)">
                    <path d="M0.307,-0.419C0.255,-0.477 0.223,-0.517 0.223,-0.571C0.223,-0.623 0.254,-0.657 0.302,-0.657C0.349,-0.657 0.379,-0.621 0.379,-0.566C0.379,-0.512 0.354,-0.472 0.307,-0.419ZM0.506,-0.393C0.506,-0.328 0.504,-0.264 0.497,-0.203L0.484,-0.198C0.464,-0.248 0.419,-0.304 0.353,-0.37L0.353,-0.393C0.438,-0.426 0.492,-0.501 0.492,-0.584C0.492,-0.675 0.418,-0.753 0.299,-0.753C0.183,-0.753 0.107,-0.674 0.107,-0.572C0.107,-0.506 0.139,-0.448 0.197,-0.414L0.197,-0.393C0.109,-0.367 0.068,-0.31 0.068,-0.216C0.068,-0.079 0.155,0.013 0.274,0.013C0.339,0.013 0.392,-0.017 0.454,-0.074L0.495,-0L0.652,-0L0.528,-0.153L0.528,-0.167C0.596,-0.216 0.63,-0.291 0.633,-0.393L0.506,-0.393ZM0.23,-0.364L0.245,-0.362C0.257,-0.335 0.27,-0.315 0.282,-0.3L0.418,-0.135L0.418,-0.128C0.387,-0.1 0.359,-0.086 0.324,-0.086C0.249,-0.086 0.184,-0.16 0.184,-0.254C0.184,-0.3 0.197,-0.333 0.23,-0.364Z" style="fill-rule:nonzero;"/>
                </g>
                <g transform="matrix(600,0,0,600,6286.75,7900.55)">
                    <path d="M0.078,-0.388L0.127,-0.388C0.156,-0.434 0.199,-0.457 0.254,-0.457C0.327,-0.457 0.347,-0.413 0.347,-0.38L0.347,-0.345C0.14,-0.316 0.04,-0.26 0.04,-0.142C0.04,-0.053 0.105,0.016 0.192,0.016C0.242,0.016 0.287,-0.006 0.334,-0.048L0.334,0.001L0.47,0.001C0.463,-0.031 0.462,-0.057 0.462,-0.08L0.462,-0.353C0.462,-0.48 0.397,-0.548 0.274,-0.548C0.214,-0.548 0.15,-0.531 0.078,-0.501L0.078,-0.388ZM0.346,-0.121C0.307,-0.095 0.276,-0.082 0.245,-0.082C0.198,-0.082 0.165,-0.113 0.165,-0.156C0.165,-0.216 0.226,-0.26 0.345,-0.276L0.355,-0.271C0.346,-0.245 0.346,-0.214 0.346,-0.192L0.346,-0.121Z" style="fill-rule:nonzero;"/>
                </g>
                <g transform="matrix(600,0,0,600,6595.15,7900.55)">
                    <path d="M0.361,-0.117L0.361,-0.048C0.361,0.028 0.322,0.067 0.247,0.067C0.185,0.067 0.144,0.051 0.122,0.014L0.065,0.014L0.065,0.137C0.128,0.157 0.192,0.167 0.254,0.167C0.424,0.167 0.486,0.091 0.486,-0.083L0.486,-0.54L0.361,-0.54L0.361,-0.483L0.35,-0.479C0.316,-0.519 0.277,-0.539 0.228,-0.539C0.118,-0.539 0.041,-0.448 0.041,-0.3C0.041,-0.147 0.115,-0.057 0.228,-0.057C0.278,-0.057 0.319,-0.077 0.351,-0.118L0.361,-0.117ZM0.361,-0.196C0.339,-0.168 0.312,-0.155 0.276,-0.155C0.208,-0.155 0.169,-0.208 0.169,-0.302C0.169,-0.395 0.21,-0.451 0.273,-0.451C0.306,-0.451 0.334,-0.437 0.361,-0.41L0.361,-0.196Z" style="fill-rule:nonzero;"/>
                </g>
                <g transform="matrix(600,0,0,600,6928.75,7900.55)">
                    <path d="M0.485,-0.251C0.486,-0.275 0.487,-0.296 0.487,-0.314C0.487,-0.471 0.407,-0.556 0.277,-0.556C0.128,-0.556 0.041,-0.455 0.041,-0.282C0.041,-0.091 0.132,0.016 0.3,0.016C0.369,0.016 0.432,0.001 0.485,-0.028L0.485,-0.139L0.438,-0.139C0.403,-0.101 0.368,-0.084 0.321,-0.084C0.236,-0.084 0.179,-0.142 0.168,-0.251L0.485,-0.251ZM0.274,-0.474C0.338,-0.474 0.366,-0.423 0.393,-0.321L0.381,-0.309C0.339,-0.322 0.303,-0.324 0.269,-0.324C0.235,-0.324 0.202,-0.319 0.168,-0.309L0.156,-0.321C0.182,-0.423 0.21,-0.474 0.274,-0.474Z" style="fill-rule:nonzero;"/>
                </g>
            </g>
        </g>
    </g>
</svg>
