<?xml version="1.0" encoding="UTF-8"?>
<svg width="430" height="110" viewBox="0 0 430 110" version="1.1" xmlns="http://www.w3.org/2000/svg" xmlns:xlink="http://www.w3.org/1999/xlink">
 <path d="M34.1,7.8 c5.6,0,9.65,1.13,12.15,3.4 c2.5,2.27,3.75,5.9,3.75,10.9 l0,16.2 c0,4.6,-0.95,7.95,-2.85,10.05 c-1.9,2.1,-4.95,3.15,-9.15,3.15 c-3.33,0,-6.43,-0.83,-9.3,-2.5 c-2.87,-1.67,-5.77,-4.33,-8.7,-8 l0,-29.4 c2.07,-1.27,4.22,-2.22,6.45,-2.85 c2.23,-0.63,4.78,-0.95,7.65,-0.95 Z M34.2,-1 c-2.27,0,-4.65,0.25,-7.15,0.75 c-2.5,0.5,-4.85,1.18,-7.05,2.05 l0,-21.8 l-10,0 l0,80 l10,0 l0,-10 l3,0 c1.67,3.4,4.08,6.08,7.25,8.05 c3.17,1.97,6.58,2.95,10.25,2.95 c6.0,0,10.75,-2.05,14.25,-6.15 c3.5,-4.1,5.25,-9.65,5.25,-16.65 l0,-16.3 c0,-7.07,-2.32,-12.65,-6.95,-16.75 c-4.63,-4.1,-10.92,-6.15,-18.85,-6.15 Z M34.2,-1" fill="rgb(0,0,0)" transform="matrix(1,0,0,-1,5,85)"/>
 <path d="M0,-20 l0,100" fill="none" stroke="rgb(0,0,0)" stroke-width="0.3" transform="matrix(1,0,0,-1,5,85)"/>
 <path d="M10,-20 l0,100" fill="none" stroke="rgb(127,127,127)" stroke-width="0.3" transform="matrix(1,0,0,-1,5,85)"/>
 <path d="M20,-20 l0,100" fill="none" stroke="rgb(127,127,127)" stroke-width="0.3" transform="matrix(1,0,0,-1,5,85)"/>
 <path d="M30,-20 l0,100" fill="none" stroke="rgb(127,127,127)" stroke-width="0.3" transform="matrix(1,0,0,-1,5,85)"/>
 <path d="M40,-20 l0,100" fill="none" stroke="rgb(127,127,127)" stroke-width="0.3" transform="matrix(1,0,0,-1,5,85)"/>
 <path d="M50,-20 l0,100" fill="none" stroke="rgb(127,127,127)" stroke-width="0.3" transform="matrix(1,0,0,-1,5,85)"/>
 <path d="M60,-20 l0,100" fill="none" stroke="rgb(127,127,127)" stroke-width="0.3" transform="matrix(1,0,0,-1,5,85)"/>
 <path d="M70,-20 l0,100" fill="none" stroke="rgb(127,127,127)" stroke-width="0.3" transform="matrix(1,0,0,-1,5,85)"/>
 <path d="M0,-20 l70,0" fill="none" stroke="rgb(0,0,0)" stroke-width="0.3" transform="matrix(1,0,0,-1,5,85)"/>
 <path d="M0,-10 l70,0" fill="none" stroke="rgb(127,127,127)" stroke-width="0.3" transform="matrix(1,0,0,-1,5,85)"/>
 <path d="M0,0 l70,0" fill="none" stroke="rgb(127,127,127)" stroke-width="0.3" transform="matrix(1,0,0,-1,5,85)"/>
 <path d="M0,10 l70,0" fill="none" stroke="rgb(127,127,127)" stroke-width="0.3" transform="matrix(1,0,0,-1,5,85)"/>
 <path d="M0,20 l70,0" fill="none" stroke="rgb(127,127,127)" stroke-width="0.3" transform="matrix(1,0,0,-1,5,85)"/>
 <path d="M0,30 l70,0" fill="none" stroke="rgb(127,127,127)" stroke-width="0.3" transform="matrix(1,0,0,-1,5,85)"/>
 <path d="M0,40 l70,0" fill="none" stroke="rgb(127,127,127)" stroke-width="0.3" transform="matrix(1,0,0,-1,5,85)"/>
 <path d="M0,50 l70,0" fill="none" stroke="rgb(127,127,127)" stroke-width="0.3" transform="matrix(1,0,0,-1,5,85)"/>
 <path d="M0,60 l70,0" fill="none" stroke="rgb(127,127,127)" stroke-width="0.3" transform="matrix(1,0,0,-1,5,85)"/>
 <path d="M0,70 l70,0" fill="none" stroke="rgb(127,127,127)" stroke-width="0.3" transform="matrix(1,0,0,-1,5,85)"/>
 <path d="M0,80 l70,0" fill="none" stroke="rgb(0,0,0)" stroke-width="0.3" transform="matrix(1,0,0,-1,5,85)"/>
 <path d="M10,0 l0,80 l10,0 l0,-30 l3,0 c1.47,3.4,3.77,6.08,6.9,8.05 c3.13,1.97,6.7,2.95,10.7,2.95 c6.0,0,10.73,-1.83,14.2,-5.5 c3.47,-3.67,5.2,-8.63,5.2,-14.9 l0,-40.6 l-10,0 l0,38.5 c0,4.2,-1.02,7.42,-3.05,9.65 c-2.03,2.23,-4.95,3.35,-8.75,3.35 c-3.0,0,-6.05,-0.9,-9.15,-2.7 c-3.1,-1.8,-6.12,-4.4,-9.05,-7.8 l0,-41 Z M10,0" fill="rgb(0,0,0)" transform="matrix(1,0,0,-1,75,85)"/>
 <path d="M0,-20 l0,100" fill="none" stroke="rgb(0,0,0)" stroke-width="0.3" transform="matrix(1,0,0,-1,75,85)"/>
 <path d="M10,-20 l0,100" fill="none" stroke="rgb(127,127,127)" stroke-width="0.3" transform="matrix(1,0,0,-1,75,85)"/>
 <path d="M20,-20 l0,100" fill="none" stroke="rgb(127,127,127)" stroke-width="0.3" transform="matrix(1,0,0,-1,75,85)"/>
 <path d="M30,-20 l0,100" fill="none" stroke="rgb(127,127,127)" stroke-width="0.3" transform="matrix(1,0,0,-1,75,85)"/>
 <path d="M40,-20 l0,100" fill="none" stroke="rgb(127,127,127)" stroke-width="0.3" transform="matrix(1,0,0,-1,75,85)"/>
 <path d="M50,-20 l0,100" fill="none" stroke="rgb(127,127,127)" stroke-width="0.3" transform="matrix(1,0,0,-1,75,85)"/>
 <path d="M60,-20 l0,100" fill="none" stroke="rgb(127,127,127)" stroke-width="0.3" transform="matrix(1,0,0,-1,75,85)"/>
 <path d="M70,-20 l0,100" fill="none" stroke="rgb(127,127,127)" stroke-width="0.3" transform="matrix(1,0,0,-1,75,85)"/>
 <path d="M0,-20 l70,0" fill="none" stroke="rgb(0,0,0)" stroke-width="0.3" transform="matrix(1,0,0,-1,75,85)"/>
 <path d="M0,-10 l70,0" fill="none" stroke="rgb(127,127,127)" stroke-width="0.3" transform="matrix(1,0,0,-1,75,85)"/>
 <path d="M0,0 l70,0" fill="none" stroke="rgb(127,127,127)" stroke-width="0.3" transform="matrix(1,0,0,-1,75,85)"/>
 <path d="M0,10 l70,0" fill="none" stroke="rgb(127,127,127)" stroke-width="0.3" transform="matrix(1,0,0,-1,75,85)"/>
 <path d="M0,20 l70,0" fill="none" stroke="rgb(127,127,127)" stroke-width="0.3" transform="matrix(1,0,0,-1,75,85)"/>
 <path d="M0,30 l70,0" fill="none" stroke="rgb(127,127,127)" stroke-width="0.3" transform="matrix(1,0,0,-1,75,85)"/>
 <path d="M0,40 l70,0" fill="none" stroke="rgb(127,127,127)" stroke-width="0.3" transform="matrix(1,0,0,-1,75,85)"/>
 <path d="M0,50 l70,0" fill="none" stroke="rgb(127,127,127)" stroke-width="0.3" transform="matrix(1,0,0,-1,75,85)"/>
 <path d="M0,60 l70,0" fill="none" stroke="rgb(127,127,127)" stroke-width="0.3" transform="matrix(1,0,0,-1,75,85)"/>
 <path d="M0,70 l70,0" fill="none" stroke="rgb(127,127,127)" stroke-width="0.3" transform="matrix(1,0,0,-1,75,85)"/>
 <path d="M0,80 l70,0" fill="none" stroke="rgb(0,0,0)" stroke-width="0.3" transform="matrix(1,0,0,-1,75,85)"/>
 <path d="M35,-1 c-8.07,0,-14.25,1.95,-18.55,5.85 c-4.3,3.9,-6.45,9.52,-6.45,16.85 l0,16.2 c0,7.4,2.17,13.1,6.5,17.1 c4.33,4.0,10.53,6,18.6,6 c8.0,0,14.15,-2.0,18.45,-6 c4.3,-4.0,6.45,-9.7,6.45,-17.1 l0,-16.2 c0,-7.33,-2.15,-12.95,-6.45,-16.85 c-4.3,-3.9,-10.48,-5.85,-18.55,-5.85 Z M35,8 c5.07,0,8.83,1.13,11.3,3.4 c2.47,2.27,3.7,5.7,3.7,10.3 l0,16.2 c0,4.8,-1.23,8.35,-3.7,10.65 c-2.47,2.3,-6.23,3.45,-11.3,3.45 c-5.07,0,-8.83,-1.15,-11.3,-3.45 c-2.47,-2.3,-3.7,-5.85,-3.7,-10.65 l0,-16.2 c0,-4.6,1.23,-8.03,3.7,-10.3 c2.47,-2.27,6.23,-3.4,11.3,-3.4 Z M35,8" fill="rgb(0,0,0)" transform="matrix(1,0,0,-1,145,85)"/>
 <path d="M0,-20 l0,100" fill="none" stroke="rgb(0,0,0)" stroke-width="0.3" transform="matrix(1,0,0,-1,145,85)"/>
 <path d="M10,-20 l0,100" fill="none" stroke="rgb(127,127,127)" stroke-width="0.3" transform="matrix(1,0,0,-1,145,85)"/>
 <path d="M20,-20 l0,100" fill="none" stroke="rgb(127,127,127)" stroke-width="0.3" transform="matrix(1,0,0,-1,145,85)"/>
 <path d="M30,-20 l0,100" fill="none" stroke="rgb(127,127,127)" stroke-width="0.3" transform="matrix(1,0,0,-1,145,85)"/>
 <path d="M40,-20 l0,100" fill="none" stroke="rgb(127,127,127)" stroke-width="0.3" transform="matrix(1,0,0,-1,145,85)"/>
 <path d="M50,-20 l0,100" fill="none" stroke="rgb(127,127,127)" stroke-width="0.3" transform="matrix(1,0,0,-1,145,85)"/>
 <path d="M60,-20 l0,100" fill="none" stroke="rgb(127,127,127)" stroke-width="0.3" transform="matrix(1,0,0,-1,145,85)"/>
 <path d="M70,-20 l0,100" fill="none" stroke="rgb(127,127,127)" stroke-width="0.3" transform="matrix(1,0,0,-1,145,85)"/>
 <path d="M0,-20 l70,0" fill="none" stroke="rgb(0,0,0)" stroke-width="0.3" transform="matrix(1,0,0,-1,145,85)"/>
 <path d="M0,-10 l70,0" fill="none" stroke="rgb(127,127,127)" stroke-width="0.3" transform="matrix(1,0,0,-1,145,85)"/>
 <path d="M0,0 l70,0" fill="none" stroke="rgb(127,127,127)" stroke-width="0.3" transform="matrix(1,0,0,-1,145,85)"/>
 <path d="M0,10 l70,0" fill="none" stroke="rgb(127,127,127)" stroke-width="0.3" transform="matrix(1,0,0,-1,145,85)"/>
 <path d="M0,20 l70,0" fill="none" stroke="rgb(127,127,127)" stroke-width="0.3" transform="matrix(1,0,0,-1,145,85)"/>
 <path d="M0,30 l70,0" fill="none" stroke="rgb(127,127,127)" stroke-width="0.3" transform="matrix(1,0,0,-1,145,85)"/>
 <path d="M0,40 l70,0" fill="none" stroke="rgb(127,127,127)" stroke-width="0.3" transform="matrix(1,0,0,-1,145,85)"/>
 <path d="M0,50 l70,0" fill="none" stroke="rgb(127,127,127)" stroke-width="0.3" transform="matrix(1,0,0,-1,145,85)"/>
 <path d="M0,60 l70,0" fill="none" stroke="rgb(127,127,127)" stroke-width="0.3" transform="matrix(1,0,0,-1,145,85)"/>
 <path d="M0,70 l70,0" fill="none" stroke="rgb(127,127,127)" stroke-width="0.3" transform="matrix(1,0,0,-1,145,85)"/>
 <path d="M0,80 l70,0" fill="none" stroke="rgb(0,0,0)" stroke-width="0.3" transform="matrix(1,0,0,-1,145,85)"/>
 <path d="M10,0 l0,60 l10,0 l0,-10 l3,0 c1.47,3.4,3.77,6.08,6.9,8.05 c3.13,1.97,6.7,2.95,10.7,2.95 c6.0,0,10.73,-1.83,14.2,-5.5 c3.47,-3.67,5.2,-8.67,5.2,-15 l0,-40.5 l-10,0 l0,38.5 c0,4.2,-1.02,7.42,-3.05,9.65 c-2.03,2.23,-4.95,3.35,-8.75,3.35 c-3.0,0,-6.05,-0.9,-9.15,-2.7 c-3.1,-1.8,-6.12,-4.4,-9.05,-7.8 l0,-41 Z M10,0" fill="rgb(0,0,0)" transform="matrix(1,0,0,-1,215,85)"/>
 <path d="M0,-20 l0,100" fill="none" stroke="rgb(0,0,0)" stroke-width="0.3" transform="matrix(1,0,0,-1,215,85)"/>
 <path d="M10,-20 l0,100" fill="none" stroke="rgb(127,127,127)" stroke-width="0.3" transform="matrix(1,0,0,-1,215,85)"/>
 <path d="M20,-20 l0,100" fill="none" stroke="rgb(127,127,127)" stroke-width="0.3" transform="matrix(1,0,0,-1,215,85)"/>
 <path d="M30,-20 l0,100" fill="none" stroke="rgb(127,127,127)" stroke-width="0.3" transform="matrix(1,0,0,-1,215,85)"/>
 <path d="M40,-20 l0,100" fill="none" stroke="rgb(127,127,127)" stroke-width="0.3" transform="matrix(1,0,0,-1,215,85)"/>
 <path d="M50,-20 l0,100" fill="none" stroke="rgb(127,127,127)" stroke-width="0.3" transform="matrix(1,0,0,-1,215,85)"/>
 <path d="M60,-20 l0,100" fill="none" stroke="rgb(127,127,127)" stroke-width="0.3" transform="matrix(1,0,0,-1,215,85)"/>
 <path d="M70,-20 l0,100" fill="none" stroke="rgb(127,127,127)" stroke-width="0.3" transform="matrix(1,0,0,-1,215,85)"/>
 <path d="M0,-20 l70,0" fill="none" stroke="rgb(0,0,0)" stroke-width="0.3" transform="matrix(1,0,0,-1,215,85)"/>
 <path d="M0,-10 l70,0" fill="none" stroke="rgb(127,127,127)" stroke-width="0.3" transform="matrix(1,0,0,-1,215,85)"/>
 <path d="M0,0 l70,0" fill="none" stroke="rgb(127,127,127)" stroke-width="0.3" transform="matrix(1,0,0,-1,215,85)"/>
 <path d="M0,10 l70,0" fill="none" stroke="rgb(127,127,127)" stroke-width="0.3" transform="matrix(1,0,0,-1,215,85)"/>
 <path d="M0,20 l70,0" fill="none" stroke="rgb(127,127,127)" stroke-width="0.3" transform="matrix(1,0,0,-1,215,85)"/>
 <path d="M0,30 l70,0" fill="none" stroke="rgb(127,127,127)" stroke-width="0.3" transform="matrix(1,0,0,-1,215,85)"/>
 <path d="M0,40 l70,0" fill="none" stroke="rgb(127,127,127)" stroke-width="0.3" transform="matrix(1,0,0,-1,215,85)"/>
 <path d="M0,50 l70,0" fill="none" stroke="rgb(127,127,127)" stroke-width="0.3" transform="matrix(1,0,0,-1,215,85)"/>
 <path d="M0,60 l70,0" fill="none" stroke="rgb(127,127,127)" stroke-width="0.3" transform="matrix(1,0,0,-1,215,85)"/>
 <path d="M0,70 l70,0" fill="none" stroke="rgb(127,127,127)" stroke-width="0.3" transform="matrix(1,0,0,-1,215,85)"/>
 <path d="M0,80 l70,0" fill="none" stroke="rgb(0,0,0)" stroke-width="0.3" transform="matrix(1,0,0,-1,215,85)"/>
 <path d="M60.2,13.2 c-1.8,-5.0,-4.53,-8.62,-8.2,-10.85 c-3.67,-2.23,-9.3,-3.35,-16.9,-3.35 c-7.93,0,-14.1,1.92,-18.5,5.75 c-4.4,3.83,-6.6,9.52,-6.6,17.05 l0,16.1 c0,7.73,2.32,13.52,6.95,17.35 c4.63,3.83,10.68,5.75,18.15,5.75 c7.53,0,13.57,-1.95,18.1,-5.85 c4.53,-3.9,6.8,-9.88,6.8,-17.95 l0,-9.2 l-40,0 l0,-6.3 c0,-5.0,1.25,-8.62,3.75,-10.85 c2.5,-2.23,6.25,-3.35,11.25,-3.35 c4.8,0,8.3,0.67,10.5,2 c2.2,1.33,3.87,3.5,5,6.5 Z M20,37.9 l0,-2.4 l30,0 l0,1.5 c0,5.4,-1.25,9.33,-3.75,11.8 c-2.5,2.47,-6.25,3.7,-11.25,3.7 c-5.0,0,-8.75,-1.18,-11.25,-3.55 c-2.5,-2.37,-3.75,-6.05,-3.75,-11.05 Z M20,37.9" fill="rgb(0,0,0)" transform="matrix(1,0,0,-1,285,85)"/>
 <path d="M0,-20 l0,100" fill="none" stroke="rgb(0,0,0)" stroke-width="0.3" transform="matrix(1,0,0,-1,285,85)"/>
 <path d="M10,-20 l0,100" fill="none" stroke="rgb(127,127,127)" stroke-width="0.3" transform="matrix(1,0,0,-1,285,85)"/>
 <path d="M20,-20 l0,100" fill="none" stroke="rgb(127,127,127)" stroke-width="0.3" transform="matrix(1,0,0,-1,285,85)"/>
 <path d="M30,-20 l0,100" fill="none" stroke="rgb(127,127,127)" stroke-width="0.3" transform="matrix(1,0,0,-1,285,85)"/>
 <path d="M40,-20 l0,100" fill="none" stroke="rgb(127,127,127)" stroke-width="0.3" transform="matrix(1,0,0,-1,285,85)"/>
 <path d="M50,-20 l0,100" fill="none" stroke="rgb(127,127,127)" stroke-width="0.3" transform="matrix(1,0,0,-1,285,85)"/>
 <path d="M60,-20 l0,100" fill="none" stroke="rgb(127,127,127)" stroke-width="0.3" transform="matrix(1,0,0,-1,285,85)"/>
 <path d="M70,-20 l0,100" fill="none" stroke="rgb(127,127,127)" stroke-width="0.3" transform="matrix(1,0,0,-1,285,85)"/>
 <path d="M0,-20 l70,0" fill="none" stroke="rgb(0,0,0)" stroke-width="0.3" transform="matrix(1,0,0,-1,285,85)"/>
 <path d="M0,-10 l70,0" fill="none" stroke="rgb(127,127,127)" stroke-width="0.3" transform="matrix(1,0,0,-1,285,85)"/>
 <path d="M0,0 l70,0" fill="none" stroke="rgb(127,127,127)" stroke-width="0.3" transform="matrix(1,0,0,-1,285,85)"/>
 <path d="M0,10 l70,0" fill="none" stroke="rgb(127,127,127)" stroke-width="0.3" transform="matrix(1,0,0,-1,285,85)"/>
 <path d="M0,20 l70,0" fill="none" stroke="rgb(127,127,127)" stroke-width="0.3" transform="matrix(1,0,0,-1,285,85)"/>
 <path d="M0,30 l70,0" fill="none" stroke="rgb(127,127,127)" stroke-width="0.3" transform="matrix(1,0,0,-1,285,85)"/>
 <path d="M0,40 l70,0" fill="none" stroke="rgb(127,127,127)" stroke-width="0.3" transform="matrix(1,0,0,-1,285,85)"/>
 <path d="M0,50 l70,0" fill="none" stroke="rgb(127,127,127)" stroke-width="0.3" transform="matrix(1,0,0,-1,285,85)"/>
 <path d="M0,60 l70,0" fill="none" stroke="rgb(127,127,127)" stroke-width="0.3" transform="matrix(1,0,0,-1,285,85)"/>
 <path d="M0,70 l70,0" fill="none" stroke="rgb(127,127,127)" stroke-width="0.3" transform="matrix(1,0,0,-1,285,85)"/>
 <path d="M0,80 l70,0" fill="none" stroke="rgb(0,0,0)" stroke-width="0.3" transform="matrix(1,0,0,-1,285,85)"/>
 <path d="M35.8,-1 c-5.07,0,-9.97,0.75,-14.7,2.25 c-4.73,1.5,-9.1,3.82,-13.1,6.95 l4.5,7.9 c3.27,-2.67,6.92,-4.68,10.95,-6.05 c4.03,-1.37,8.15,-2.05,12.35,-2.05 c3.47,0,6.78,0.53,9.95,1.6 c3.17,1.07,4.75,3.33,4.75,6.8 c0,2.87,-1.3,4.9,-3.9,6.1 c-2.6,1.2,-7.37,2.23,-14.3,3.1 c-7.33,0.87,-12.88,2.58,-16.65,5.15 c-3.77,2.57,-5.65,6.62,-5.65,12.15 c0,6.0,2.27,10.52,6.8,13.55 c4.53,3.03,9.8,4.55,15.8,4.55 c4.73,0,9.28,-0.8,13.65,-2.4 c4.37,-1.6,8.42,-3.87,12.15,-6.8 l-4.5,-7.9 c-3.07,2.47,-6.4,4.43,-10,5.9 c-3.6,1.47,-7.37,2.2,-11.3,2.2 c-3.2,0,-6.12,-0.6,-8.75,-1.8 c-2.63,-1.2,-3.95,-3.4,-3.95,-6.6 c0,-2.73,1.22,-4.72,3.65,-5.95 c2.43,-1.23,7.12,-2.28,14.05,-3.15 c7.6,-0.87,13.3,-2.72,17.1,-5.55 c3.8,-2.83,5.7,-6.78,5.7,-11.85 c0,-6.27,-2.53,-10.85,-7.6,-13.75 c-5.07,-2.9,-10.73,-4.35,-17,-4.35 Z M35.8,-1" fill="rgb(0,0,0)" transform="matrix(1,0,0,-1,355,85)"/>
 <path d="M0,-20 l0,100" fill="none" stroke="rgb(0,0,0)" stroke-width="0.3" transform="matrix(1,0,0,-1,355,85)"/>
 <path d="M10,-20 l0,100" fill="none" stroke="rgb(127,127,127)" stroke-width="0.3" transform="matrix(1,0,0,-1,355,85)"/>
 <path d="M20,-20 l0,100" fill="none" stroke="rgb(127,127,127)" stroke-width="0.3" transform="matrix(1,0,0,-1,355,85)"/>
 <path d="M30,-20 l0,100" fill="none" stroke="rgb(127,127,127)" stroke-width="0.3" transform="matrix(1,0,0,-1,355,85)"/>
 <path d="M40,-20 l0,100" fill="none" stroke="rgb(127,127,127)" stroke-width="0.3" transform="matrix(1,0,0,-1,355,85)"/>
 <path d="M50,-20 l0,100" fill="none" stroke="rgb(127,127,127)" stroke-width="0.3" transform="matrix(1,0,0,-1,355,85)"/>
 <path d="M60,-20 l0,100" fill="none" stroke="rgb(127,127,127)" stroke-width="0.3" transform="matrix(1,0,0,-1,355,85)"/>
 <path d="M70,-20 l0,100" fill="none" stroke="rgb(0,0,0)" stroke-width="0.3" transform="matrix(1,0,0,-1,355,85)"/>
 <path d="M0,-20 l70,0" fill="none" stroke="rgb(0,0,0)" stroke-width="0.3" transform="matrix(1,0,0,-1,355,85)"/>
 <path d="M0,-10 l70,0" fill="none" stroke="rgb(127,127,127)" stroke-width="0.3" transform="matrix(1,0,0,-1,355,85)"/>
 <path d="M0,0 l70,0" fill="none" stroke="rgb(127,127,127)" stroke-width="0.3" transform="matrix(1,0,0,-1,355,85)"/>
 <path d="M0,10 l70,0" fill="none" stroke="rgb(127,127,127)" stroke-width="0.3" transform="matrix(1,0,0,-1,355,85)"/>
 <path d="M0,20 l70,0" fill="none" stroke="rgb(127,127,127)" stroke-width="0.3" transform="matrix(1,0,0,-1,355,85)"/>
 <path d="M0,30 l70,0" fill="none" stroke="rgb(127,127,127)" stroke-width="0.3" transform="matrix(1,0,0,-1,355,85)"/>
 <path d="M0,40 l70,0" fill="none" stroke="rgb(127,127,127)" stroke-width="0.3" transform="matrix(1,0,0,-1,355,85)"/>
 <path d="M0,50 l70,0" fill="none" stroke="rgb(127,127,127)" stroke-width="0.3" transform="matrix(1,0,0,-1,355,85)"/>
 <path d="M0,60 l70,0" fill="none" stroke="rgb(127,127,127)" stroke-width="0.3" transform="matrix(1,0,0,-1,355,85)"/>
 <path d="M0,70 l70,0" fill="none" stroke="rgb(127,127,127)" stroke-width="0.3" transform="matrix(1,0,0,-1,355,85)"/>
 <path d="M0,80 l70,0" fill="none" stroke="rgb(0,0,0)" stroke-width="0.3" transform="matrix(1,0,0,-1,355,85)"/>
</svg>