<?xml version="1.0" encoding="UTF-8" standalone="no"?><!DOCTYPE svg PUBLIC "-//W3C//DTD SVG 1.1//EN" "http://www.w3.org/Graphics/SVG/1.1/DTD/svg11.dtd"><svg viewBox="0 0 275 36" version="1.1" xmlns="http://www.w3.org/2000/svg" xmlns:xlink="http://www.w3.org/1999/xlink" xml:space="preserve" xmlns:serif="http://www.serif.com/" style="fill-rule:evenodd;clip-rule:evenodd;stroke-linejoin:round;stroke-miterlimit:2;"><rect id="アートボード1" x="0" y="0" width="274.48" height="35.8" style="fill:none;"/><g id="アートボード11" serif:id="アートボード1"><path d="M8.48,28l6.72,-14.08c1.92,-4.04 2.4,-6.04 2.96,-8.76l2.28,0c-0.6,2.72 -1.08,4.92 -0.88,8.76l0.76,14.08l6.96,0l13.48,-28l-6.64,0l-4.84,11.08c-1.76,4.04 -2.48,7.44 -3.24,11.32l-2.28,0c0.72,-3 1.12,-5.76 1,-8.88l-0.56,-13.52l-8,0l-6.44,13.52c-1.48,3.12 -2.08,5.88 -2.68,8.88l-2.28,0c0.84,-3.88 1.52,-7.2 1.48,-11.32l-0.08,-11.08l-6.2,0l1.52,28l6.96,0Z" style="fill-rule:nonzero;"/><path d="M43.88,28l2,-9.36c0.64,-2.92 1.88,-6.56 5.08,-6.56c2.4,0 3.08,1.8 2.56,4.16l-2.52,11.76l5.64,0l2.6,-12.08c1,-4.68 -0.96,-8.52 -5.56,-8.52c-3.28,0 -5.28,2.4 -6.52,5l-2.68,0c0.92,-1.04 3.64,-4.24 4.56,-8.48l0.84,-3.92l-5.64,0l-6,28l5.64,0Z" style="fill-rule:nonzero;"/><path d="M74.84,15.32c-1.4,2.64 -1.8,4.28 -2.52,7.8l-2.12,0c0.48,-2.68 0.8,-4.8 0.2,-7.44l-1.68,-7.68l-5.96,0l5.32,19.88l-0.56,1.08c-0.92,1.72 -1.68,2.32 -3.08,2.32l-4.92,0l-1,4.52l6.04,0c3.88,0 5.36,-1.24 7.28,-4.64l13.12,-23.16l-6.24,0l-3.88,7.32Z" style="fill-rule:nonzero;"/><path d="M98,28l0.96,-4.52l-4.84,0c-1.24,0 -1.64,-0.56 -1.4,-1.76l2.04,-9.4l5.12,0l0.92,-4.32l-5.12,0l1.36,-6.28l-5.64,0l-1.36,6.28l-4.16,0l-0.92,4.32l4.2,0l-2.04,9.28c-0.84,3.88 1.52,6.4 5.12,6.4l5.76,0Z" style="fill-rule:nonzero;"/><path d="M110.96,28.64c5.36,0 8.24,-3.16 9.6,-5.68l-4.72,-2.12c-1,1.88 -2.8,3.48 -4.92,3.48c-3.16,0 -4.32,-1.88 -3.88,-4.96l14.04,0c1.92,-6.6 -1.16,-11.96 -8.24,-11.96c-6.6,0 -11.16,6.36 -11.16,12.64c0,5.48 3.08,8.6 9.28,8.6Zm-3.08,-13.28c0.84,-2.52 2.76,-3.88 5.04,-3.88c2.36,0 3.64,1.52 3.44,3.88l-8.48,0Z" style="fill-rule:nonzero;"/><path d="M139.72,28l5.96,-28l-6,0l-5.96,28l6,0Z" style="fill-rule:nonzero;"/><path d="M151.32,28l2,-9.36c0.64,-2.92 1.88,-6.56 5.08,-6.56c2.2,0 3.16,1.44 2.56,4.16l-2.52,11.76l5.64,0l2.6,-12.08c1.16,-5.36 -1.48,-8.52 -5.56,-8.52c-3.28,0 -5.44,2.4 -6.52,5l-2.6,0c1,-1.08 2,-2.6 2.4,-4.4l-4.44,0l-4.28,20l5.64,0Z" style="fill-rule:nonzero;"/><path d="M187.28,8l-11.28,9.44l-1.36,-1.72c1.64,-1.28 3.72,-2.92 4.6,-7.16l1.76,-8.56l-5.64,0l-5.92,28l5.64,0l1.08,-4.96l4.12,-3.32l5.12,8.28l6.56,0l-7.4,-11.76l10.16,-8.24l-7.44,0Z" style="fill-rule:nonzero;"/><path d="M208.12,28l0.96,-4.52l-4.84,0c-1.24,0 -1.64,-0.56 -1.4,-1.76l2.04,-9.4l5.12,0l0.92,-4.32l-5.12,0l1.36,-6.28l-5.64,0l-1.36,6.28l-4.16,0l-0.92,4.32l4.2,0l-2.04,9.28c-0.84,3.88 1.52,6.4 5.12,6.4l5.76,0Z" style="fill-rule:nonzero;"/><path d="M217.12,28l1.56,-7.32c0.88,-4.16 2.56,-7.12 7.12,-7.12c0.72,0 1.52,0.04 2.4,0.16l1.28,-6.08c-0.64,-0.08 -1.24,-0.12 -1.76,-0.12c-3.64,0 -5.4,2.16 -7.04,6.36l-2.52,0c1,-1.52 2.36,-3.8 2.84,-5.88l-5.24,0l-4.28,20l5.64,0Z" style="fill-rule:nonzero;"/><path d="M234.52,28.64c3.84,0 5.72,-2 6.84,-4.6l2,0c-0.52,2.76 0.08,3.96 3.6,3.96l1.8,0l0.92,-4.32l-2.16,0c-0.48,0 -0.76,-0.28 -0.64,-0.88l1.44,-6.92c1.16,-5.6 -1.92,-8.48 -8.16,-8.48c-6.24,0 -9.2,3.12 -9.96,5.68l5.16,1.48c0.68,-1.52 2.12,-3.08 4.8,-3.08c2.24,0 3.36,1.08 3.04,2.64l-0.2,0.96c-8.12,0.28 -14.2,2.76 -14.2,8.32c0,3.68 2.96,5.24 5.72,5.24Zm2.56,-4.12c-1.48,0 -2.4,-0.76 -2.4,-2.08c0,-2.56 3.2,-3.56 7.56,-3.76l-0.24,1.12c-0.6,2.88 -2.88,4.72 -4.92,4.72Z" style="fill-rule:nonzero;"/><path d="M255.56,35.8l1.24,-5.72c0.52,-2.48 0.48,-4.44 -0.32,-6.36l2.32,-0c0.24,2.16 1.72,4.92 5.56,4.92c5.12,-0 10.12,-4.96 10.12,-12.56c0,-4.88 -2.92,-8.68 -7.44,-8.68c-2.56,-0 -4.6,1.4 -6.44,4.52l-2.76,-0c0.92,-0.84 2.16,-2.36 2.92,-3.92l-4.92,-0l-5.92,27.8l5.64,0Zm7.64,-11.48c-2.72,0 -4.08,-1.8 -4.08,-4.96c0,-3.56 2.12,-7.68 5.52,-7.68c2.76,0 4.04,1.68 4.04,4.84c0,3.6 -2.08,7.8 -5.48,7.8Z" style="fill-rule:nonzero;"/></g></svg>