<?xml version="1.0" encoding="UTF-8" standalone="no"?><!DOCTYPE svg PUBLIC "-//W3C//DTD SVG 1.1//EN" "http://www.w3.org/Graphics/SVG/1.1/DTD/svg11.dtd">

<svg viewBox="0 0 842 365" version="1.1" xmlns="http://www.w3.org/2000/svg" xmlns:xlink="http://www.w3.org/1999/xlink" xml:space="preserve" xmlns:serif="http://www.serif.com/" style="fill-rule:evenodd;clip-rule:evenodd;stroke-linejoin:round;stroke-miterlimit:2;">
	<!-- <rect id="アートボード1" x="0" y="-0" width="841.89" height="364.463" style="fill:none;"/> -->

<!-- <clipPath id="_clip1">
	<rect id="アートボード11" serif:id="アートボード1" x="0" y="-0" width="841.89" height="364.463"/>
</clipPath> -->
<g clip-path="url(#_clip1)">
	<path d="M250.261,364.703l65.818,-0l7.841,-25.835l59.268,0l7.847,25.835l68.278,-0l-53.383,-175.748l-102.285,-0l-53.384,175.748Zm-61.52,-103.649c-0.314,1.012 -1.382,2.727 -2.255,2.814c-0.049,-0.047 -0.082,-0.022 -0.049,0.029l-0.048,0.064c-0.086,0.053 -0.211,0.024 -0.452,0.109c-0.14,0.049 -0.275,0.124 -0.375,0.167l-0.062,0.024l-0.004,0.061c0.24,0.086 0.674,0.399 0.674,0.945c0,0.308 -0.364,0.524 -0.674,0.578c0.064,0.442 -0.038,0.678 -0.441,1.128c-0.12,0.133 -0.546,0.284 -0.712,0.517c-0.066,0.092 -0.208,0.152 -0.375,0.152c-0.133,0 -0.498,0.008 -0.573,-0.023c-0.454,-0.187 -0.547,-0.498 -0.636,-0.561c-0.564,-0.401 -0.708,-0.917 -0.487,-1.422c-0.399,-0.083 -0.555,-0.221 -0.555,-0.482c0,-0.064 0.168,-0.576 0.236,-0.659c0.271,-0.326 0.443,-0.404 0.622,-0.27l0.047,-0.02l-0.258,-0.591l-0.491,-0.36c-0.11,-0.077 -0.401,-0.65 -0.575,-1.167c-0.126,-0.376 -0.27,-0.948 -0.297,-1.033c-0.687,-21.104 -10.358,-55.389 -15.537,-72.099l-56.846,-0c-5.197,16.752 -14.885,51.079 -15.59,72.224c-0.314,1.013 -1.347,2.602 -2.219,2.689c-0.05,-0.047 -0.083,-0.022 -0.05,0.029l-0.047,0.064c-0.087,0.053 -0.212,0.024 -0.452,0.109c-0.14,0.049 -0.276,0.124 -0.376,0.167l-0.061,0.024l-0.004,0.061c0.24,0.086 0.674,0.399 0.674,0.945c-0,0.308 -0.365,0.524 -0.674,0.578c0.063,0.442 -0.039,0.678 -0.442,1.128c-0.12,0.133 -0.545,0.284 -0.712,0.517c-0.065,0.092 -0.208,0.152 -0.375,0.152c-0.133,0 -0.497,0.008 -0.572,-0.023c-0.454,-0.187 -0.547,-0.498 -0.636,-0.561c-0.565,-0.401 -0.708,-0.917 -0.488,-1.422c-0.399,-0.083 -0.554,-0.221 -0.554,-0.482c-0,-0.064 0.167,-0.576 0.236,-0.659c0.27,-0.326 0.443,-0.404 0.621,-0.27l0.048,-0.02l-0.258,-0.591l-0.491,-0.36c-0.11,-0.077 -0.402,-0.65 -0.575,-1.167c-0.127,-0.376 -0.245,-0.871 -0.271,-0.957c-0.695,-21.129 -10.374,-55.44 -15.561,-72.175l-69.789,-0l54.563,175.748l61.668,-0c5.231,-16.843 14.954,-51.261 15.693,-72.498c0.331,-1.065 1.373,-2.651 2.246,-2.739c0.049,0.048 0.082,0.022 0.049,-0.029l0.048,-0.063c0.086,-0.054 0.211,-0.024 0.452,-0.109c0.14,-0.05 0.275,-0.124 0.375,-0.168l0.062,-0.024l0.004,-0.061c-0.24,-0.085 -0.674,-0.399 -0.674,-0.945c-0,-0.307 0.364,-0.523 0.674,-0.578c-0.064,-0.441 0.038,-0.677 0.441,-1.127c0.12,-0.134 0.546,-0.284 0.712,-0.518c0.066,-0.092 0.208,-0.152 0.375,-0.152c0.133,0 0.498,-0.008 0.573,0.023c0.454,0.188 0.547,0.498 0.636,0.561c0.564,0.401 0.708,0.918 0.487,1.422c0.399,0.084 0.555,0.221 0.555,0.483c-0,0.064 -0.168,0.576 -0.236,0.658c-0.271,0.327 -0.443,0.405 -0.622,0.27l-0.048,0.02l0.259,0.591l0.491,0.361c0.11,0.076 0.401,0.649 0.575,1.166c0.126,0.376 0.285,1.031 0.312,1.117c0.722,21.184 10.429,55.549 15.643,72.339l61.669,-0l54.562,-175.748l-67.251,-0c-5.184,16.71 -14.86,50.995 -15.552,72.099Zm427.571,103.409l111.761,-0c37.235,-0 60.072,-23.086 60.072,-52.873c0,-12.908 -4.044,-26.727 -16.631,-39.966c-6.846,-7.199 -20.144,-15.367 -31.533,-19.975c-0.738,-0.776 -1.226,-1.286 -1.549,-1.515c-0.444,-0.314 -0.776,-0.755 -0.818,-0.881l-0.203,-0.565l-0.49,-0.415l-0.033,0.039c0.077,0.206 -0.047,0.345 -0.437,0.501c-0.099,0.04 -0.636,0.046 -0.697,0.027c-0.25,-0.077 -0.337,-0.262 -0.302,-0.66c-0.546,0.058 -0.998,-0.228 -1.219,-0.874c-0.035,-0.102 -0.305,-0.28 -0.353,-0.759c-0.008,-0.08 0.104,-0.418 0.143,-0.542c0.048,-0.156 0.146,-0.272 0.252,-0.306c0.272,-0.087 0.538,-0.441 0.7,-0.514c0.546,-0.244 0.801,-0.27 1.205,-0.081c0.141,-0.273 0.452,-0.55 0.746,-0.46c0.522,0.161 0.696,0.659 0.709,0.908l0.06,0.014l0.041,-0.05c0.07,-0.081 0.18,-0.186 0.268,-0.302c0.15,-0.2 0.158,-0.326 0.234,-0.391l0.074,-0.026c0.04,0.047 0.073,0.023 0.042,-0.037c0.335,-0.79 2.15,-1.303 3.316,-1.303c8.333,2.637 27.393,4.834 38.181,4.834l62.039,-0l-0,-59.576l-108.108,-0c-35.993,-0 -60.072,23.83 -60.072,52.625c0,13.405 4.344,27.666 16.88,41.455c5.902,6.492 21.664,16.552 29.343,20.588c0.628,0.503 2.018,1.66 1.955,2.515c-0.056,0.04 -0.037,0.076 0.019,0.053l0.055,0.057c0.038,0.093 -0.013,0.208 0.03,0.454c0.024,0.144 0.075,0.287 0.1,0.391l0.013,0.064l0.06,0.014c0.125,-0.216 0.508,-0.579 1.046,-0.483c0.303,0.054 0.453,0.443 0.453,0.75c0.446,0.017 0.661,0.156 1.035,0.623c0.111,0.139 0.186,0.575 0.387,0.776c0.08,0.079 0.114,0.227 0.085,0.388c-0.023,0.128 -0.077,0.48 -0.12,0.548c-0.263,0.404 -0.584,0.439 -0.662,0.513c-0.491,0.474 -1.024,0.522 -1.483,0.221c-0.151,0.37 -0.313,0.495 -0.57,0.449c-0.063,-0.011 -0.539,-0.262 -0.608,-0.342c-0.275,-0.318 -0.322,-0.498 -0.159,-0.646l-0.012,-0.05l-0.626,0.145l-0.439,0.41c-0.094,0.093 -0.708,0.273 -1.247,0.35c-0.392,0.055 -0.656,0.016 -0.885,0.016c-7.119,-2.958 -21.823,-5.712 -29.064,-5.712l-59.05,0c-6.805,0 -15.352,0.267 -32.104,0.779c-1.058,0 -2.874,-0.494 -3.208,-1.283c0.031,-0.061 -0.003,-0.084 -0.042,-0.038l-0.075,-0.026c-0.076,-0.065 -0.084,-0.191 -0.234,-0.39c-0.087,-0.117 -0.198,-0.222 -0.268,-0.302l-0.04,-0.051l-0.06,0.014c-0.013,0.25 -0.188,0.748 -0.709,0.908c-0.295,0.091 -0.606,-0.186 -0.747,-0.46c-0.404,0.189 -0.659,0.164 -1.204,-0.081c-0.163,-0.073 -0.429,-0.426 -0.7,-0.513c-0.107,-0.034 -0.205,-0.15 -0.253,-0.306c-0.038,-0.124 -0.151,-0.463 -0.143,-0.542c0.049,-0.48 0.319,-0.658 0.354,-0.76c0.22,-0.646 0.673,-0.932 1.219,-0.874c-0.035,-0.398 0.051,-0.583 0.301,-0.66c0.061,-0.019 0.599,-0.013 0.698,0.027c0.389,0.157 0.514,0.295 0.436,0.502l0.033,0.038l0.491,-0.415l0.203,-0.565c0.042,-0.125 0.505,-0.566 0.95,-0.881c0.323,-0.228 0.666,-0.349 0.74,-0.399c40.69,-4.665 53.443,-28.731 53.443,-53.049c-0,-31.029 -25.072,-56.845 -64.789,-56.845l-113.938,-0l-0,175.748l67.022,-0c0,-28.155 -0.724,-38.965 -3.002,-55.918c-0.138,-1.052 0.091,-2.921 0.823,-3.367c0.064,0.022 0.083,-0.015 0.031,-0.047l0.015,-0.077c0.054,-0.085 0.177,-0.111 0.352,-0.289c0.103,-0.103 0.191,-0.228 0.26,-0.309l0.044,-0.047l-0.023,-0.057c-0.248,0.023 -0.766,-0.077 -1.001,-0.57c-0.132,-0.278 0.097,-0.626 0.347,-0.805c-0.246,-0.372 -0.258,-0.628 -0.095,-1.204c0.048,-0.171 0.36,-0.486 0.406,-0.767c0.018,-0.11 0.119,-0.224 0.266,-0.294c0.118,-0.056 0.436,-0.217 0.516,-0.22c0.481,-0.022 0.697,0.219 0.802,0.239c0.671,0.124 1.02,0.53 1.042,1.079c0.389,-0.093 0.585,-0.034 0.697,0.202c0.028,0.058 0.1,0.59 0.075,0.694c-0.098,0.409 -0.217,0.551 -0.433,0.505l-0.033,0.038l0.482,0.425l0.588,0.119c0.131,0.023 0.634,0.418 1.01,0.811c0.273,0.287 0.82,0.986 0.882,1.05c5.034,14.765 15.112,28.053 27.226,40.44c13.869,14.181 25.568,18.369 47.413,18.369Zm105.802,-54.044c0.07,-0.042 -0.03,-0.188 0.083,-0.247c0.113,-0.059 0.505,0.16 0.542,0.149c0.038,-0.01 0.188,-0.234 -0.054,-0.355c-0.242,-0.121 -0.883,-0.382 -1.004,-0.233c-0.122,0.15 -0.046,0.36 0.018,0.468c0.063,0.108 0.317,0.276 0.415,0.218Zm0.117,-1.028c-0.147,0.074 -0.549,0.13 -0.515,-0.014c0.035,-0.143 0.349,-0.197 0.47,-0.202c0.12,-0.006 0.245,0.115 0.045,0.216Zm2.629,-0.629c-0.136,0.207 -0.279,0.405 -0.435,0.375c-0.156,-0.03 -2.137,-0.075 -2.196,-0.329c-0.058,-0.253 -0.223,-0.839 0.736,-0.75c0.958,0.089 2.066,0.444 1.895,0.704Zm-3.574,0.326c-0.065,-0.159 -0.237,-0.447 -0.438,-0.65c-0.201,-0.202 -0.263,0.01 -0.327,0.18c-0.064,0.17 -0.262,0.464 -0.315,0.159c-0.053,-0.305 0.005,-1.372 0.815,-1.692c0.809,-0.321 0.879,-0.098 0.973,0.051c0.095,0.148 -0.186,0.389 -0.262,0.807l-0.446,1.145Zm1.991,-1.595c-0.29,0.101 -0.958,-0.053 -1.047,-0.238c-0.089,-0.185 -0.047,-0.285 0.095,-0.334c0.141,-0.049 0.553,-0.11 0.723,-0.086c0.17,0.023 0.304,0.632 0.229,0.658Zm-184.889,-3.68c-0.092,0.145 -0.226,0.453 -0.274,0.734c-0.048,0.281 0.161,0.208 0.337,0.161c0.175,-0.047 0.529,-0.056 0.312,0.165c-0.217,0.22 -1.12,0.793 -1.851,0.321c-0.731,-0.473 -0.59,-0.659 -0.524,-0.822c0.065,-0.164 0.425,-0.075 0.809,-0.256l1.191,-0.303Zm-2.456,-0.693c0.251,0.178 0.515,0.81 0.416,0.99c-0.099,0.18 -0.205,0.204 -0.327,0.118c-0.122,-0.086 -0.411,-0.386 -0.491,-0.539c-0.079,-0.152 0.338,-0.614 0.402,-0.569Zm57.037,0.48c0.212,-0.223 0.876,-0.392 1.04,-0.268c0.164,0.125 0.171,0.232 0.068,0.341c-0.103,0.108 -0.441,0.351 -0.604,0.407c-0.162,0.057 -0.558,-0.423 -0.504,-0.48Zm-56.924,-2.505c0.248,-0.01 0.491,-0.009 0.558,0.135c0.066,0.145 1.181,1.783 1.009,1.978c-0.172,0.195 -0.553,0.67 -1.038,-0.162c-0.485,-0.832 -0.84,-1.939 -0.529,-1.951Zm57.966,0.176c0.13,0.111 0.416,0.289 0.687,0.377c0.271,0.088 0.229,-0.129 0.208,-0.309c-0.021,-0.181 0.022,-0.532 0.208,-0.286c0.187,0.247 0.622,1.224 0.049,1.878c-0.574,0.655 -0.738,0.488 -0.89,0.4c-0.152,-0.089 -0.012,-0.431 -0.135,-0.838l-0.127,-1.222Zm-3.03,1.922c0.027,-0.246 0.063,-0.487 0.216,-0.531c0.152,-0.045 1.935,-0.91 2.103,-0.712c0.168,0.199 0.582,0.645 -0.311,1.004c-0.894,0.359 -2.041,0.55 -2.008,0.239Zm-52.895,-0.325c0.145,0.076 0.424,0.371 0.287,0.426c-0.137,0.056 -0.363,-0.169 -0.438,-0.264c-0.074,-0.095 -0.048,-0.266 0.151,-0.162Zm0.903,-0.502c-0.074,-0.033 -0.135,0.133 -0.249,0.075c-0.113,-0.057 -0.163,-0.503 -0.193,-0.528c-0.031,-0.024 -0.301,-0.016 -0.258,0.251c0.042,0.267 0.202,0.94 0.395,0.952c0.192,0.013 0.318,-0.171 0.37,-0.286c0.051,-0.115 0.04,-0.419 -0.065,-0.464Zm54.043,-0.934c0.097,-0.132 0.429,-0.366 0.464,-0.222c0.035,0.144 -0.22,0.335 -0.325,0.395c-0.105,0.06 -0.271,0.009 -0.139,-0.173Zm-0.365,-0.967c-0.043,0.069 0.112,0.154 0.038,0.258c-0.073,0.104 -0.522,0.088 -0.55,0.115c-0.029,0.026 -0.06,0.294 0.21,0.291c0.271,-0.003 0.96,-0.064 1,-0.252c0.04,-0.189 -0.123,-0.34 -0.23,-0.408c-0.106,-0.067 -0.408,-0.1 -0.468,-0.004Zm-254.439,-8.741l8.047,-26.518c2.428,-7.999 3.151,-14.777 3.542,-29.246c0.124,-0.407 0.545,-1.225 0.858,-1.685c0.038,-0.055 0.188,-0.155 0.291,-0.291c0.24,-0.311 0.51,-0.547 0.755,-0.67c0.043,-0.015 0.181,-0.026 0.267,-0.043c0.048,0.047 0.058,-0.001 0.067,0.322c0.007,0.24 -0.03,0.687 -0.085,1.064c-0.033,0.224 -0.093,0.451 -0.099,0.518c0.238,-0.639 0.222,-1.581 0.222,-1.728c-0,-0.085 -0.025,-0.154 -0.057,-0.205l0.047,-0.063c0.084,-0.054 0.207,-0.024 0.442,-0.109c0.137,-0.05 0.269,-0.124 0.367,-0.168c-0.05,0.2 -0.178,0.846 0.26,1.439c0.488,0.661 1.582,0.684 1.965,0.488c-0.306,0.048 -0.514,0.062 -0.701,0.048c-0.334,-0.024 -0.843,-0.129 -1.189,-0.58c-0.271,-0.352 -0.307,-0.893 -0.275,-1.419l0.004,-0.061c-0.071,-0.026 -0.138,-0.063 -0.201,-0.151c-0.141,-0.029 -0.326,-0.207 -0.371,-0.454c-0.055,-0.075 -0.138,-0.407 -0.045,-0.465c0.045,-0.228 0.197,-0.343 0.362,-0.355c0.02,-0.02 0.071,-0.039 0.176,-0.018c0.006,-0.044 0.053,-0.075 0.079,-0.08c-0.019,-0.027 0.003,-0.073 -0.001,-0.105c-0.041,-0.305 -0,-0.528 0.433,-1.022c0.117,-0.134 0.534,-0.284 0.696,-0.518c0.064,-0.092 0.204,-0.152 0.367,-0.152c0.13,0 0.185,0.023 0.251,0.025c0.096,0.004 0.236,-0.033 0.309,-0.002c0.445,0.187 0.535,0.498 0.622,0.561c0.553,0.401 0.693,0.918 0.476,1.398c0.025,0.023 0.072,0.05 0.102,0.062c0.049,0.001 0.122,0.009 0.167,0.046c0.069,0.014 0.152,0.088 0.183,0.13c0.04,0.054 0.022,0.156 0.039,0.175c0.033,0.036 0.052,0.068 0.052,0.094c0,0.064 -0.052,0.173 -0.125,0.3c0.014,0.149 -0.038,0.276 -0.105,0.358c-0.114,0.14 -0.195,0.221 -0.256,0.241l-0.077,0.074c-0.069,0.031 -0.168,0.038 -0.275,-0.045l-0.047,0.02c0.119,0.129 0.182,0.278 0.203,0.573l0.53,0.379c0.186,0.132 0.236,0.204 0.355,0.721c0.024,0.105 0.042,0.242 0.051,0.311c0.036,0.278 0.088,0.606 0.127,0.758c-0.002,-0.088 -0.081,-0.628 -0.11,-0.878c0.03,0.053 0.071,0.101 0.13,0.151c0.067,0.057 0.09,0.104 0.09,0.191c-0,0.325 0.034,0.522 0.096,0.726c0.527,14.197 1.017,20.921 3.486,29.05l8.143,26.808l-30.64,-0Zm-200.86,-1.106c0.298,-0.106 -0.033,-0.25 -0.216,-0.283c-0.183,-0.033 -0.407,-0.057 -0.24,-0.29c0.168,-0.233 0.427,-0.454 0.576,-0.546l-1.233,-0.238c-0.434,-0.002 -0.727,-0.236 -0.859,-0.117c-0.132,0.119 -0.344,0.227 0.123,0.968c0.467,0.74 1.552,0.611 1.849,0.506Zm0.699,-1.62c0.172,0.093 0.369,-0.018 0.467,-0.1c0.098,-0.081 0.221,-0.361 0.145,-0.447c-0.055,-0.061 -0.184,0.062 -0.263,-0.038c-0.08,-0.101 0.07,-0.525 0.053,-0.56c-0.018,-0.035 -0.27,-0.144 -0.348,0.115c-0.079,0.26 -0.226,0.936 -0.054,1.03Zm-0.365,0.027c0.151,0.009 0.022,-0.378 -0.078,-0.509c-0.138,-0.179 -0.237,-0.035 -0.21,0.083c0.027,0.117 0.137,0.417 0.288,0.426Zm-2.228,-0.134c0.17,-0.12 0.205,-0.804 0.051,-1.072c-0.039,-0.069 -0.628,0.169 -0.621,0.34c0.007,0.172 0.142,0.567 0.217,0.698c0.075,0.13 0.182,0.154 0.353,0.034Zm1.563,-0.271c0.245,-0.102 -0.064,-2.061 -0.062,-2.219c0.002,-0.159 -0.222,-0.265 -0.455,-0.363c-0.293,-0.123 -0.452,1.03 -0.37,1.989c0.082,0.96 0.643,0.695 0.887,0.593Zm-48.578,-21.324c0.293,0.123 0.451,-1.029 0.369,-1.989c-0.082,-0.959 -0.642,-0.694 -0.887,-0.592c-0.245,0.102 0.065,2.06 0.063,2.219c-0.002,0.159 0.222,0.265 0.455,0.362Zm95.677,0c-0.233,-0.097 -0.457,-0.203 -0.455,-0.362c0.002,-0.159 -0.307,-2.117 -0.062,-2.219c0.244,-0.102 0.805,-0.367 0.887,0.592c0.082,0.96 -0.077,2.112 -0.37,1.989Zm-2.159,-2.413c0.054,0.061 0.183,-0.062 0.263,0.039c0.08,0.101 -0.07,0.525 -0.053,0.56c0.018,0.035 0.27,0.144 0.348,-0.116c0.079,-0.259 0.226,-0.936 0.054,-1.029c-0.172,-0.094 -0.37,0.017 -0.467,0.099c-0.098,0.082 -0.221,0.361 -0.145,0.447Zm-95.467,0.599c0.017,0.035 0.269,0.144 0.348,-0.116c0.078,-0.259 0.226,-0.936 0.054,-1.029c-0.172,-0.094 -0.37,0.017 -0.468,0.099c-0.097,0.082 -0.221,0.361 -0.144,0.447c0.054,0.061 0.183,-0.062 0.263,0.039c0.079,0.101 -0.071,0.525 -0.053,0.56Zm98.62,0.034c-0.153,-0.268 -0.118,-0.952 0.052,-1.072c0.171,-0.121 0.278,-0.096 0.353,0.034c0.075,0.13 0.21,0.525 0.217,0.697c0.006,0.172 -0.582,0.41 -0.622,0.341Zm-95.677,-0c0.039,0.069 0.628,-0.169 0.621,-0.341c-0.006,-0.172 -0.141,-0.567 -0.216,-0.697c-0.075,-0.13 -0.183,-0.155 -0.353,-0.034c-0.171,0.12 -0.206,0.804 -0.052,1.072Zm93.579,-0.698c-0.1,-0.131 -0.229,-0.517 -0.078,-0.508c0.151,0.008 0.261,0.308 0.288,0.426c0.027,0.118 -0.073,0.262 -0.21,0.082Zm-95.677,0c0.137,0.18 0.237,0.036 0.21,-0.082c-0.028,-0.118 -0.138,-0.418 -0.289,-0.426c-0.151,-0.009 -0.022,0.377 0.079,0.508Zm2.228,-0.628c0.132,-0.119 0.344,-0.227 -0.123,-0.967c-0.467,-0.741 -1.553,-0.612 -1.85,-0.506c-0.297,0.106 0.034,0.249 0.216,0.283c0.183,0.033 0.408,0.056 0.24,0.29c-0.168,0.233 -0.427,0.453 -0.575,0.545l1.232,0.238c0.435,0.002 0.727,0.236 0.86,0.117Zm93.585,-0.355c0.148,-0.092 0.408,-0.312 0.576,-0.545c0.167,-0.234 -0.058,-0.257 -0.24,-0.29c-0.183,-0.034 -0.514,-0.177 -0.216,-0.283c0.297,-0.106 1.382,-0.235 1.849,0.506c0.467,0.74 0.255,0.848 0.123,0.967c-0.132,0.119 -0.425,-0.115 -0.86,-0.117l-1.232,-0.238Zm354.454,-3.133l0,-22.341l36.987,0c6.95,0 12.163,4.22 12.163,11.171c0,6.95 -5.213,11.17 -12.163,11.17l-36.987,0Zm198.465,-12.025c0.06,0.097 0.363,0.063 0.469,-0.004c0.106,-0.067 0.269,-0.219 0.229,-0.408c-0.04,-0.188 -0.729,-0.249 -0.999,-0.252c-0.271,-0.003 -0.239,0.265 -0.211,0.292c0.029,0.026 0.477,0.011 0.551,0.115c0.073,0.104 -0.082,0.188 -0.039,0.257Zm1.344,-0.805l0.127,-1.222c0.123,-0.407 -0.016,-0.75 0.136,-0.838c0.152,-0.089 0.316,-0.256 0.889,0.399c0.574,0.655 0.138,1.631 -0.049,1.878c-0.186,0.247 -0.228,-0.105 -0.208,-0.285c0.021,-0.181 0.063,-0.398 -0.208,-0.31c-0.271,0.088 -0.556,0.266 -0.687,0.378Zm-0.978,-0.162c-0.133,-0.181 0.034,-0.232 0.138,-0.172c0.105,0.06 0.36,0.251 0.325,0.395c-0.035,0.143 -0.367,-0.091 -0.463,-0.223Zm-2.051,-1.761c-0.034,-0.31 1.114,-0.119 2.007,0.239c0.893,0.359 0.479,0.805 0.311,1.004c-0.168,0.199 -1.951,-0.666 -2.103,-0.711c-0.153,-0.045 -0.189,-0.286 -0.215,-0.532Zm1.987,-0.406c-0.054,-0.057 0.343,-0.537 0.505,-0.481c0.162,0.057 0.501,0.299 0.604,0.408c0.103,0.108 0.095,0.216 -0.069,0.34c-0.164,0.124 -0.828,-0.045 -1.04,-0.267Zm-381.366,-9.915l0.083,0.457l0.769,-0.169l-0.068,-0.488l-0.784,0.2Zm0.095,0.067l0.175,-0.044l0.043,0.271l-0.171,0.033l-0.047,-0.26Zm0.286,-0.054c-0.009,-0.054 0.042,-0.034 0.048,0.001l0.052,0.284c0.007,0.035 -0.05,0.027 -0.059,-0.027l-0.041,-0.258Zm0.101,-0.022c-0.008,-0.054 0.042,-0.034 0.049,0.001l0.052,0.284c0.006,0.034 -0.051,0.027 -0.06,-0.028l-0.041,-0.257Zm0.177,0.131l0.122,-0.031l0.009,0.094l-0.117,0.03l-0.014,-0.093Zm-0.026,-0.16l0.121,-0.031l0.009,0.093l-0.116,0.031l-0.014,-0.093Zm-3.281,-3.8c-0.016,0.018 -0.088,0.145 0.011,0.274c0.037,0.042 0.03,0.073 0.038,0.108c0.007,0.035 0.036,0.015 0.035,0.058c-0,0.042 0.002,0.118 0.061,0.187c0.06,0.069 0.082,0.148 0.137,0.172c0.055,0.025 0.084,0.01 0.112,0.036c0.027,0.026 0.049,0.014 0.061,0.044c0.012,0.029 0.033,0.08 0.078,0.074c0.044,-0.006 0.033,0.069 0.111,0.071c0.077,0.002 0.147,-0.001 0.175,-0.022c0.027,-0.022 0.073,-0.138 0.101,-0.159c0.027,-0.021 -0.002,0.089 -0.01,0.137c-0.008,0.048 -0.095,0.16 -0.101,0.207c-0.002,0.019 -0.005,0.044 -0.008,0.069c-0.041,-0.01 -0.071,0.025 -0.027,0.378c0.076,0.599 0.325,0.78 0.775,0.986c0.45,0.206 0.987,0.163 1.399,-0.079c0.411,-0.242 0.453,-0.774 0.368,-1.153l-0.028,-0.128c-0.009,0.012 -0.012,0.004 -0.027,0.038c-0.016,0.033 -0.016,0.188 -0.034,0.234c-0.017,0.047 0.033,0.104 0.032,0.159c-0.001,0.055 -0.001,0.17 -0.046,0.256c-0.045,0.085 -0.061,0.162 -0.087,0.215c-0.025,0.053 -0.071,-0.049 -0.154,0.039c-0.082,0.088 -0.117,0.164 -0.163,0.172c-0.045,0.009 -0.149,-0.04 -0.2,-0.049c-0.052,-0.009 0.008,0.055 0.008,0.079c-0,0.024 -0.133,0.011 -0.177,-0.003c-0.043,-0.013 -0.074,0.058 -0.137,0.072c-0.062,0.014 -0.233,0.042 -0.292,0.082c-0.06,0.04 -0.1,0.05 -0.136,0.062c-0.036,0.013 -0.041,-0.039 -0.007,-0.113c0.014,-0.031 0.027,-0.061 0.04,-0.089c0.006,-0.014 0.096,0.091 0.102,0.079c0.011,-0.023 -0.063,-0.161 -0.053,-0.176c0.006,-0.007 0.081,0.069 0.104,0.066c0.026,-0.004 0.107,0.045 0.137,0.032c0.029,-0.012 0.007,-0.085 0.033,-0.104c0.026,-0.018 0.077,0.01 0.095,-0.013c0.014,-0.02 -0.003,-0.091 0.003,-0.113c0.004,-0.017 0.119,0.05 0.122,0.03c0.002,-0.021 -0.106,-0.129 -0.105,-0.153c0.002,-0.024 0.115,0.037 0.116,0.012c0.002,-0.028 -0.108,-0.143 -0.107,-0.17c0.002,-0.037 0.115,0.014 0.117,-0.017c0.004,-0.04 -0.117,-0.174 -0.095,-0.18c0.107,-0.031 0.17,-0.146 0.198,-0.145c0.028,0.002 0.03,0.016 0.043,0.044c0.013,0.028 0.031,0.074 0.044,0.074c0.002,-0.022 -0.004,-0.047 -0.003,-0.06c0.001,-0.013 0.015,-0.143 0.006,-0.161l-0.027,-0.05c-0.062,0.081 -0.177,-0.046 -0.227,-0.022c-0.045,0.021 -0.078,0.072 -0.095,0.181c-0.023,0.152 -0.043,0.327 -0.073,0.336c-0.033,0.011 -0.04,-0.484 -0.028,-0.594c-0.094,-0.067 -0.371,-0.121 -0.477,0.015c-0.013,0.04 0.015,0.186 0.056,0.213c0.04,0.027 0.03,0.039 0.017,0.097c-0.029,0.258 -0.062,0.61 -0.115,0.673c-0.053,0.062 -0.018,-0.435 0.021,-0.61c0.038,-0.174 -0.01,-0.162 -0.036,-0.099c-0.027,0.063 -0.059,-0.012 -0.044,-0.07c0.006,-0.025 0.008,-0.11 0.005,-0.141c0.04,-0.165 -0.219,-0.111 -0.236,0.093c-0.002,0.024 -0.108,0.095 -0.069,-0.11c0.009,-0.052 -0.111,0.007 -0.152,0.019c-0.079,0.023 -0.118,0.209 -0.116,0.265c0.001,0.039 -0.043,0.059 -0.062,-0.065c-0.007,-0.049 0.05,-0.066 0.058,-0.131c0.007,-0.054 -0.027,-0.116 -0.033,-0.121c-0.055,-0.043 -0.081,0.151 -0.098,0.221c-0.008,0.03 -0.043,-0.006 -0.047,-0.032c-0.025,-0.139 0.091,-0.241 0.102,-0.274c-0.007,0.018 -0.073,0.018 -0.073,0.009c0.024,-0.032 0.113,-0.067 0.117,-0.087c0.006,-0.032 0.01,-0.135 0.012,-0.19c0.001,-0.055 -0.033,-0.213 -0.026,-0.289c0.008,-0.076 0.052,-0.141 0.08,-0.199c0.029,-0.059 0.006,-0.107 0.006,-0.182c-0,-0.075 0.019,-0.355 -0.016,-0.522c-0.018,-0.086 -0.203,-0.342 -0.143,-0.191c0.078,0.198 0.062,0.414 0.012,0.463c-0.048,0.046 -0.107,-0.032 -0.113,-0.052c-0.02,-0.076 -0.111,-0.269 -0.226,-0.367c-0.116,-0.098 0.071,0.229 0.124,0.403c0.053,0.173 0.002,0.122 -0.032,0.063c-0.034,-0.058 -0.106,-0.215 -0.146,-0.274c-0.036,-0.053 -0.074,-0.056 -0.046,-0.011c0.052,0.082 0.077,0.283 0.056,0.273c-0.03,-0.014 -0.102,-0.184 -0.178,-0.245c-0.083,-0.066 0.022,0.132 -0.011,0.139c-0.02,0.023 -0.232,-0.066 -0.159,-0.024c0.05,0.029 0.127,0.123 0.154,0.152l-0.056,-0.012c-0.064,0.094 -0.084,0.182 -0.06,0.264c0.037,0.127 0.183,0.21 0.435,0.195c-0.018,0.093 -0.103,0.176 -0.141,0.198c-0.089,0.001 -0.293,-0.059 -0.355,-0.285c-0.06,-0.217 -0.014,-0.363 0.054,-0.416c-0.003,-0.041 -0.029,-0.04 -0.059,-0.036c-0.03,0.005 -0.021,-0.034 -0.051,-0.051c-0.029,-0.017 -0.073,-0.023 -0.077,0.009c-0.003,0.032 -0.055,-0.005 -0.071,0.012Zm2.709,1.623c-0.005,0.016 0.055,0.099 0.078,0.143c0.022,0.045 -0.005,0.079 -0.002,0.089c0.004,0.009 0.086,0.042 0.105,0.067c0.02,0.025 -0.011,0.056 -0.008,0.087c0.003,0.031 0.03,-0.016 0.049,-0.014c0.018,0.003 0.012,0.001 0.026,-0.042c0.015,-0.044 -0.014,-0.073 -0.04,-0.103l-0.096,-0.111c0.09,0.049 0.176,0.049 0.216,0.027c-0.087,-0.072 -0.216,-0.211 -0.274,-0.282c-0.009,-0.011 -0.021,-0.021 -0.037,-0.031c0.021,0.044 -0.013,0.153 -0.017,0.17Zm-0.835,-0.125l0.121,0.056c-0.005,0.096 -0.006,0.318 -0.034,0.256c-0.029,-0.062 -0.004,-0.207 -0.034,-0.224l-0.053,-0.088Zm-0.804,-0.754c0.019,0.066 0.023,0.251 0.01,0.283c-0.012,0.032 -0.039,0.073 0.005,0.08c0.068,0.006 0.35,0.03 0.458,-0.007c0.107,-0.037 0.439,-0.083 0.519,-0.101c0.081,-0.018 0.262,0.006 0.469,0.058c0.207,0.052 0.525,0.35 0.637,0.456l0.011,-0.162c0.04,-0.08 0.024,-0.173 0.003,-0.119c-0.018,0.059 -0.077,0.066 -0.111,0.062c-0.034,-0.004 -0.152,-0.122 -0.211,-0.176c-0.059,-0.054 -0.306,-0.176 -0.439,-0.269c-0.132,-0.093 -0.339,-0.063 -0.427,-0.006c-0.088,0.057 -0.621,0.17 -0.735,0.19c-0.114,0.02 -0.105,-0.097 -0.13,-0.212c-0.025,-0.116 -0.077,-0.143 -0.059,-0.077Zm2.221,0.039c0.009,0.029 0.067,0.175 0.081,0.231c0.015,0.057 0.11,0.122 0.189,0.144c0.082,0 0.166,-0.064 0.216,-0.121c-0.12,-0.031 -0.174,-0.106 -0.203,-0.2c-0.006,-0.019 0.019,-0.04 0.033,-0.068c0.014,-0.028 0.018,-0.19 -0.001,-0.233c-0.019,-0.044 0.031,-0.006 0.044,0.01c0.013,0.018 0.02,0.113 0.011,0.152c0.08,-0.001 0.266,-0.026 0.311,-0.233c0.017,-0.004 0.014,0.047 0.004,0.087c-0.01,0.039 -0.167,0.241 -0.323,0.321c0.041,0.025 0.115,0.123 0.177,0.101c0.062,-0.022 0.186,-0.165 0.214,-0.219c0.028,-0.054 0.07,-0.164 0.067,-0.217c-0.004,-0.053 -0.011,-0.208 -0.017,-0.248c-0.005,-0.04 0.041,-0.007 0.044,0.015c0.005,0.024 0.001,0.122 -0.002,0.146c0.032,-0.048 0.102,-0.213 0.075,-0.237c-0.027,-0.024 -0.263,0.082 -0.444,0.262c-0.047,0.011 -0.083,-0.057 -0.071,-0.088c0.013,-0.03 0.302,-0.303 0.388,-0.351c0.086,-0.048 -0.046,-0.023 -0.094,0.018c-0.05,0.041 -0.268,0.231 -0.302,0.272c-0.034,0.04 -0.047,0.007 -0.015,-0.046c0.032,-0.054 0.188,-0.255 0.319,-0.341c0.033,-0.014 -0.1,-0.004 -0.285,0.232c-0.053,0.034 -0.04,-0.017 -0.008,-0.062c0.032,-0.045 0.137,-0.156 0.157,-0.175c-0.018,-0.008 -0.05,0.007 -0.062,-0.002c-0.012,-0.008 0.007,-0.097 0.025,-0.13c-0.019,-0.021 -0.125,-0.071 -0.187,-0.007c-0.038,0.062 -0.089,0.107 -0.108,0.107l-0.036,-0.038c-0.009,0.052 -0.029,0.138 -0.039,0.165c0.003,0.047 -0,0.179 -0.04,0.292c-0.008,0.077 -0.075,0.279 -0.11,0.349c-0.013,0.029 -0.002,0.098 -0.008,0.112Zm-0.666,-0.308c-0.007,0.022 0.03,0.117 0.093,0.214c0.063,0.097 0.117,0.213 0.167,0.313c0.05,0.101 0.12,0.132 0.155,0.12c-0.046,-0.038 -0.084,-0.136 -0.157,-0.261c-0.073,-0.125 -0.206,-0.433 -0.21,-0.481c-0.004,-0.049 0.037,-0.087 0.056,-0.084c0.039,0.003 0.041,-0.089 0.062,-0.133c0.009,-0.056 0.117,-0.153 0.164,-0.222c-0.047,0.024 -0.143,0.12 -0.185,0.167c-0.043,0.048 0.015,0.079 -0.054,0.136c-0.069,0.056 -0.061,0.156 -0.061,0.187c-0,0.031 -0.024,0.022 -0.03,0.044Zm0.142,0.061c0.007,0.04 0.072,0.188 0.115,0.25c0.043,0.062 0.154,0.245 0.186,0.294c0.031,0.03 0.053,0.03 0.052,-0.036c-0,-0.066 -0.047,-0.211 -0.061,-0.259c-0.013,-0.049 0.001,-0.173 -0.085,-0.268c-0.085,-0.095 -0.148,-0.088 -0.173,-0.086c-0.017,0.024 -0.041,0.065 -0.034,0.105Zm0.07,-0.28c-0.021,0.013 -0.041,0.052 0.035,0.081c0.075,0.03 0.224,0.102 0.254,0.152c0.029,0.05 0.066,0.217 0.068,0.269c0.001,0.052 0.025,0.132 0.028,0.088c0.004,-0.045 -0.001,-0.189 -0.007,-0.24c-0.006,-0.052 -0.033,-0.172 -0.089,-0.216c-0.055,-0.043 -0.128,-0.074 -0.168,-0.098c-0.04,-0.024 -0.095,-0.051 -0.121,-0.036Zm-1.225,0.548c0.24,-0.134 0.285,-0.375 0.243,-0.468c-0.036,-0.078 -0.098,-0.073 -0.143,0.113c-0.048,0.2 -0.341,0.49 -0.1,0.355Zm-0.358,-0.056c-0.093,0.088 0.039,0.056 0.085,-0.01c0.046,-0.067 0.148,-0.239 0.193,-0.383c0.045,-0.145 0.088,-0.179 0.163,-0.186c0.075,-0.007 0.135,0.039 0.183,0.064l-0.034,-0.065c-0.034,-0.066 -0.227,-0.158 -0.336,0.052c-0.109,0.209 -0.16,0.44 -0.254,0.528Zm0.739,-0.357c-0.012,0.002 -0.023,0.013 -0.032,0.036c-0.033,0.08 -0.09,0.269 -0.159,0.361c0.124,-0.104 0.172,-0.192 0.253,-0.197c0.081,-0.006 0.265,0.02 0.358,0.023c0.093,0.004 0.175,0.05 0.203,0.053c-0.03,-0.059 -0.082,-0.112 -0.091,-0.177c-0.034,0.022 -0.08,0.033 -0.131,0.036c-0.033,0.024 -0.076,0.043 -0.097,0.043c-0.048,0.001 -0.221,-0.061 -0.259,-0.078c-0.013,-0.006 -0.028,-0.046 -0.045,-0.1c0.029,-0.006 0.067,0.04 0.118,0.076c0.048,0.035 0.174,0.066 0.283,0.059c0.044,-0.03 0.072,-0.068 0.012,-0.08c-0.106,-0.02 -0.087,-0.05 -0.083,-0.161c0.003,-0.111 0.055,-0.994 0.012,-1.344c-0.042,-0.351 0.092,-0.588 -0.052,-0.709c-0.144,-0.121 -0.36,-0.411 -0.428,-0.362l-0.089,0.29c-0.005,-0.01 -0.003,-0.038 -0.07,0.048l-0.081,0.135l0.234,0.036c-0.116,0.038 -0.285,0.196 -0.379,0.273l0.15,0.026c-0.068,0.079 -0.13,0.182 -0.205,0.238l0.218,0.01c-0.105,0.076 -0.248,0.187 -0.314,0.23l0.277,-0.013c-0.115,0.068 -0.286,0.168 -0.343,0.204l0.254,0.055c-0.054,0.04 -0.026,0.072 -0.193,0.163c0.082,0.035 0.177,0.04 0.252,0.068c-0.07,0.055 -0.144,0.09 -0.21,0.164l0.282,-0.048c-0.104,0.064 -0.288,0.154 -0.313,0.191c-0.025,0.038 0.24,-0.046 0.317,-0.031c0.077,0.015 0.156,0.142 0.226,0.185c0.048,0.028 0.091,0.189 0.125,0.297Zm1.428,-1.528l0.045,0.141c0.122,0.186 0.134,0.362 0.177,0.49l0.053,0.158c-0.013,-0.106 0.036,-0.188 -0.026,-0.313c-0.062,-0.125 -0.173,-0.421 -0.249,-0.476Zm-2.817,0.637l0.062,-0.02c0.039,-0.142 0.132,-0.209 0.16,-0.257c0.047,-0.082 0.258,-0.315 0.41,-0.497c-0.124,0.053 -0.339,0.32 -0.395,0.401c-0.056,0.081 -0.068,0.135 -0.136,0.171c-0.065,0.036 -0.101,0.119 -0.101,0.202Zm-104.741,-171.714l-0,116.172l66.464,0l-0,-116.172l54.977,-0l0,-59.576l-232.856,0c-35.994,0 -60.072,23.83 -60.072,52.625c-0,13.405 4.343,27.666 16.879,41.455c5.903,6.492 21.665,16.552 29.343,20.588c0.629,0.503 2.018,1.66 1.955,2.515c-0.055,0.04 -0.036,0.076 0.02,0.053l0.054,0.057c0.038,0.093 -0.012,0.208 0.03,0.454c0.025,0.144 0.075,0.287 0.101,0.391l0.013,0.064l0.059,0.014c0.126,-0.216 0.508,-0.579 1.046,-0.483c0.303,0.054 0.453,0.443 0.454,0.75c0.445,0.017 0.66,0.156 1.034,0.623c0.111,0.139 0.186,0.575 0.388,0.776c0.079,0.079 0.113,0.227 0.085,0.388c-0.023,0.128 -0.077,0.48 -0.121,0.548c-0.262,0.404 -0.584,0.439 -0.661,0.513c-0.492,0.474 -1.025,0.522 -1.484,0.221c-0.151,0.37 -0.312,0.495 -0.57,0.449c-0.063,-0.011 -0.538,-0.262 -0.608,-0.342c-0.275,-0.318 -0.322,-0.498 -0.159,-0.646l-0.012,-0.05l-0.626,0.145l-0.439,0.41c-0.094,0.093 -0.708,0.273 -1.247,0.35c-0.392,0.055 -0.655,0.016 -0.885,0.016c-7.119,-2.958 -21.823,-5.712 -29.063,-5.712l-92.337,0l-0,59.576l131.113,0c37.235,0 60.072,-23.086 60.072,-52.873c0,-12.908 -4.043,-26.727 -16.631,-39.966c-6.846,-7.199 -20.143,-15.367 -31.533,-19.975c-0.738,-0.776 -1.225,-1.286 -1.548,-1.515c-0.445,-0.314 -0.777,-0.755 -0.818,-0.881l-0.204,-0.565l-0.49,-0.415l-0.033,0.039c0.077,0.206 -0.047,0.345 -0.437,0.501c-0.099,0.04 -0.636,0.046 -0.697,0.027c-0.25,-0.077 -0.337,-0.262 -0.302,-0.66c-0.545,0.058 -0.998,-0.228 -1.219,-0.874c-0.034,-0.102 -0.304,-0.28 -0.353,-0.759c-0.008,-0.08 0.105,-0.418 0.143,-0.542c0.048,-0.156 0.146,-0.272 0.253,-0.306c0.271,-0.087 0.537,-0.441 0.699,-0.514c0.546,-0.244 0.801,-0.27 1.205,-0.081c0.141,-0.273 0.452,-0.55 0.746,-0.46c0.522,0.161 0.697,0.659 0.71,0.908l0.059,0.014l0.041,-0.05c0.07,-0.081 0.18,-0.186 0.268,-0.302c0.15,-0.2 0.158,-0.325 0.234,-0.391l0.075,-0.025c0.039,0.046 0.072,0.022 0.041,-0.038c0.335,-0.79 2.151,-1.302 3.317,-1.302c8.333,2.636 27.393,4.833 38.18,4.833l65.347,-0Zm109,116.172l65.817,0l7.841,-25.835l59.268,0l7.848,25.835l68.278,0l-53.384,-175.748l-102.285,0l-53.383,175.748Zm350.814,-65.854c40.69,-4.664 53.443,-28.731 53.443,-53.049c-0,-31.029 -25.072,-56.845 -64.789,-56.845l-113.938,0l-0,175.748l67.022,0c0,-28.155 -0.724,-38.965 -3.002,-55.918c-0.138,-1.052 0.091,-2.921 0.823,-3.367c0.065,0.022 0.083,-0.015 0.032,-0.047l0.014,-0.077c0.054,-0.085 0.177,-0.111 0.353,-0.289c0.102,-0.103 0.19,-0.228 0.259,-0.309l0.044,-0.047l-0.022,-0.057c-0.249,0.023 -0.767,-0.077 -1.002,-0.57c-0.132,-0.278 0.097,-0.626 0.347,-0.805c-0.246,-0.372 -0.257,-0.628 -0.095,-1.204c0.049,-0.171 0.36,-0.486 0.406,-0.767c0.019,-0.11 0.119,-0.224 0.267,-0.294c0.117,-0.056 0.435,-0.217 0.515,-0.22c0.481,-0.022 0.697,0.219 0.802,0.239c0.672,0.124 1.021,0.53 1.043,1.079c0.388,-0.093 0.584,-0.034 0.697,0.202c0.027,0.058 0.099,0.59 0.074,0.694c-0.098,0.409 -0.217,0.551 -0.433,0.505l-0.033,0.038l0.482,0.425l0.589,0.119c0.13,0.023 0.633,0.418 1.009,0.812c0.273,0.286 0.82,0.985 0.882,1.049c5.034,14.765 15.113,28.053 27.227,40.44c13.868,14.181 25.567,18.369 47.412,18.369l113.41,0l-0,-59.576l-99.476,0c-6.805,0 -15.352,0.267 -32.104,0.779c-1.058,0 -2.873,-0.494 -3.208,-1.283c0.031,-0.061 -0.003,-0.084 -0.042,-0.038l-0.075,-0.026c-0.076,-0.065 -0.083,-0.191 -0.234,-0.39c-0.087,-0.117 -0.197,-0.222 -0.268,-0.302l-0.04,-0.051l-0.06,0.015c-0.013,0.249 -0.187,0.747 -0.709,0.907c-0.294,0.091 -0.605,-0.186 -0.747,-0.46c-0.403,0.189 -0.658,0.164 -1.204,-0.081c-0.162,-0.073 -0.428,-0.426 -0.7,-0.513c-0.107,-0.034 -0.205,-0.15 -0.253,-0.306c-0.038,-0.124 -0.151,-0.463 -0.142,-0.542c0.048,-0.48 0.318,-0.658 0.353,-0.76c0.221,-0.645 0.673,-0.932 1.219,-0.874c-0.035,-0.397 0.051,-0.583 0.302,-0.66c0.061,-0.019 0.598,-0.013 0.697,0.027c0.39,0.157 0.514,0.295 0.436,0.502l0.033,0.038l0.491,-0.415l0.203,-0.565c0.042,-0.125 0.505,-0.566 0.95,-0.881c0.323,-0.228 0.666,-0.349 0.74,-0.399Zm-582.898,11.81c0.07,-0.042 -0.029,-0.188 0.084,-0.247c0.112,-0.059 0.504,0.16 0.542,0.149c0.037,-0.01 0.188,-0.234 -0.054,-0.355c-0.243,-0.121 -0.883,-0.382 -1.005,-0.233c-0.122,0.15 -0.046,0.36 0.018,0.468c0.064,0.108 0.317,0.276 0.415,0.218Zm0.117,-1.028c-0.146,0.074 -0.549,0.13 -0.514,-0.014c0.034,-0.143 0.348,-0.197 0.469,-0.202c0.121,-0.006 0.245,0.115 0.045,0.216Zm2.629,-0.629c-0.136,0.207 -0.278,0.405 -0.435,0.375c-0.156,-0.03 -2.137,-0.075 -2.195,-0.329c-0.059,-0.253 -0.224,-0.839 0.735,-0.75c0.959,0.089 2.066,0.444 1.895,0.704Zm-3.573,0.326c-0.066,-0.159 -0.238,-0.447 -0.439,-0.65c-0.201,-0.202 -0.262,0.01 -0.326,0.18c-0.065,0.17 -0.263,0.464 -0.316,0.159c-0.053,-0.305 0.006,-1.372 0.815,-1.692c0.809,-0.321 0.879,-0.097 0.974,0.051c0.094,0.148 -0.187,0.389 -0.263,0.807l-0.445,1.145Zm1.991,-1.595c-0.291,0.101 -0.958,-0.052 -1.047,-0.238c-0.089,-0.185 -0.047,-0.284 0.094,-0.334c0.141,-0.049 0.553,-0.11 0.724,-0.086c0.17,0.023 0.303,0.632 0.229,0.658Zm524.238,-3.68c-0.091,0.145 -0.226,0.453 -0.274,0.734c-0.047,0.281 0.161,0.208 0.337,0.161c0.175,-0.046 0.529,-0.056 0.312,0.165c-0.217,0.22 -1.12,0.793 -1.851,0.321c-0.73,-0.472 -0.59,-0.659 -0.524,-0.822c0.066,-0.164 0.425,-0.075 0.809,-0.256l1.191,-0.303Zm-2.456,-0.693c0.251,0.178 0.515,0.81 0.416,0.99c-0.099,0.18 -0.204,0.204 -0.327,0.118c-0.122,-0.086 -0.411,-0.386 -0.491,-0.539c-0.079,-0.152 0.338,-0.614 0.402,-0.569Zm57.037,0.48c0.212,-0.223 0.876,-0.392 1.04,-0.267c0.164,0.124 0.172,0.231 0.069,0.34c-0.103,0.108 -0.442,0.351 -0.604,0.407c-0.162,0.057 -0.559,-0.423 -0.505,-0.48Zm-56.924,-2.505c0.248,-0.01 0.491,-0.009 0.558,0.136c0.067,0.144 1.181,1.782 1.009,1.977c-0.172,0.195 -0.553,0.67 -1.038,-0.162c-0.485,-0.832 -0.84,-1.939 -0.529,-1.951Zm57.966,0.176c0.131,0.111 0.416,0.289 0.687,0.377c0.271,0.088 0.229,-0.129 0.208,-0.309c-0.021,-0.181 0.022,-0.532 0.208,-0.285c0.187,0.246 0.622,1.223 0.049,1.877c-0.574,0.655 -0.738,0.488 -0.89,0.4c-0.152,-0.089 -0.012,-0.431 -0.135,-0.838l-0.127,-1.222Zm-3.03,1.922c0.027,-0.246 0.063,-0.486 0.216,-0.531c0.152,-0.045 1.935,-0.91 2.103,-0.712c0.168,0.199 0.582,0.645 -0.311,1.004c-0.894,0.359 -2.041,0.55 -2.008,0.239Zm-52.895,-0.325c0.145,0.076 0.425,0.371 0.287,0.426c-0.137,0.056 -0.363,-0.169 -0.437,-0.264c-0.075,-0.094 -0.049,-0.266 0.15,-0.162Zm0.903,-0.502c-0.074,-0.033 -0.135,0.133 -0.249,0.075c-0.113,-0.057 -0.163,-0.503 -0.193,-0.528c-0.031,-0.024 -0.3,-0.016 -0.258,0.251c0.042,0.267 0.203,0.94 0.395,0.952c0.192,0.013 0.319,-0.171 0.37,-0.286c0.051,-0.115 0.04,-0.419 -0.065,-0.464Zm54.043,-0.933c0.097,-0.133 0.429,-0.367 0.464,-0.223c0.035,0.144 -0.22,0.335 -0.325,0.395c-0.104,0.06 -0.271,0.009 -0.139,-0.172Zm-0.365,-0.968c-0.043,0.069 0.112,0.154 0.038,0.258c-0.073,0.104 -0.522,0.088 -0.55,0.115c-0.028,0.026 -0.06,0.294 0.211,0.291c0.27,-0.003 0.959,-0.064 0.999,-0.252c0.04,-0.188 -0.123,-0.34 -0.229,-0.408c-0.107,-0.067 -0.409,-0.1 -0.469,-0.004Zm-240.619,-64.839c0.526,14.197 1.016,20.921 3.485,29.05l8.143,26.808l-30.64,-0l8.048,-26.518c2.427,-7.999 3.151,-14.777 3.541,-29.246c0.308,-1.012 1.318,-2.601 2.171,-2.689c0.049,0.048 0.081,0.022 0.048,-0.029l0.047,-0.063c0.085,-0.054 0.207,-0.024 0.442,-0.109c0.137,-0.05 0.27,-0.124 0.367,-0.168l0.061,-0.024l0.004,-0.061c-0.235,-0.085 -0.66,-0.399 -0.66,-0.945c0,-0.307 0.357,-0.523 0.66,-0.578c-0.062,-0.441 0.037,-0.677 0.432,-1.127c0.117,-0.134 0.533,-0.284 0.696,-0.518c0.064,-0.092 0.203,-0.152 0.367,-0.152c0.13,0 0.486,-0.008 0.56,0.023c0.444,0.188 0.535,0.498 0.622,0.561c0.552,0.401 0.692,0.918 0.477,1.422c0.39,0.084 0.542,0.221 0.542,0.483c-0,0.064 -0.164,0.576 -0.231,0.658c-0.264,0.327 -0.433,0.405 -0.608,0.27l-0.047,0.02l0.253,0.591l0.48,0.361c0.108,0.076 0.393,0.649 0.563,1.166c0.123,0.376 0.151,0.728 0.177,0.814Zm185.574,25.076l0,-22.341l36.987,0c6.95,0 12.163,4.22 12.163,11.171c0,6.95 -5.213,11.17 -12.163,11.17l-36.987,0Zm-510.663,-12.025c0.061,0.097 0.363,0.063 0.469,-0.004c0.106,-0.067 0.27,-0.219 0.23,-0.408c-0.04,-0.188 -0.729,-0.249 -1,-0.252c-0.271,-0.003 -0.239,0.265 -0.21,0.292c0.028,0.026 0.476,0.011 0.55,0.115c0.073,0.104 -0.082,0.188 -0.039,0.257Zm1.345,-0.805l0.127,-1.222c0.123,-0.407 -0.017,-0.75 0.135,-0.838c0.152,-0.089 0.316,-0.255 0.889,0.399c0.574,0.655 0.138,1.631 -0.048,1.878c-0.187,0.247 -0.229,-0.105 -0.208,-0.285c0.02,-0.181 0.063,-0.398 -0.208,-0.31c-0.272,0.088 -0.557,0.266 -0.687,0.378Zm-0.979,-0.162c-0.132,-0.181 0.034,-0.232 0.139,-0.172c0.105,0.06 0.36,0.251 0.325,0.395c-0.036,0.143 -0.368,-0.091 -0.464,-0.223Zm-2.051,-1.761c-0.033,-0.31 1.114,-0.119 2.007,0.239c0.894,0.359 0.48,0.805 0.311,1.004c-0.168,0.199 -1.95,-0.666 -2.103,-0.711c-0.152,-0.045 -0.189,-0.286 -0.215,-0.532Zm1.988,-0.406c-0.055,-0.057 0.342,-0.537 0.504,-0.481c0.162,0.057 0.501,0.299 0.604,0.408c0.103,0.108 0.095,0.216 -0.069,0.34c-0.164,0.124 -0.827,-0.045 -1.039,-0.267Zm322.78,-12.479c-0.145,0.092 -0.399,0.313 -0.563,0.546c-0.164,0.233 0.056,0.256 0.234,0.29c0.179,0.033 0.503,0.177 0.212,0.283c-0.291,0.105 -1.352,0.234 -1.809,-0.506c-0.457,-0.741 -0.25,-0.849 -0.12,-0.968c0.129,-0.119 0.415,0.115 0.84,0.117l1.206,0.238Zm1.239,-1.112c-0.127,0.003 -0.254,0.126 -0.332,0.026c-0.077,-0.101 0.07,-0.525 0.052,-0.56c-0.017,-0.035 -0.263,-0.144 -0.34,0.115c-0.077,0.26 -0.221,0.936 -0.053,1.03c0.168,0.093 0.362,-0.018 0.457,-0.1c0.096,-0.081 0.216,-0.361 0.216,-0.511Zm-1.106,0.129c0.098,0.131 0.224,0.518 0.076,0.509c-0.147,-0.009 -0.255,-0.309 -0.282,-0.426c-0.026,-0.118 0.071,-0.262 0.206,-0.083Zm-1.922,-0.771c0.019,0.342 -0.014,1.026 -0.181,1.146c-0.167,0.12 -0.272,0.096 -0.346,-0.034c-0.073,-0.131 -0.205,-0.526 -0.212,-0.698c-0.006,-0.171 0.57,-0.409 0.739,-0.414Zm0.909,-1.863c0.161,0.254 0.38,0.36 0.378,0.518c-0.002,0.159 0.301,2.118 0.061,2.22c-0.239,0.102 -0.787,0.367 -0.867,-0.593c-0.081,-0.959 0.074,-2.112 0.428,-2.145Z" style="fill-rule:nonzero;">
<animateTransform
	attributeName="transform"
	type="scale"
	additive="sum"
	from="1 1"
	to="50 50"
	begin="0s"
	dur="4s"
	calcMode="spline"
	values="1 1; 50 50; 1 1; 1 1"
	keyTimes="0; 0.4; 0.8; 1"
	keySplines="0.7 0 0.9 1;
				0.1 0 0.3 1;
				0 0 1 1"
	repeatCount="indefinite" />
</path>
<animateTransform
	attributeName="transform"
    type="translate"
    from="0 0"
    to="-17300 -11450"
    begin="0s"
    dur="4s"
    calcMode="spline"
	values="0 0; -17300 -11450; 0 0;  0 0"
	keyTimes="0; 0.4; 0.8; 1"
	keySplines="0.7 0 0.9 1;
				0.1 0 0.3 1;
				0 0 1 1"
    repeatCount="indefinite" />
</g>
</svg>