<?xml version="1.0" encoding="UTF-8" standalone="no"?><!DOCTYPE svg PUBLIC "-//W3C//DTD SVG 1.1//EN" "http://www.w3.org/Graphics/SVG/1.1/DTD/svg11.dtd"><svg viewBox="0 0 968 581" version="1.1" xmlns="http://www.w3.org/2000/svg" xmlns:xlink="http://www.w3.org/1999/xlink" xml:space="preserve" xmlns:serif="http://www.serif.com/" style="fill-rule:evenodd;clip-rule:evenodd;stroke-linejoin:round;stroke-miterlimit:2;"><rect id="アートボード1" x="0" y="0" width="967.181" height="579.969" style="fill:none;"/><clipPath id="_clip1"><rect x="0" y="0" width="967.181" height="579.969"/></clipPath><g clip-path="url(#_clip1)"><path d="M0,571l214,-0c98,-332 151,-418 199,-418c12,-0 18,8 18,30c0,27 -27,169 -76,388l219,-0c98,-332 151,-418 199,-418c12,-0 18,8 18,30c0,42 -64,260 -64,323c0,53 33,74 95,74c54,-0 101,-11 145,-33l0,-42c-15,3 -27,4 -36,4c-16,-0 -24,-8 -24,-27c0,-35 12,-79 43,-215c46,-200 -5,-266 -102,-266c-104,-0 -173,73 -280,457l-16,-0l41,-191c43,-199 -8,-266 -105,-266c-104,-0 -173,73 -280,457l-16,-0l102,-458c-90,7 -178,10 -256,10l-7,42c52,9 54,46 41,116l-72,403Z" style="fill-rule:nonzero;"/></g></svg>