<?xml version="1.0" encoding="UTF-8" standalone="no"?>
<!DOCTYPE svg PUBLIC "-//W3C//DTD SVG 1.1//EN" "http://www.w3.org/Graphics/SVG/1.1/DTD/svg11.dtd">
<svg viewBox="0 0 4822 4786" version="1.1" xmlns="http://www.w3.org/2000/svg" xmlns:xlink="http://www.w3.org/1999/xlink" xml:space="preserve" xmlns:serif="http://www.serif.com/" style="fill-rule:evenodd;clip-rule:evenodd;stroke-linejoin:round;stroke-miterlimit:2;">
    <g transform="matrix(1,0,0,1,-11142,-282)">
        <g id="アートボード3" transform="matrix(1.27126,0,0,1,-2886.31,0)">
            <rect x="10638.5" y="0" width="5327.19" height="5161.95" style="fill:none;"/>
            <g transform="matrix(3.27758,0,0,4.16667,10247.4,2935.88)">
                <path d="M304,-60L431,423L558,-60L476,-60L431,153L386,-60L304,-60Z" style="fill-rule:nonzero;"/>
                <path d="M402.216,-80L278.061,-80L431,501.648L583.939,-80L459.784,-80L431,56.244C431,56.244 402.216,-80 402.216,-80ZM304,-60L431,423L558,-60L476,-60L431,153L386,-60L304,-60Z" style="fill:rgb(7,116,249);"/>
            </g>
            <g transform="matrix(3.27758,0,0,4.16667,10247.4,613.818)">
                <path d="M304,-60L431,423L558,-60L476,-60L431,153L386,-60L304,-60Z" style="fill-rule:nonzero;"/>
            </g>
            <g transform="matrix(3.27758,0,0,4.16667,12911.6,2906.71)">
                <path d="M298,-49L421,419C422,423 426,423 427,419L550,-49C551,-53 550,-53 547,-53L474,-53C471,-53 469,-52 468,-49L427,146C426,151 422,151 421,146L380,-49C379,-52 377,-53 374,-53L301,-53C298,-53 297,-53 298,-49Z" style="fill-rule:nonzero;"/>
                <path d="M424,63.067L399.572,-53.115C399.415,-53.862 399.215,-54.6 398.974,-55.325C396.716,-62.096 392.865,-66.263 388.35,-69.085C384.487,-71.499 379.794,-73 374,-73C374,-73 301,-73 301,-73C291.983,-73 286.864,-69.648 283.858,-66.642C280.558,-63.342 275.297,-57.349 278.597,-44.149C278.617,-44.071 278.637,-43.994 278.657,-43.916L401.634,423.996C405.059,437.47 415.531,442 424,442C432.468,442 442.939,437.471 446.371,423.979C446.366,423.996 569.343,-43.916 569.343,-43.916C569.363,-43.994 569.383,-44.071 569.403,-44.149C572.703,-57.349 567.442,-63.342 564.142,-66.642C561.136,-69.648 556.017,-73 547,-73C547,-73 474,-73 474,-73C468.206,-73 463.513,-71.499 459.65,-69.085C455.135,-66.263 451.284,-62.096 449.026,-55.325C448.785,-54.6 448.585,-53.862 448.428,-53.115L424,63.067ZM298,-49L421,419C422,423 426,423 427,419L550,-49C551,-53 550,-53 547,-53L474,-53C471,-53 469,-52 468,-49L427,146C426,151 422,151 421,146L380,-49C379,-52 377,-53 374,-53L301,-53C298,-53 297,-53 298,-49Z" style="fill:rgb(7,116,249);"/>
            </g>
            <g transform="matrix(3.27758,0,0,4.16667,12911.6,584.651)">
                <path d="M298,-49L421,419C422,423 426,423 427,419L550,-49C551,-53 550,-53 547,-53L474,-53C471,-53 469,-52 468,-49L427,146C426,151 422,151 421,146L380,-49C379,-52 377,-53 374,-53L301,-53C298,-53 297,-53 298,-49Z" style="fill-rule:nonzero;"/>
            </g>
            <g transform="matrix(3.27758,0,0,4.16667,12552.3,2935.88)">
                <path d="M4,-56L130,423L132,423L258,-56L176,-56L131,157L86,-56L4,-56Z" style="fill-rule:nonzero;"/>
                <path d="M102.216,-76L-21.941,-76L114.581,443L147.419,443L283.941,-76L159.784,-76L131,60.244C131,60.244 102.216,-76 102.216,-76ZM4,-56L130,423L132,423L258,-56L176,-56L131,157L86,-56L4,-56Z" style="fill:rgb(7,116,249);"/>
            </g>
            <g transform="matrix(3.27758,0,0,4.16667,12552.3,613.818)">
                <path d="M4,-56L130,423L132,423L258,-56L176,-56L131,157L86,-56L4,-56Z" style="fill-rule:nonzero;"/>
            </g>
        </g>
    </g>
</svg>
