<?xml version="1.0" encoding="UTF-8" standalone="no"?>
<!DOCTYPE svg PUBLIC "-//W3C//DTD SVG 1.1//EN" "http://www.w3.org/Graphics/SVG/1.1/DTD/svg11.dtd">
<svg viewBox="0 0 4136 1454" version="1.1" xmlns="http://www.w3.org/2000/svg" xmlns:xlink="http://www.w3.org/1999/xlink" xml:space="preserve" xmlns:serif="http://www.serif.com/" style="fill-rule:evenodd;clip-rule:evenodd;stroke-linecap:round;stroke-linejoin:round;stroke-miterlimit:1.5;">
    <g transform="matrix(1,0,0,1,-4286,0)">
        <g id="アートボード2" transform="matrix(1.26697,0,0,1.81575,-1096.43,0)">
            <rect x="4104.61" y="0" width="4833.69" height="2842.88" style="fill:none;"/>
            <g transform="matrix(0.789283,0,0,0.550737,865.395,0)">
                <path d="M6536.21,113.83C6518.21,101.146 6506.06,97.835 6472.05,97.408C6438.04,96.982 6347.11,94.792 6322.36,99.42C6297.6,104.047 6305.48,92.585 6294.96,122.297C6284.44,152.009 6287.34,277.947 6287.54,336.346C6287.74,394.746 6283.22,434.125 6285.53,476.107C6287.85,518.088 6281.78,543.019 6265.14,556.999C6248.5,570.979 6232.9,577.806 6216.78,580.87C6200.66,583.934 6170.23,591.405 6105.24,591.894C6040.26,592.383 5966.15,588.888 5938.36,586.922C5910.56,584.956 5858.36,585.659 5829.9,594.22C5801.43,602.782 5799.35,614.577 5794.49,643.609C5789.63,672.64 5783.84,812.431 5799.68,830.543C5815.51,848.654 5826.51,856.774 5853.76,856.774C5881.02,856.774 6053.28,870.336 6053.28,870.336C6053.28,870.336 6098.78,852.306 6149.56,861.048L6200.35,869.79C6200.35,869.79 6232.35,857.292 6253.49,873.095C6274.63,888.897 6280.34,906.476 6283.26,929.705C6286.18,952.934 6286.58,1006.44 6283.77,1044.47C6280.95,1082.5 6279.27,1117.23 6282.76,1170.16C6286.26,1223.09 6272.73,1308.48 6294.24,1330.58C6315.74,1352.67 6374.58,1346.45 6417.49,1346.45C6460.39,1346.45 6496.23,1351.94 6523.76,1342.52C6551.3,1333.1 6566.24,1317.65 6565.1,1284.96C6563.96,1252.27 6554.62,1029.17 6553.99,973.88C6553.36,918.589 6567.61,883.631 6587.44,868.636C6607.27,853.64 6627.48,853.071 6671.11,854.011C6714.75,854.951 6759.65,859.429 6823.27,858.664C6886.89,857.9 6991.28,864.149 7015.84,845.625C7040.41,827.101 7049.81,808.241 7046.1,773.948C7042.39,739.655 7048.25,671.7 7045.2,639.026C7042.16,606.353 7027.32,588.537 7006.27,589.424C6985.21,590.312 6748.37,596.433 6710.12,600.327C6671.86,604.221 6656.3,594.353 6633.76,584.8C6611.21,575.246 6564.09,558.745 6556.43,529.371C6548.78,499.998 6555.31,387.508 6553.6,328.286C6551.89,269.063 6563.32,243.531 6563.99,212.828C6564.65,182.125 6547.19,121.566 6536.21,113.83Z"/>
            </g>
            <g transform="matrix(0.789283,0,0,0.550737,865.395,95.8351)">
                <rect x="4321.39" y="443.973" width="1196.72" height="212.557"/>
            </g>
            <g transform="matrix(4.83297e-17,0.550737,-0.789283,3.37229e-17,5182.78,-2310.61)">
                <rect x="4321.39" y="443.973" width="1196.72" height="212.557"/>
            </g>
            <g transform="matrix(0.789283,0,0,0.550737,-218.238,0)">
                <path d="M7901.59,617.986L7901.59,125.905L7689.03,125.905L7689.03,617.986L7196.95,617.986L7196.95,830.543L7689.03,830.543L7689.03,1322.62L7901.59,1322.62L7901.59,830.543L8393.67,830.543L8393.67,617.986L7901.59,617.986Z" style="fill:none;stroke:white;stroke-width:2.92px;"/>
            </g>
            <g transform="matrix(0.789283,0,0,0.550737,865.395,0)">
                <path d="M7689.03,592.656L7689.03,125.905L7901.59,125.905L7901.59,592.821L7856.28,662.993L7925.97,617.986L8393.67,617.986L8393.67,830.543L7926.03,830.543L7856.28,785.499L7901.59,855.672L7901.59,1322.62L7689.03,1322.62L7689.03,855.837L7689.07,855.873L7734.52,785.499L7664.77,830.543L7196.95,830.543L7196.95,617.986L7664.82,617.986L7734.52,662.993L7689.07,592.62L7689.03,592.656Z"/>
            </g>
        </g>
    </g>
</svg>
