<?xml version="1.0" encoding="UTF-8" standalone="no"?><!DOCTYPE svg PUBLIC "-//W3C//DTD SVG 1.1//EN" "http://www.w3.org/Graphics/SVG/1.1/DTD/svg11.dtd"><svg viewBox="0 0 771 637" version="1.1" xmlns="http://www.w3.org/2000/svg" xmlns:xlink="http://www.w3.org/1999/xlink" xml:space="preserve" xmlns:serif="http://www.serif.com/" style="fill-rule:evenodd;clip-rule:evenodd;stroke-linejoin:round;stroke-miterlimit:2;"><g id="アートボード1"><rect x="0" y="0" width="770.03" height="636.892" style="fill:none;"/><g><path d="M630.722,513.061c-22.309,5.971 -46.142,7.904 -67.821,15.291c36.704,-31.475 34.617,-80.204 59.121,-117.279c7.808,-10.5 14.246,-21.496 23.358,-31.471c-14.921,29.9 -8.429,68.68 -25.558,97.692c-6.6,11.525 -16.025,22.7 -26.442,31.758c3.404,-0.129 6.388,-3.087 9.375,-5.05c27.804,-27.754 64.15,-35.504 94.208,-58.05c12.046,-9.608 23.092,-22.179 28.384,-35.791c-5.704,46.025 -51.475,89.179 -94.625,102.9Z" style="fill:#408fdd;fill-rule:nonzero;"/><path d="M730.901,326.682c-13.617,19.35 -30.063,37.362 -42.633,57.029c1.416,-15.554 3.245,-34.721 -2.825,-49.483c-10.525,-31.763 -19.742,-64.025 -22.73,-98.909l0.421,-13.321c7.904,35.609 42.888,60.092 40.688,100.046c0.791,9.688 -2.196,17.888 -4.029,26.421l0.629,0.629l1.571,-1.779c5.183,-19.583 7.8,-40.192 15.866,-58.467c11.471,-26.316 25.767,-52.866 19.954,-84.633c17.438,37.45 12.146,87.488 -6.912,122.467Z" style="fill:#408fdd;fill-rule:nonzero;"/><path d="M709.43,124.903c22.938,31.083 27.963,80.625 11.258,116.291c-6.237,15.104 -10.629,31.209 -13.091,47.942c-1.15,-2.883 -1.413,-6.754 -2.467,-9.979c-9.108,-34.904 -42.154,-59.779 -55.717,-92.696c-4.295,-10.754 -7.962,-21.888 -10.004,-33.562c14.504,26.837 50.275,40.691 60.017,70.249c3.979,7.488 3.771,16.834 6.229,24.875c0.529,0 1.05,-0.391 1.05,-0.916c-4.3,-30.45 -2.983,-62.342 1.15,-92.429c-0.258,-16.284 -1.833,-32.1 -10.892,-44.696c5.809,3.379 8.43,9.871 12.467,14.921Z" style="fill:#408fdd;fill-rule:nonzero;"/><path d="M693.247,118.936c6.021,27.233 -2.775,53.783 2.775,81.279l-0.213,0.233c-14.821,-29.145 -46.291,-42.891 -67.921,-66.22c-12.57,-13.85 -18.012,-30.717 -21.158,-48.571c12.413,29.9 45.879,36.5 65.096,61.692c6.442,5.812 8.533,13.849 12.675,20.449l0.679,-0.658c-11.05,-23.587 -14.767,-50.137 -22.467,-75.304c-3.875,-10.896 -11.525,-21.604 -21.787,-28.487c25.196,5.154 47.083,31.5 52.321,55.587Z" style="fill:#408fdd;fill-rule:nonzero;"/><path d="M625.793,56.461c19.012,16.996 27.604,39.013 33.15,61.821l3.15,7.254c-27.605,-19.85 -52.638,-46.5 -70.229,-74.654l-21.53,-21.758c18.909,8.016 39.284,12.804 55.459,27.337Z" style="fill:#408fdd;fill-rule:nonzero;"/><path d="M190.297,32.736c-19.063,16.708 -32.288,37.838 -46.425,57.558c-12.675,15.68 -28.883,26.05 -43.254,39.534c7.746,-16.079 8.037,-35.296 19.033,-50.063c15.658,-27.308 44.696,-36.921 70.646,-47.029Z" style="fill:#408fdd;fill-rule:nonzero;"/><path d="M86.059,90.924c9.263,-11.525 21.021,-19.538 34.246,-22.917c-25.687,17.65 -24.012,49.254 -32.154,75.546c-2.592,9.708 -7.096,18.666 -9.35,28.641l0.654,0.525c4.275,-11.283 11.784,-21.916 21.163,-31.108c18.246,-16.837 45.216,-27.333 54.146,-52.237c-0.396,34.616 -29.275,61.825 -56.9,81.274c-11.388,10.005 -22.388,21.392 -28.646,34.23c-0.629,-8.725 1.283,-17.496 0.658,-26.842c-2.987,-30.217 -5.187,-64.704 16.183,-87.112Z" style="fill:#408fdd;fill-rule:nonzero;"/><path d="M34.105,194.24c-0.783,-30.604 11.913,-55.616 29.825,-78.421c0.525,-0.262 0.892,-0.783 1.571,-0.65c-19.717,29.95 -3.404,67.684 -4.317,101.746l-2.595,34.883c0.391,0.234 0.391,1.28 1.308,0.888c1.154,-3.875 1.412,-8.042 2.2,-12.042c4.637,-28.129 29.062,-48.075 50.404,-67.533c4.558,-5.079 8.588,-10.238 10.921,-16.208c-1.729,14.008 -6.129,28.125 -11.938,41.083c-16.604,32.392 -47.291,58.967 -52.895,96.042c-2.725,-35.53 -26.917,-62.109 -24.484,-99.788Z" style="fill:#408fdd;fill-rule:nonzero;"/><path d="M19.18,237.786c2.2,-9.583 3.9,-19.483 8.067,-28.279c-7.908,40.483 19.321,69.65 28.25,104.737c3.746,13.121 4.662,27.234 10.004,39.533c0.5,0.267 0.917,-0.258 1.233,-0.654c-13.304,-37.279 5.892,-71.9 25.188,-101.091c4.687,-7.909 7.383,-16.713 9.712,-25.792c2.067,16.863 -2.2,36.292 -4.662,53.804c-4.683,22.288 -11.675,43.417 -17.775,65.046c-4.008,13.508 -2.958,28.75 -0.892,42.917l-1.937,-1.571c-14.142,-26.054 -42.134,-46.4 -50.459,-74.888c-6.833,-22.7 -11.391,-49.016 -6.729,-73.762Z" style="fill:#408fdd;fill-rule:nonzero;"/><path d="M17.897,316.836c3.117,42.916 49.254,65.591 70.65,101.1c5.05,7.254 9.45,15.312 16.204,21.391c-1.05,-4.558 -5.317,-8.404 -6.887,-13.091c-7.488,-14.9 -10.209,-32.654 -8.405,-50.671c2.067,-21.917 11.259,-42.254 7.75,-65.3c18.805,40.533 13.096,91.096 23.592,135.008c2.75,9.609 8.304,18.167 11.946,27.363c-38.6,-26.321 -91.258,-51.321 -108.379,-99.529c-7.229,-16.605 -8.038,-37.184 -6.471,-56.271Z" style="fill:#408fdd;fill-rule:nonzero;"/><path d="M40.968,415.369c21.521,48.7 75.433,52.729 111.596,82.4c6.65,5.867 13.62,10.892 21.129,14.4l0.396,-0.392c-8.3,-7.512 -17.913,-16.054 -23.725,-25.791c-21.159,-29.409 -13.717,-70.617 -29.563,-102.275c14.404,17.254 27.496,35.141 36.192,54.7c12.933,31.896 17.879,67.95 47.808,92.062c-32.387,-10.658 -70.329,-7.671 -98.925,-27.625c-31.212,-19.187 -59.071,-51.712 -64.908,-87.479Z" style="fill:#408fdd;fill-rule:nonzero;"/><path d="M96.293,506.227c34.512,39.246 90.912,26.155 136.891,36.425c6.496,0.888 12.442,3.484 19.325,2.434c-5.47,-3.484 -13.091,-3.096 -19.062,-6.234c-36.054,-12.675 -41.342,-51.683 -60.904,-78.004c25.008,16.604 46.008,38.992 69.075,60.675c16.575,14.525 36.525,21.234 57.554,25.496c-5.054,1.833 -11.679,1.338 -17.1,2.754c-37.758,9.296 -79.733,24.479 -119.767,10.896c-26.054,-8.2 -52.916,-28.808 -66.012,-54.442Z" style="fill:#408fdd;fill-rule:nonzero;"/><path d="M564.789,597.715c-38.913,14.537 -79.5,-0.654 -109.88,-23.696c-12.3,-7.804 -23.141,-19.063 -39.062,-18.071c-5.758,-0.1 -11.313,0.163 -16.229,1.571c29.533,13.75 56.921,32.679 82.004,56.9c-4.242,4.821 -9.688,9.346 -14.871,13.487c-24.142,-26.025 -50.904,-51.062 -80.854,-65.7c-5.867,0.767 -11.446,4.271 -16.738,7.125c-24.379,15.425 -48.491,35.246 -66.608,59.517l-15.583,-12.858c24.875,-25.129 52.366,-44.721 82.454,-58.7c-29.558,-9.379 -48.854,15.391 -71.296,27.991c-26.158,18.271 -63.762,26.834 -95.367,14.242c-16.995,-6.442 -33.462,-15.95 -45.766,-31.371c24.875,17.129 61.921,18.929 90.2,7.809c37.941,-16.471 77.375,-37.346 123.146,-27.367c7.125,0.129 14.087,7.254 20.812,1.179c34.021,-8.825 72.508,-2.754 101.788,12.8l30.162,12.071c28.071,10.396 64.308,7.521 88.346,-9.575c-12.359,15.392 -29.225,26.412 -46.658,32.646Z" style="fill:#408fdd;fill-rule:nonzero;"/><path d="M606.468,557.519c-43.675,16.5 -87.613,-3.742 -129.45,-10.5l-8.067,-1.017l0,-0.266c20.004,-4.525 39.433,-10.496 55.354,-24.871c23.459,-22.542 44.354,-45.746 70.384,-63.525c-19.325,24.771 -21.367,60.017 -53.263,75.962c-7.904,5.159 -17.854,6.075 -26.025,9.975c11.629,0.263 22.258,-3.9 33.779,-5.054c42.784,-6.725 91.746,0.163 121.754,-36.291c-11.154,25.4 -39.066,46.662 -64.466,55.587Z" style="fill:#408fdd;fill-rule:nonzero;"/><path d="M685.809,434.669c-17.229,11.283 -34.721,21.758 -51.321,34.588l0,-1.571c25.392,-42.213 12.988,-100.159 28.646,-146.583l5.813,-15.555c-3.246,28.934 9.321,53.417 8.429,82.459c-0.892,17.516 -6.596,33.066 -15.813,47.054l1.571,-0c12.413,-16.313 22.154,-33.7 36.659,-49.254c22.575,-21.763 45.508,-44.071 48.491,-74.259c7.65,50.404 -20.633,94.575 -62.475,123.121Z" style="fill:#408fdd;fill-rule:nonzero;"/><path d="M616.738,155.357c-42.524,-90.467 -135.845,-147.863 -233.595,-148.046c-42.759,0.813 -82.034,10.267 -117.934,28.021c-63.912,30.475 -116.129,96.671 -133.512,162.287c-28.621,110.421 10.108,222.279 104.867,287.192c68.158,48.883 176.825,58.233 253.333,20.762c67.817,-28.541 126.208,-98.633 143.962,-168c17.492,-58.7 9.792,-130.266 -17.121,-182.216Zm12.2,91.487c0.63,4.429 -0.42,9.746 2.038,13.354l-37.333,0.63c-0.892,0.683 -1.942,1.179 -3.096,1.179l1.054,-1.546c-0.792,-29.275 -8.433,-55.583 -19.687,-80.492c-0.425,-11.154 -11.217,-18.666 -15.821,-28.358c-8.329,-5.733 -10.788,-15.837 -20.267,-20.892c-1.779,-1.937 -2.567,-5.183 -5.292,-5.816l4.4,-0.913c8.959,-9.191 18.7,-18.121 25.763,-27.729c38.704,43.546 63.312,92.929 68.241,150.583Zm-105.524,140.246c-3.246,-3.092 -3.346,-9.192 -9.059,-9.058c-1.937,-0.263 -2.779,1.57 -2.779,3.116c-0.1,0.884 0.263,1.938 -0.362,2.563l-11.784,-10.342c5.554,-2.879 9.688,-10.371 13.979,-15.812c10.896,-15.188 17.234,-32.159 22.73,-49.517c1.783,1.438 4.141,1.571 5.916,0.392c1.729,-1.417 2.096,-4.163 0.946,-5.967l-4.35,-4.662c0.575,-7.775 2.671,-15.421 1.833,-23.359l2.88,0.917c12.045,-0.104 24.358,0.65 36.029,-0.496l-1.834,2.067c-2.933,46.791 -19.266,89.029 -51.95,123.512c1.421,-4.533 -2.879,-8.404 -2.195,-13.354Zm-30.475,37.342c-6.759,-6.213 4.183,-11.417 6.225,-17.159c-1.15,-6.046 -7.905,-9.425 -13.088,-11.121c-2.462,-1.387 -1.629,-4.533 -1.833,-6.575c2.358,-2.383 4.712,-4.295 5.862,-7.412l0.892,2.467l15.921,16.47c-0,3.767 0.679,6.984 4.296,8.688c1.775,0.758 3.77,-0.788 5.337,-0.288l-0.887,0c-6.913,7.542 -15.346,13.221 -23.096,19.35l-1.834,2.434c-0.837,-2.563 4.4,-3.767 2.205,-6.854Zm-72.434,-200.888c-2.091,0.784 -4.291,2.2 -6.596,1.15c-2.254,-2.329 -5.079,-5.446 -8.691,-5.841c-2.463,0.662 -4.188,3.775 -7.121,2.095c4.658,-5.075 12.933,-5.991 16.446,-12.987c0.991,-3.35 1.933,-6.858 1.566,-10.342c-1.308,-1.571 -3.245,-2.979 -4.975,-1.571c-2.562,4.296 -8.483,5.184 -11.254,9.746l-9.325,-3.146c-1.575,-8.512 0.596,-19.429 -1.862,-26.816c4.946,1.808 10.396,1.941 15.587,3.121c13.246,3.375 25.288,9.583 36.967,16.833c-2.725,0.917 -5.6,4.167 -7.8,6.233c-0.108,2.329 2.458,1.675 3.508,3.088l2.459,-0.892c-3.98,10.108 -17.488,8.542 -18.909,19.329Zm10.846,107.325c-0.212,4.663 -6.858,4.529 -9.954,7.754c-1.783,-0.654 -0.417,-2.462 -0,-3.483c3.096,-2.462 5.446,-4.946 9.954,-4.271Zm73.371,-124.191c4.292,0.916 6.854,5.975 11.2,6.891c3.825,5.946 5.287,12.804 7.179,19.554c-3.458,3.905 -3.721,12.571 -11.262,11.13c-1.784,-4.138 3.408,-6.571 2.204,-10.471c1.358,-1.05 3.404,-1.546 3.821,-3.513c-0.317,-3.896 -5.238,-3.112 -6.025,-7.121c-1.517,-2.2 -4.13,-1.962 -6.18,-2.72c-4.975,-2.334 -9.583,9.95 -10.891,0.233c1.571,-1.283 2.462,-3.217 1.308,-4.921c-4.296,-2.333 -4.662,-8.275 -9.371,-10.633c-6.337,0.158 -12.15,-2.696 -18.383,-1.279c-3.983,-0.917 -8.692,-3.613 -11.783,0.65c-0.263,3.25 -1.992,5.945 -2.459,9.091c-1.471,-0.812 -2.725,-2.233 -3.512,-3.775c11.421,-12.725 24.454,-25.554 36.4,-37.966l0.675,-1.571c5.971,7.383 12.941,14.771 17.341,23.066c1.042,4.925 -8.541,10.109 -0.262,13.355Zm22.671,68.683c-2.196,7.021 -1.938,15.058 -3.721,22.179c-0.367,1.179 -0.367,2.567 -1.204,3.771c-2.196,-4.4 -3.979,-10.267 -9.059,-12.858c-4.291,-2.305 -1.57,-8.146 -5.55,-10.892l-4.029,-4.008c6.854,2.987 15.813,2.229 23.563,1.808Zm-54.042,-110.029c-6.812,7.779 -15.658,14.771 -21.475,22.941l-0.942,-2.729c-16.966,-13.846 -36.654,-20.737 -58.208,-23.691l-3.346,0.6l0.259,-35.088l-1.313,-2.879c14.325,2.225 28.625,4.163 41.767,8.825c16.812,5.967 32.362,15.058 46.662,26.946l3.138,1.304l-6.542,3.771Zm-35.504,191.962c11.417,1.042 22.15,3.483 32.412,7.354c2.567,0 5.446,-0.233 7.121,-2.171c-0.625,-4.291 4.559,-6.204 4.034,-10.499c2.2,-3.613 0.629,-8.692 3.72,-11.809c0.417,-4.533 -0.212,-9.587 -3.091,-13.066c-2.829,-1.834 -5.392,0.495 -8.171,0.887c-3.088,2.333 -1.938,9.217 -7.333,7.775c-1.305,1.808 -3.821,1.808 -5.605,1.313c-0.412,-0.684 -1.304,-0.788 -1.041,-1.546c3.875,-1.992 10.787,-0.654 11.258,-6.884c2.879,-2.491 7.275,-1.416 10,-4.4c1.938,-3.145 2.829,-5.837 5.554,-8.72c0.263,-1.284 0.788,-2.567 0.675,-3.98c0.792,1.78 0.792,4.296 3.092,5.288c2.987,0.921 4.296,-1.542 5.604,-3.508c-0.15,-1.021 0.629,-2.567 1.783,-1.546c3.246,2.596 7.8,0.366 11.571,0.683c3.196,-1.05 6.709,-1.704 10.213,-1.833c-3.092,14.271 -10.367,27.596 -18.959,40.062c-3.191,3.975 -6.075,8.271 -9.687,12.175c-1.1,-2.987 -1.046,-7.017 -3.617,-9.746l-1.566,0.396c-2.096,4.138 -6.234,7.65 -5.709,12.442c-3.087,4.946 -10.891,0.783 -15.554,3.379c-5.55,1.696 -8.537,-3.746 -12.987,-4.925c-4.875,-2.071 -10.58,-2.2 -15.238,-4.663c-0.162,-1.154 0.525,-2.095 1.521,-2.458Zm-24.25,-334.141c51.9,7.121 98.4,27.729 137.575,65.071l-4.454,1.783c-7.125,7.667 -15.392,13.9 -19.588,22.725c-0.471,-2.463 -4.133,-4.163 -5.287,-6.496c-0.784,-7.125 -7.596,-13.879 -13.721,-17.512c-5.079,-0.925 -6.233,-8.542 -12.463,-6.209c-5.187,-4.396 -11.679,-1.154 -16.708,1.284l0,0.654c-24.608,-14.009 -52.108,-22.675 -81.796,-24.875c-1.466,-0 -2.2,1.146 -3.746,0.891c1.546,-1.025 0.742,-4.166 0.638,-5.92c-0.821,-1.338 -2.342,-2.884 -4.15,-1.859c-0.654,0.917 -1.204,1.963 -1.204,3.117c0.812,-11.521 1.204,-25.533 -0.367,-35.767c7.883,2.459 16.996,1.675 25.271,3.113Zm-9.95,51.975c22.725,2.725 42.783,8.933 62.892,18.016c2.937,4.53 8.804,6.725 9.537,12.438c-2.933,7.879 10.525,7.779 4.446,15.842c-0.417,2.566 1.783,3.983 2.675,5.941c0.783,2.2 -0.367,5.554 2.25,6.863c4.658,1.021 6.6,-5.188 11.258,-3.509c6.075,4.4 7.388,11.65 7.388,18.409c0.783,4.266 4.396,7.145 8.166,8.691c7.646,-2.329 3.984,6.234 9.321,8.429c5.971,0.734 8.954,8.409 15.554,7.78c5.867,4.395 9.059,10.866 14.3,15.816c-0.162,1.154 0.467,2.196 1.517,2.592c3.142,0.758 5.079,-1.438 7.746,-1.542c10.004,20.442 14.929,43.121 16.862,67.104l1.209,2.463c-12.567,-0.129 -25.134,0.133 -38.017,0.917c-0.371,-7.409 0.158,-15.159 -3.983,-21.13c2.096,-3.9 2.458,-8.954 2.196,-13.354c-0.78,-1.937 -2.509,-0.233 -3.346,0c-4.142,4.029 -4.721,9.584 -6.863,14.3c-3.558,5.025 -4.083,12.642 -1.987,18.379l1.566,1.571l-14.5,-0.316c3.45,-2.2 -2.987,-6.442 0.521,-9.975l6.596,-1.284c2.046,-4.791 7.225,-8.304 7.121,-13.983c2.825,-3.483 5.45,-8.008 3.404,-12.725c-3.142,-7.121 5.292,-14.375 -1.204,-21.129c0.625,-1.913 -0.779,-4.767 -3.142,-4.663c-2.041,-0.629 -4.4,0 -4.4,-2.829c1.204,-1.804 4.192,-3.642 3.509,-6.462c-1.567,-1.967 -4.03,-0.263 -5.967,-0.396c-0.525,-3.142 5.337,-6.496 0.262,-9.346c-3.512,-0.633 -5.45,3.767 -8.958,2.221c-1.521,-1.304 -2.667,-3.509 -1.254,-5.338l-7.804,-9.587c-0.784,-0.917 -2.988,0.504 -3.088,-1.279c0.525,-7.646 -8.8,-11.938 -9.325,-19.563c-2.875,-2.612 -0.575,-7.408 -4.291,-9.608c-2.096,-1.571 -4.4,-3.35 -7.225,-2.2c-3.246,-4.683 -7.021,-9.221 -11.471,-13.354c-1.259,-0.392 -2.196,0.391 -2.779,1.179c0.583,3.617 4.875,5.683 4.612,9.687c-0.629,-0.129 -1.154,0 -1.521,0.525c0.525,3.771 3.517,6.759 5.921,9.35c-20.321,-15.687 -44.304,-23.858 -69.704,-27.991c-4.925,-0.134 -10.008,-2.2 -14.954,-0.529c1.204,-11.255 0.425,-24.113 0.687,-36.188l-1.316,-2.454c4.82,2.587 10.033,1.437 15.583,2.221Zm-21.788,149.304l2.175,1.179c-2.695,0.133 -5.787,-1.571 -8.116,0.367c-1.6,1.179 -0.55,3.25 -0,4.658c4.637,1.833 5.708,9.479 11.887,6.496c2.617,0.55 5.834,1.05 6.725,4.062c3.775,1.388 4.296,8.009 9.379,6.596c-0.262,2.433 -1.05,6.729 1.938,8.642c-0.788,2.196 -3.613,3.141 -3.513,5.996c-0.625,0.754 -1.304,2.062 -0.47,3.116c4.766,0.492 4.504,5.942 6.708,8.9c-1.05,3.8 0.258,7.646 3.504,9.742c-0.521,4.425 -2.462,8.167 -4.396,12.075c-5.029,2.458 -13.354,-3.775 -15.191,5.287c-2.85,3.142 -0.417,10 -5.992,10.234c-10.579,0.812 -20.454,-1.517 -28.621,-7.779c5.313,-2.692 14.404,1.05 16.179,-6.859c1.417,-1.15 1.971,-3.246 1.313,-4.916c2.458,-2.463 3.379,-5.713 4.662,-8.671c-1.912,-1.967 -1.05,-3.009 -0.604,-5.313c-5.371,-5.45 -12.567,-2.596 -19.325,-2.462c-4.054,2.304 -0.183,6.725 -2.879,9.554c-5.188,0.654 -5.313,5.708 -8.958,8.692c-2.067,-0.917 -3.613,-3.746 -3.484,-5.809l0.684,0c-0.288,1.021 0.366,1.934 1.283,2.2c4.896,0.759 3.354,-4.821 4.896,-7.279c0.812,-3.096 8.041,-7.358 2.229,-9.587c-0.288,-1.284 0.758,-2.984 -0.917,-3.771c-1.804,0.787 -4.816,0.787 -5.058,3.512c0.921,2.354 -0,4.688 -2.067,6.234l-1.05,-0c0.396,-1.546 -0.783,-2.596 -1.829,-3.146c-2.933,0.158 -5.421,2.333 -8.408,1.6c-4.163,0.891 -8.821,1.675 -13.088,1.808c-0.5,-2.462 3.375,-1.704 4.163,-4.008c-0.679,-3.904 1.912,-6.229 3.612,-9.088c1.046,-1.021 2.988,-0.658 4.192,-0.258c0.996,1.021 2.037,1.937 3.583,1.567l1.309,-2.225c3.904,2.354 1.704,13.483 9.295,8.666c1.209,-4.766 0.163,-10.471 2.23,-14.871c-1.7,-4.187 2.75,-5.837 4.033,-8.72c4.004,0.42 3.612,-4.113 5.312,-6.209c6.075,-1.8 12.567,-3.241 16.446,-9.712c-1.575,-3.242 -0.529,-7.904 -3.091,-10.5c2.695,-0.888 7.225,-2.304 9.32,-0Zm-5.941,240.45l-3.638,-2.488c-48.233,-2.592 -89.475,-22.312 -125.479,-53.783c5.817,-0.625 8.013,7.125 14.375,5.187c6.992,-0.783 12.438,-6.341 19.846,-5.187c3.617,0.129 8.175,-0 10.371,-3.509c1.154,-3.875 -3.013,-5.833 -3.746,-8.95c24.483,18.3 52.083,29.821 83.583,31.417l3.088,-1.333l-0,34.221l1.6,4.425Zm-135.871,-186.9l-1.967,-3.117c3.934,2.829 7.934,1.963 12.492,1.146c-6.363,2.075 -4.029,9.875 -6.467,14.671c-0.446,2.325 3.088,2.983 2.696,5.312c-3.142,1.546 -3.533,4.925 -4.921,7.359c1.779,-8.663 -1.571,-16.838 -1.833,-25.371Zm-39.25,44.721c-3.508,0.366 -2.592,4.262 -4.058,6.175c0.312,-9.059 -3.717,-17.855 -4.925,-27.071l-2.825,-23.825l-1.575,-2.2c11.42,1.675 23.987,0.6 36.033,0.916l2.85,-1.337c-1.046,5.708 -1.254,14.008 2.854,19.067c-1.412,-1.55 -3.479,-6.105 -6.858,-5.975c-6.625,0.395 -7.121,9.087 -13.746,9.35c-5.446,4.529 -6.208,10.891 -7.383,17.125c2.329,2.433 -1.809,4.891 -0.367,7.775Zm26.446,-60.013l-3.379,-1.312l-35.534,0.629c3.25,-39.642 14.167,-76.063 37.079,-107.567l14.009,-17.75l0.262,-2.462c8.3,9.741 17.492,18.771 27.338,27.333c-25.559,27.5 -38.492,60.437 -41.346,97.354c0.55,1.283 0.129,2.829 1.571,3.775Zm147.075,-151.141c-6.7,-1.438 -13.588,0.866 -20.446,1.55c-28.933,5.941 -55.746,18.275 -77.792,39.404l-0.891,-2.459c-8.671,-8.041 -16.575,-18.145 -26.163,-24.27c8.275,-4.9 15.663,-12.125 23.7,-17.73c30.058,-20.245 63.733,-31.633 101.329,-33.854c-1.283,12.2 -0.233,25.059 0.263,37.359Zm-58.05,195.574c0.104,1.309 1.675,2.488 3.116,1.571c1.413,-1.966 -3.116,-5.341 0.234,-6.491c2.096,2.329 1.05,6.229 2.229,8.925c1.05,1.466 1.417,3.116 1.179,5.083c-3.537,4.262 -8.433,8.037 -10.896,12.667c-2.329,-5.809 -7.537,-10.467 -9.871,-16.413c-3.716,-6.779 -5.679,-14.404 -9.32,-21.129c3.091,3.871 11.416,-0.525 11.416,6.858c0.496,0.392 1.309,0.234 1.913,0.234c1.046,-1.15 1.179,-1.284 2.512,-0.625c0.629,1.283 3.717,1.937 1.284,3.508c0.891,2.692 3.22,5.292 6.204,5.812Zm38.491,101.096l6.209,2.854c-22.521,-5.55 -46.742,-13.354 -66.225,-29.558c-3.35,-1.913 -5.546,-6.342 -9.609,-6.6c9.113,-7.358 18.2,-17.129 25.821,-26.45c3.375,6.204 10.629,9.587 16.204,13.75c9.796,4.529 20.005,12.829 31.475,10.471c-3.562,1.337 -6.833,3.3 -9.687,6.391c-1.6,3.48 -1.05,8.667 -5.733,10.213c0.287,7.408 6.887,13.617 11.545,18.929Zm-82.662,-45.742l-1.313,-8.037c-7.379,-6.629 -5.079,-18.046 -6.229,-26.45c-5.183,-4.137 -1.05,-10.867 -4.633,-15.525c0.075,-7.546 -11.729,-10.133 -8.067,-18.437c-1.441,-2.067 -3.221,-4.788 -1.546,-7.38c2.309,-2.725 7.359,0.288 8.93,-3.745l1.02,-6.892c2.75,-1.567 6.6,1.971 8.042,-1.829c2.617,-6.463 -9.558,-14.375 0.917,-17.75c3.508,-0.371 8.325,-1.154 9.712,3.141c0.813,4.917 2.092,10.209 0.234,15.292c3.408,1.283 0.291,4.292 0.291,6.467c-2.046,0.891 -4.008,2.983 -6.441,2.225c-1.046,-1.704 -2.88,-4.684 -5.367,-4.4c-1.942,2.696 0.808,5.55 0.392,8.641c-0.63,1.834 -0.134,3.905 -1.284,5.313c-0.887,-0.625 -1.833,-1.021 -3.116,-0.883c-2.23,1.15 -0.759,3.504 -0.234,4.916c2.3,1.442 4.004,3.642 6.729,3.775l1.309,-1.575c-0.288,-4.137 1.65,-7.383 1.779,-11.546l3.771,1.967c3.483,16.071 10.762,30.708 19.979,44.463l4.921,4.891c-11.809,10.263 -23.329,22.446 -33.304,33.988l-0,0.262c-0.134,-0.525 -0.55,-2.596 -2.071,-1.833c-1.046,-4.921 7.096,-3.513 5.579,-9.059Zm17.987,-153.337c-3.637,2.071 -6.495,5.713 -8.666,9.088c-3.142,1.937 -7.121,1.804 -9.767,5.316c0,1.413 1.729,3.221 -0.208,4.267c-2.988,2.825 -9.217,-0.783 -10.634,4.658c-0.55,4.796 -6.229,7.513 -5.841,12.838c-3.113,2.062 -2.588,6.096 -2.196,9.316c1.675,2.092 -0.758,5.838 2.196,7.384c-5.05,-0.629 -11.7,-1.413 -16.204,0.683c2.462,-5.842 1.7,-13.121 3.116,-19.329c4.792,-26.808 16.992,-50.4 34.85,-71.821c8.954,8.796 18.542,19.058 28.646,26.708c-7.358,0.288 -7.517,11.155 -15.292,10.892Zm79.996,139.721c-1.862,2.983 -0.425,7.412 -1.312,10.891c-17.254,-2.987 -32.809,-10.112 -46.659,-21.495c7.78,-8.463 18.409,-16.704 23.959,-25.792c0.812,4.138 5.708,6.075 9.083,8.008c6.913,3.092 15.296,7.884 23.15,4.559c-0.654,0.5 -1.154,1.233 -1.783,1.65c2.229,2.196 -1.671,4.558 0.946,6.629c0.52,1.696 -1.7,1.408 -1.834,2.746c1.313,2.329 -0.396,6.437 3.35,7.229c0.942,1.279 0,3.242 -1.516,3.375c-2.617,-0.5 -6.1,-0.629 -7.384,2.2Zm-41.766,-38.883c2.333,-2.334 4.529,-5.159 5.312,-8.43l4.429,2.225c-4.033,0.23 -6.233,4.267 -9.346,6.492l-0.395,-0.287Zm36.187,-105.5c-0.787,-1.83 1.442,-3.767 -0.654,-4.946c-5.971,2.75 -3.746,9.346 -7.8,13.641c-0.658,3.38 -5.058,1.68 -7.1,3.484c-1.6,-2.434 -4.688,-2.334 -6.888,-0.917c-3.087,0 -3.612,-6.337 -6.883,-3.087c-0.867,1.045 -0.367,3.345 -2.829,2.429c-0.525,-0.859 -1.442,-1.017 -2.071,-1.513c-0.129,-1.966 3.25,-1.729 2.071,-4.037c-2.333,-4.163 -7.408,-3.509 -10.5,-6.621l-2.858,-0c15.32,-16.183 34.487,-23.308 55.329,-26.029c-0.263,9.321 -0.992,19.821 1.966,28.225c-3.245,-4.004 -7.779,1.05 -11.783,-0.629Zm10.238,-42.025c-6.755,-1.517 -13.117,1.6 -19.588,2.229c-14.533,3.662 -27.179,11.679 -39.512,20.5c-0.65,1.021 -1.309,1.912 -1.963,2.829c-8.954,-7.908 -17.725,-18.908 -27.625,-25.792c25.058,-20.608 53.55,-34.354 86.488,-36.683l2.2,-1.283c-1.413,12.566 -1.413,26.029 -0,38.2Zm-140.375,-91.721c41.083,-29.538 87.35,-47.317 139.458,-49.383l-1.05,3.608l0.367,31.104l1.179,3.125c-50.559,2.329 -94.575,21.258 -132.438,55.746l-0.654,1.779c-8.696,-9.321 -18.408,-20.083 -28.621,-27.571l-1.204,0c8.067,-4.687 15.054,-12.987 22.963,-18.408Zm-96.434,168c6.621,-53.55 29.404,-100.471 66.346,-141.579l0.892,3.504c8.85,8.696 17.65,17.887 26.079,25.792c-7.25,4.925 -11.546,13.229 -17.333,19.825c-23.25,32.912 -36.446,69.724 -38.934,111.074l0.942,5.08c-12.988,-1.05 -27.129,-1.05 -40.063,-0c1.546,-7.909 0.63,-15.975 2.071,-23.696Zm29.95,151.475c-18.666,-34.617 -29.691,-72.325 -31.783,-113.825l36.029,0.316l3.504,-1.337c-0.521,1.967 -0.258,4.429 -0.391,7.279l-0.259,-0.417c-1.025,0.809 0.784,1.175 0.65,1.963c0.659,13.721 3.121,26.708 6.238,39.433l1.833,2.8c-2.75,-2.433 -3.775,-5.421 -5.867,-8.008c-2.962,0.492 -6.208,1.146 -8.404,3.142c1.413,3.716 -2.333,2.537 -4.033,3.583c-0.525,-0.888 -1.546,-1.938 -2.571,-2.433c-2.746,0.129 -5.6,0.366 -6.75,3.087c0.388,1.942 -1.837,2.858 -2.596,4.404c-0.812,5.863 -2.725,13.454 1.546,18.271c0.129,4.292 2.2,8.175 5.317,10.871c1.308,0.283 1.962,-0.738 2.854,-1.15c3.483,2.591 5.317,8.954 10.496,7.775c1.546,-0.763 1.05,-2.334 1.546,-3.484c2.75,2.721 4.033,8.296 9.087,7.75c1.254,1.309 1.938,3.613 4.004,3.796c5.45,-1.466 3.484,6.209 7.546,8.404c3.088,1.942 4.788,6.625 9.292,4.4l1.575,-1.937c1.462,1.021 0.287,3.637 1.566,5.054c2.2,4.163 6.6,7.121 10.871,8.271c3.767,4.325 7.667,9.375 12.067,12.467l-3.142,1.333l-25.766,26.658c-11.78,-15.95 -25.267,-31.4 -34.459,-48.466Zm182.588,122.854c-52.079,-7.096 -97.696,-29.638 -138.15,-64.65l26.708,-26.834l0.392,-1.575c36.946,35.692 81.671,53.546 132.204,57.03l4.008,-1.021l-1.312,1.962l-0,35.088l1.966,3.141c-8.066,-2.462 -17.516,-1.725 -25.816,-3.141Zm31.391,-146.813c-2.879,0.367 -5.208,0.104 -7.541,-0.916c-1.179,-0.134 -0.759,-1.417 -1.179,-2.2c3.804,0.129 5.608,-4.4 9.637,-3.746c2.329,-2.092 2.721,-5.609 5.917,-6.779c-1.021,-3.35 3.146,-1.184 4.033,-3.088c1.171,-1.054 2.746,-2.204 4.429,-1.287c2.613,3.746 7.904,2.2 10.525,6.437c1.309,0.55 1.671,-0.892 1.517,-1.775l-0,-1.604c4.192,-0.367 6.237,5.579 10.633,1.604c1.046,-0.916 0.838,-2.883 0,-3.775c-0.471,-0.258 -1.158,-0.521 -1.258,-1.175c2.987,-1.416 4.767,4.529 8.383,2.488c2.984,-2.488 5.075,-5.604 9.109,-5.604l0.891,1.204c0.625,7.745 -5.971,12.437 -11.783,15.92c-3.775,1.571 -10.629,1.046 -10.371,7.121c-4.296,3.9 -8.325,-2.329 -13.617,-0.625c-2.462,-1.308 -0.154,-4.925 -3.504,-5.579c-5.446,2.329 -11.941,-2.85 -15.821,3.379Zm9.584,65.696c4.716,1.933 12.725,-1.937 15.296,3.35c-1.417,3.017 -3.775,5.867 -2.83,9.35c1.938,4.821 4.767,11.154 10.892,11.542c1.517,2.046 3.613,2.571 5.704,3.358c-10.416,1.7 -21.571,1.179 -31.125,4.396c1.279,-10.479 0,-21.367 0,-31.996l-1.971,-2.854c1.834,0.262 2.725,1.833 4.034,2.854Zm0.396,82.95l-2.459,1.546c0.913,-13.229 0.913,-27.5 0,-40.667c6.517,2.2 13.375,-0.312 20.234,-0.312l19.85,-3.484c9.795,1.963 16.812,17.884 27.704,8.196c3.766,-4.529 10.366,-4.162 12.725,-10.425c6.333,-2.3 7.908,-8.766 12.412,-12.904c4.296,-12.2 18.013,-14.012 26.446,-22.412c6.125,-5.475 14.142,-10 17.804,-17.155l0.575,3.121l27.388,26.05c-46.292,42 -100.175,65.721 -162.679,68.446Zm237.991,-237.566c-2.467,60.641 -25.033,113.004 -64.679,158.258l-1.046,1.908c-8.166,-8.933 -19.062,-20.579 -28.908,-28.354c5.967,-4.038 10.525,-11.029 15.287,-16.733c24.617,-33.809 39.021,-71.934 41.117,-115.079l-1.312,-3.513l2.204,1.546l36.966,-0.233l1.888,-0.946l-1.517,3.146Z" style="fill:#408fdd;fill-rule:nonzero;"/><path d="M497.859,73.819c-0.104,1.442 0.155,2.7 0.942,3.746c5.446,1.963 6.075,9.871 13.038,8.092c2.095,-2.383 -1.255,-4.846 -0.625,-7.804c-0.892,-2.725 -3.255,-3.9 -5.817,-4.688c-2.717,2.617 -5.079,-2.333 -7.538,0.654Z" style="fill:#408fdd;fill-rule:nonzero;"/><path d="M394.326,51.799c6.858,8.825 18.796,3.875 27.338,2.2c6.233,2.591 12.2,-0.5 16.858,-4.396l-0,-0.946c-4.4,-6.179 -12.721,-7.121 -20.213,-7.75l-18.691,8.062c-1.521,-0.679 -4.509,-1.487 -5.571,0.634c-0.821,0.65 -0,1.566 0.279,2.196Z" style="fill:#408fdd;fill-rule:nonzero;"/></g></g></svg>