<?xml version="1.0" encoding="UTF-8" standalone="no"?>
<!DOCTYPE svg PUBLIC "-//W3C//DTD SVG 1.1//EN" "http://www.w3.org/Graphics/SVG/1.1/DTD/svg11.dtd">
<svg viewBox="0 0 4235 1099" version="1.1" xmlns="http://www.w3.org/2000/svg" xmlns:xlink="http://www.w3.org/1999/xlink" xml:space="preserve" xmlns:serif="http://www.serif.com/" style="fill-rule:evenodd;clip-rule:evenodd;stroke-linejoin:round;stroke-miterlimit:2;">
    <g transform="matrix(1,0,0,1,-4553,-8007)">
        <g id="アートボード4" transform="matrix(1,0,0,1,-0.904563,-0.692083)">
            <rect x="4107.9" y="5382.69" width="6087.74" height="3938.98" style="fill:none;"/>
            <g transform="matrix(1,0,0,1,0.904563,543.831)">
                <g transform="matrix(600,0,0,600,4577.95,7900.55)">
                    <path d="M0.328,-0.036L0.328,-0.046L0.188,-0.055L0.188,-0.655L0.02,-0.655L0.02,-0.645L0.164,-0.636L0.164,-0.036L0.328,-0.036ZM0.125,-0.623L0.125,-0.055L0.02,-0.046L0.02,-0.036L0.148,-0.036L0.148,-0.62L0.125,-0.623ZM0.328,-0.645L0.328,-0.655L0.204,-0.655L0.204,-0.071L0.228,-0.068L0.228,-0.636L0.328,-0.645ZM0.02,-0L0.328,-0L0.328,-0.02L0.02,-0.02L0.02,-0ZM0.328,-0.691L0.02,-0.691L0.02,-0.671L0.328,-0.671L0.328,-0.691Z" style="fill-rule:nonzero;"/>
                </g>
                <g transform="matrix(600,0,0,600,4786.15,7900.55)">
                    <path d="M0.055,-0.367C0.055,-0.271 0.131,-0.244 0.201,-0.218C0.26,-0.196 0.316,-0.176 0.316,-0.118C0.316,-0.111 0.316,-0.1 0.306,-0.079C0.321,-0.093 0.332,-0.122 0.332,-0.145C0.332,-0.193 0.279,-0.212 0.223,-0.234C0.155,-0.259 0.078,-0.289 0.078,-0.374C0.078,-0.445 0.133,-0.487 0.226,-0.487C0.323,-0.487 0.379,-0.446 0.379,-0.394C0.379,-0.365 0.363,-0.345 0.34,-0.345C0.325,-0.345 0.312,-0.352 0.312,-0.372C0.312,-0.385 0.317,-0.397 0.317,-0.397L0.3,-0.412C0.299,-0.411 0.289,-0.396 0.289,-0.373C0.289,-0.334 0.319,-0.323 0.34,-0.323C0.374,-0.323 0.4,-0.353 0.4,-0.395C0.4,-0.46 0.334,-0.503 0.227,-0.503C0.131,-0.503 0.055,-0.464 0.055,-0.367ZM0.1,-0.143C0.087,-0.143 0.078,-0.13 0.078,-0.111C0.078,-0.052 0.162,-0.021 0.229,-0.021C0.306,-0.021 0.371,-0.064 0.371,-0.142C0.371,-0.221 0.302,-0.247 0.236,-0.272C0.174,-0.295 0.116,-0.317 0.116,-0.378C0.116,-0.436 0.168,-0.457 0.22,-0.457C0.284,-0.457 0.334,-0.43 0.334,-0.399C0.334,-0.388 0.329,-0.383 0.329,-0.375C0.329,-0.371 0.329,-0.361 0.34,-0.361C0.351,-0.361 0.361,-0.376 0.361,-0.394C0.361,-0.444 0.293,-0.473 0.221,-0.473C0.154,-0.473 0.094,-0.445 0.094,-0.374C0.094,-0.302 0.158,-0.277 0.223,-0.253C0.288,-0.23 0.347,-0.207 0.347,-0.142C0.347,-0.086 0.305,-0.037 0.233,-0.037C0.176,-0.037 0.106,-0.066 0.106,-0.106C0.106,-0.116 0.111,-0.122 0.111,-0.13C0.111,-0.134 0.111,-0.143 0.1,-0.143ZM0.387,-0.146C0.387,-0.063 0.324,-0.007 0.223,-0.007C0.135,-0.007 0.06,-0.049 0.06,-0.11C0.06,-0.139 0.076,-0.159 0.1,-0.159C0.115,-0.159 0.128,-0.151 0.128,-0.132C0.128,-0.12 0.123,-0.107 0.123,-0.107L0.14,-0.092C0.142,-0.094 0.15,-0.11 0.15,-0.132C0.15,-0.17 0.121,-0.181 0.1,-0.181C0.065,-0.181 0.04,-0.15 0.04,-0.109C0.04,-0.037 0.118,0.009 0.22,0.009C0.332,0.009 0.413,-0.045 0.413,-0.147C0.413,-0.25 0.329,-0.282 0.256,-0.307C0.199,-0.327 0.148,-0.345 0.148,-0.391C0.148,-0.4 0.15,-0.417 0.154,-0.427C0.143,-0.419 0.132,-0.396 0.132,-0.376C0.132,-0.329 0.191,-0.31 0.239,-0.292C0.312,-0.265 0.387,-0.236 0.387,-0.146Z" style="fill-rule:nonzero;"/>
                </g>
                <g transform="matrix(600,0,0,600,5207.95,7900.55)">
                    <path d="M0.31,-0.032C0.287,-0.015 0.267,-0.004 0.228,-0.004C0.16,-0.004 0.121,-0.036 0.121,-0.127L0.121,-0.465L0.013,-0.465L0.013,-0.442L0.097,-0.442L0.097,-0.127C0.097,-0.022 0.147,0.013 0.222,0.013C0.271,0.013 0.3,-0.003 0.315,-0.014L0.31,-0.032ZM0.306,-0.465L0.176,-0.465L0.176,-0.127C0.176,-0.05 0.205,-0.025 0.242,-0.025C0.271,-0.025 0.295,-0.041 0.306,-0.049L0.301,-0.067C0.285,-0.054 0.262,-0.044 0.243,-0.044C0.219,-0.044 0.2,-0.062 0.2,-0.125L0.2,-0.442L0.306,-0.442L0.306,-0.465ZM0.146,-0.662L0.137,-0.521L0.137,-0.127C0.137,-0.057 0.163,-0.029 0.204,-0.021C0.173,-0.039 0.16,-0.074 0.16,-0.127L0.16,-0.662L0.146,-0.662ZM0.176,-0.662L0.176,-0.479L0.306,-0.479L0.306,-0.503L0.2,-0.503L0.2,-0.662L0.176,-0.662ZM0.013,-0.479L0.121,-0.479L0.121,-0.503L0.013,-0.493L0.013,-0.479Z" style="fill-rule:nonzero;"/>
                </g>
                <g transform="matrix(600,0,0,600,5411.95,7900.55)">
                    <path d="M0.166,-0.705L0.166,-0.43L0.19,-0.466L0.19,-0.725L0.012,-0.715L0.012,-0.705L0.166,-0.705ZM0.166,-0.065L0.19,-0.062L0.19,-0.242C0.19,-0.379 0.245,-0.442 0.332,-0.442C0.404,-0.442 0.439,-0.394 0.439,-0.284L0.439,-0.031L0.578,-0.031L0.578,-0.04L0.463,-0.049L0.463,-0.274C0.463,-0.407 0.422,-0.462 0.334,-0.462C0.241,-0.462 0.166,-0.404 0.166,-0.242L0.166,-0.065ZM0.479,-0.065L0.503,-0.062L0.503,-0.275C0.503,-0.419 0.453,-0.498 0.328,-0.498C0.23,-0.498 0.172,-0.452 0.166,-0.366C0.191,-0.442 0.248,-0.478 0.332,-0.478C0.442,-0.478 0.479,-0.404 0.479,-0.278L0.479,-0.065ZM0.012,-0.691L0.012,-0.671L0.128,-0.671L0.128,-0.031L0.246,-0.031L0.246,-0.04L0.149,-0.049L0.149,-0.691L0.012,-0.691ZM0.011,-0.04L0.011,-0.031L0.111,-0.031L0.111,-0.655L0.087,-0.655L0.087,-0.049L0.011,-0.04ZM0.325,-0.04L0.325,-0.031L0.424,-0.031L0.424,-0.277C0.424,-0.347 0.413,-0.392 0.385,-0.413C0.401,-0.38 0.4,-0.328 0.4,-0.284L0.4,-0.049L0.325,-0.04ZM0.578,0.005L0.578,-0.015L0.325,-0.015L0.325,0.005L0.578,0.005ZM0.011,0.005L0.246,0.005L0.246,-0.015L0.011,-0.015L0.011,0.005Z" style="fill-rule:nonzero;"/>
                </g>
                <g transform="matrix(600,0,0,600,5764.15,7900.55)">
                    <path d="M0.129,-0.627C0.129,-0.618 0.135,-0.611 0.144,-0.611C0.152,-0.611 0.16,-0.617 0.16,-0.627C0.16,-0.637 0.152,-0.643 0.144,-0.643C0.135,-0.643 0.129,-0.636 0.129,-0.627ZM0.02,-0.469L0.02,-0.449L0.135,-0.449L0.135,-0.036L0.272,-0.036L0.272,-0.045L0.156,-0.054L0.156,-0.469L0.02,-0.469ZM0.118,-0.036L0.118,-0.434L0.094,-0.434L0.094,-0.054L0.019,-0.045L0.019,-0.036L0.118,-0.036ZM0.173,-0.483L0.173,-0.07L0.198,-0.067L0.198,-0.503L0.02,-0.493L0.02,-0.483L0.173,-0.483ZM0.144,-0.595C0.126,-0.595 0.112,-0.608 0.112,-0.627C0.112,-0.646 0.126,-0.659 0.144,-0.659C0.162,-0.659 0.175,-0.645 0.175,-0.627C0.175,-0.609 0.162,-0.595 0.144,-0.595ZM0.019,-0.02L0.019,-0L0.272,-0L0.272,-0.02L0.019,-0.02ZM0.144,-0.68C0.115,-0.68 0.091,-0.658 0.091,-0.627C0.091,-0.596 0.115,-0.574 0.145,-0.574C0.175,-0.574 0.197,-0.597 0.197,-0.627C0.197,-0.656 0.175,-0.68 0.144,-0.68Z" style="fill-rule:nonzero;"/>
                </g>
                <g transform="matrix(600,0,0,600,5939.95,7900.55)">
                    <path d="M0.055,-0.367C0.055,-0.271 0.131,-0.244 0.201,-0.218C0.26,-0.196 0.316,-0.176 0.316,-0.118C0.316,-0.111 0.316,-0.1 0.306,-0.079C0.321,-0.093 0.332,-0.122 0.332,-0.145C0.332,-0.193 0.279,-0.212 0.223,-0.234C0.155,-0.259 0.078,-0.289 0.078,-0.374C0.078,-0.445 0.133,-0.487 0.226,-0.487C0.323,-0.487 0.379,-0.446 0.379,-0.394C0.379,-0.365 0.363,-0.345 0.34,-0.345C0.325,-0.345 0.312,-0.352 0.312,-0.372C0.312,-0.385 0.317,-0.397 0.317,-0.397L0.3,-0.412C0.299,-0.411 0.289,-0.396 0.289,-0.373C0.289,-0.334 0.319,-0.323 0.34,-0.323C0.374,-0.323 0.4,-0.353 0.4,-0.395C0.4,-0.46 0.334,-0.503 0.227,-0.503C0.131,-0.503 0.055,-0.464 0.055,-0.367ZM0.1,-0.143C0.087,-0.143 0.078,-0.13 0.078,-0.111C0.078,-0.052 0.162,-0.021 0.229,-0.021C0.306,-0.021 0.371,-0.064 0.371,-0.142C0.371,-0.221 0.302,-0.247 0.236,-0.272C0.174,-0.295 0.116,-0.317 0.116,-0.378C0.116,-0.436 0.168,-0.457 0.22,-0.457C0.284,-0.457 0.334,-0.43 0.334,-0.399C0.334,-0.388 0.329,-0.383 0.329,-0.375C0.329,-0.371 0.329,-0.361 0.34,-0.361C0.351,-0.361 0.361,-0.376 0.361,-0.394C0.361,-0.444 0.293,-0.473 0.221,-0.473C0.154,-0.473 0.094,-0.445 0.094,-0.374C0.094,-0.302 0.158,-0.277 0.223,-0.253C0.288,-0.23 0.347,-0.207 0.347,-0.142C0.347,-0.086 0.305,-0.037 0.233,-0.037C0.176,-0.037 0.106,-0.066 0.106,-0.106C0.106,-0.116 0.111,-0.122 0.111,-0.13C0.111,-0.134 0.111,-0.143 0.1,-0.143ZM0.387,-0.146C0.387,-0.063 0.324,-0.007 0.223,-0.007C0.135,-0.007 0.06,-0.049 0.06,-0.11C0.06,-0.139 0.076,-0.159 0.1,-0.159C0.115,-0.159 0.128,-0.151 0.128,-0.132C0.128,-0.12 0.123,-0.107 0.123,-0.107L0.14,-0.092C0.142,-0.094 0.15,-0.11 0.15,-0.132C0.15,-0.17 0.121,-0.181 0.1,-0.181C0.065,-0.181 0.04,-0.15 0.04,-0.109C0.04,-0.037 0.118,0.009 0.22,0.009C0.332,0.009 0.413,-0.045 0.413,-0.147C0.413,-0.25 0.329,-0.282 0.256,-0.307C0.199,-0.327 0.148,-0.345 0.148,-0.391C0.148,-0.4 0.15,-0.417 0.154,-0.427C0.143,-0.419 0.132,-0.396 0.132,-0.376C0.132,-0.329 0.191,-0.31 0.239,-0.292C0.312,-0.265 0.387,-0.236 0.387,-0.146Z" style="fill-rule:nonzero;"/>
                </g>
                <g transform="matrix(600,0,0,600,6361.75,7900.55)">
                    <path d="M0.129,-0.627C0.129,-0.618 0.135,-0.611 0.144,-0.611C0.152,-0.611 0.16,-0.617 0.16,-0.627C0.16,-0.637 0.152,-0.643 0.144,-0.643C0.135,-0.643 0.129,-0.636 0.129,-0.627ZM0.02,-0.469L0.02,-0.449L0.135,-0.449L0.135,-0.036L0.272,-0.036L0.272,-0.045L0.156,-0.054L0.156,-0.469L0.02,-0.469ZM0.118,-0.036L0.118,-0.434L0.094,-0.434L0.094,-0.054L0.019,-0.045L0.019,-0.036L0.118,-0.036ZM0.173,-0.483L0.173,-0.07L0.198,-0.067L0.198,-0.503L0.02,-0.493L0.02,-0.483L0.173,-0.483ZM0.144,-0.595C0.126,-0.595 0.112,-0.608 0.112,-0.627C0.112,-0.646 0.126,-0.659 0.144,-0.659C0.162,-0.659 0.175,-0.645 0.175,-0.627C0.175,-0.609 0.162,-0.595 0.144,-0.595ZM0.019,-0.02L0.019,-0L0.272,-0L0.272,-0.02L0.019,-0.02ZM0.144,-0.68C0.115,-0.68 0.091,-0.658 0.091,-0.627C0.091,-0.596 0.115,-0.574 0.145,-0.574C0.175,-0.574 0.197,-0.597 0.197,-0.627C0.197,-0.656 0.175,-0.68 0.144,-0.68Z" style="fill-rule:nonzero;"/>
                </g>
                <g transform="matrix(600,0,0,600,6537.55,7900.55)">
                    <path d="M0.175,-0.07L0.199,-0.067L0.199,-0.247C0.199,-0.384 0.254,-0.447 0.34,-0.447C0.413,-0.447 0.448,-0.402 0.448,-0.299L0.448,-0.036L0.587,-0.036L0.587,-0.045L0.472,-0.054L0.472,-0.289C0.472,-0.415 0.431,-0.467 0.342,-0.467C0.25,-0.467 0.175,-0.409 0.175,-0.247L0.175,-0.07ZM0.488,-0.07L0.512,-0.067L0.512,-0.29C0.512,-0.428 0.462,-0.503 0.336,-0.503C0.238,-0.503 0.181,-0.457 0.175,-0.371C0.2,-0.447 0.257,-0.483 0.34,-0.483C0.451,-0.483 0.488,-0.413 0.488,-0.293L0.488,-0.07ZM0.011,-0.469L0.011,-0.449L0.137,-0.449L0.137,-0.036L0.255,-0.036L0.255,-0.045L0.158,-0.054L0.158,-0.469L0.011,-0.469ZM0.01,-0.045L0.01,-0.036L0.12,-0.036L0.12,-0.434L0.096,-0.434L0.096,-0.054L0.01,-0.045ZM0.334,-0.045L0.334,-0.036L0.433,-0.036L0.433,-0.292C0.433,-0.355 0.42,-0.398 0.394,-0.418C0.408,-0.388 0.409,-0.338 0.409,-0.299L0.409,-0.054L0.334,-0.045ZM0.587,-0L0.587,-0.02L0.334,-0.02L0.334,-0L0.587,-0ZM0.01,-0L0.255,-0L0.255,-0.02L0.01,-0.02L0.01,-0ZM0.011,-0.493L0.011,-0.483L0.158,-0.483L0.158,-0.503L0.011,-0.493Z" style="fill-rule:nonzero;"/>
                </g>
                <g transform="matrix(600,0,0,600,6895.15,7900.55)">
                    <path d="M0.154,-0.691L0.016,-0.691L0.016,-0.671L0.131,-0.671L0.131,-0.036L0.25,-0.036L0.25,-0.045L0.154,-0.054L0.154,-0.691ZM0.015,-0.036L0.115,-0.036L0.115,-0.655L0.091,-0.655L0.091,-0.054L0.015,-0.045L0.015,-0.036ZM0.016,-0.705L0.17,-0.705L0.17,-0.205L0.194,-0.228L0.194,-0.725L0.016,-0.715L0.016,-0.705ZM0.559,-0.457L0.452,-0.457L0.318,-0.325L0.503,-0.036L0.583,-0.036L0.583,-0.046L0.517,-0.055L0.343,-0.323L0.46,-0.438L0.559,-0.447L0.559,-0.457ZM0.559,-0.493L0.436,-0.493L0.21,-0.271L0.21,-0.245L0.444,-0.473L0.559,-0.473L0.559,-0.493ZM0.307,-0.261L0.452,-0.036L0.482,-0.036L0.324,-0.278L0.307,-0.261ZM0.194,-0.176L0.315,-0.294L0.305,-0.311L0.17,-0.181L0.17,-0.07L0.194,-0.067L0.194,-0.176ZM0.583,-0.02L0.329,-0.02L0.329,-0L0.583,-0L0.583,-0.02ZM0.384,-0.065L0.41,-0.069L0.293,-0.249L0.276,-0.233L0.384,-0.065ZM0.25,-0.02L0.015,-0.02L0.015,-0L0.25,-0L0.25,-0.02ZM0.293,-0.473L0.393,-0.473L0.415,-0.493L0.293,-0.493L0.293,-0.473ZM0.329,-0.036L0.432,-0.036L0.42,-0.054L0.329,-0.046L0.329,-0.036ZM0.293,-0.447L0.356,-0.438L0.379,-0.457L0.293,-0.457L0.293,-0.447Z" style="fill-rule:nonzero;"/>
                </g>
                <g transform="matrix(600,0,0,600,7400.95,7900.55)">
                    <path d="M0.31,-0.032C0.287,-0.015 0.267,-0.004 0.228,-0.004C0.16,-0.004 0.121,-0.036 0.121,-0.127L0.121,-0.465L0.013,-0.465L0.013,-0.442L0.097,-0.442L0.097,-0.127C0.097,-0.022 0.147,0.013 0.222,0.013C0.271,0.013 0.3,-0.003 0.315,-0.014L0.31,-0.032ZM0.306,-0.465L0.176,-0.465L0.176,-0.127C0.176,-0.05 0.205,-0.025 0.242,-0.025C0.271,-0.025 0.295,-0.041 0.306,-0.049L0.301,-0.067C0.285,-0.054 0.262,-0.044 0.243,-0.044C0.219,-0.044 0.2,-0.062 0.2,-0.125L0.2,-0.442L0.306,-0.442L0.306,-0.465ZM0.146,-0.662L0.137,-0.521L0.137,-0.127C0.137,-0.057 0.163,-0.029 0.204,-0.021C0.173,-0.039 0.16,-0.074 0.16,-0.127L0.16,-0.662L0.146,-0.662ZM0.176,-0.662L0.176,-0.479L0.306,-0.479L0.306,-0.503L0.2,-0.503L0.2,-0.662L0.176,-0.662ZM0.013,-0.479L0.121,-0.479L0.121,-0.503L0.013,-0.493L0.013,-0.479Z" style="fill-rule:nonzero;"/>
                </g>
                <g transform="matrix(600,0,0,600,7604.95,7900.55)">
                    <path d="M0.01,-0L0.289,-0L0.289,-0.02L0.01,-0.02L0.01,-0ZM0.011,-0.493L0.011,-0.483L0.158,-0.483L0.158,-0.503L0.011,-0.493ZM0.366,-0.367C0.399,-0.367 0.417,-0.392 0.417,-0.424C0.417,-0.47 0.379,-0.503 0.32,-0.503C0.256,-0.503 0.185,-0.465 0.175,-0.363C0.201,-0.445 0.256,-0.483 0.319,-0.483C0.365,-0.483 0.394,-0.461 0.394,-0.424C0.394,-0.404 0.386,-0.391 0.365,-0.391C0.348,-0.391 0.335,-0.4 0.334,-0.429L0.311,-0.429C0.313,-0.388 0.336,-0.367 0.366,-0.367ZM0.011,-0.469L0.011,-0.449L0.135,-0.449L0.135,-0.036L0.289,-0.036L0.289,-0.045L0.158,-0.054L0.158,-0.469L0.011,-0.469ZM0.01,-0.045L0.01,-0.036L0.119,-0.036L0.119,-0.434L0.095,-0.434L0.095,-0.054L0.01,-0.045ZM0.316,-0.448C0.366,-0.448 0.341,-0.407 0.364,-0.407C0.374,-0.407 0.378,-0.414 0.378,-0.424C0.378,-0.449 0.347,-0.467 0.313,-0.467C0.249,-0.467 0.174,-0.406 0.174,-0.251L0.174,-0.07L0.198,-0.068L0.198,-0.247C0.198,-0.389 0.255,-0.448 0.316,-0.448Z" style="fill-rule:nonzero;"/>
                </g>
                <g transform="matrix(600,0,0,600,7841.95,7900.55)">
                    <path d="M0.24,-0.232C0.111,-0.232 0.074,-0.185 0.074,-0.126C0.074,-0.083 0.094,-0.043 0.157,-0.026C0.108,-0.046 0.098,-0.086 0.098,-0.118C0.098,-0.176 0.131,-0.22 0.241,-0.217L0.325,-0.215C0.321,-0.107 0.275,-0.046 0.212,-0.046C0.163,-0.046 0.139,-0.083 0.139,-0.12C0.139,-0.151 0.155,-0.177 0.178,-0.193C0.137,-0.185 0.114,-0.16 0.114,-0.12C0.114,-0.071 0.147,-0.026 0.21,-0.026C0.287,-0.026 0.346,-0.092 0.346,-0.232L0.24,-0.232ZM0.15,-0.371C0.15,-0.348 0.133,-0.341 0.12,-0.341C0.1,-0.341 0.084,-0.357 0.084,-0.387C0.084,-0.447 0.146,-0.487 0.234,-0.487C0.341,-0.487 0.401,-0.429 0.401,-0.305L0.401,-0.07L0.425,-0.07L0.425,-0.306C0.425,-0.45 0.346,-0.503 0.232,-0.503C0.127,-0.503 0.063,-0.458 0.063,-0.388C0.063,-0.345 0.088,-0.32 0.119,-0.32C0.138,-0.32 0.171,-0.329 0.171,-0.369C0.171,-0.391 0.162,-0.408 0.162,-0.408L0.145,-0.393C0.147,-0.39 0.15,-0.381 0.15,-0.371ZM0.385,-0.054L0.385,-0.307C0.385,-0.431 0.322,-0.473 0.239,-0.473C0.167,-0.473 0.101,-0.441 0.101,-0.39C0.101,-0.371 0.11,-0.357 0.123,-0.357C0.134,-0.357 0.134,-0.367 0.134,-0.371C0.134,-0.381 0.125,-0.388 0.125,-0.4C0.125,-0.431 0.182,-0.457 0.239,-0.457C0.311,-0.457 0.362,-0.416 0.362,-0.305L0.362,-0.036L0.496,-0.036L0.496,-0.054L0.385,-0.054ZM0.346,-0.248L0.346,-0.264L0.235,-0.264C0.1,-0.264 0.037,-0.21 0.037,-0.122C0.037,-0.039 0.094,0.01 0.193,0.01C0.296,0.01 0.343,-0.043 0.35,-0.12C0.324,-0.037 0.267,-0.01 0.196,-0.01C0.098,-0.01 0.058,-0.062 0.058,-0.125C0.058,-0.193 0.106,-0.248 0.238,-0.248L0.346,-0.248ZM0.362,-0.02L0.362,-0L0.496,-0.01L0.496,-0.02L0.362,-0.02ZM0.323,-0.28L0.346,-0.28L0.346,-0.31C0.346,-0.38 0.32,-0.421 0.287,-0.433C0.306,-0.414 0.323,-0.376 0.323,-0.307L0.323,-0.28Z" style="fill-rule:nonzero;"/>
                </g>
                <g transform="matrix(600,0,0,600,8148.55,7900.55)">
                    <path d="M0.17,0.12L0.194,0.123L0.194,-0.24C0.194,-0.367 0.244,-0.447 0.323,-0.447C0.402,-0.447 0.435,-0.363 0.435,-0.252C0.435,-0.198 0.427,-0.123 0.403,-0.078C0.439,-0.108 0.46,-0.179 0.46,-0.261C0.46,-0.379 0.418,-0.467 0.325,-0.467C0.241,-0.467 0.17,-0.397 0.17,-0.241L0.17,0.12ZM0.207,-0.024C0.241,-0.003 0.283,0.01 0.331,0.01C0.462,0.01 0.544,-0.091 0.544,-0.249C0.544,-0.404 0.467,-0.503 0.334,-0.503C0.238,-0.503 0.176,-0.453 0.17,-0.36C0.195,-0.445 0.253,-0.483 0.334,-0.483C0.47,-0.483 0.519,-0.371 0.519,-0.252C0.519,-0.117 0.455,-0.006 0.331,-0.006C0.279,-0.006 0.239,-0.025 0.208,-0.051L0.207,-0.024ZM0.006,-0.469L0.006,-0.449L0.131,-0.449L0.131,0.155L0.279,0.155L0.279,0.146L0.154,0.136L0.154,-0.469L0.006,-0.469ZM0.005,0.146L0.005,0.155L0.115,0.155L0.115,-0.434L0.091,-0.434L0.091,0.136L0.005,0.146ZM0.208,-0.075C0.237,-0.043 0.286,-0.022 0.336,-0.022C0.446,-0.022 0.503,-0.124 0.503,-0.25C0.503,-0.337 0.477,-0.423 0.406,-0.456C0.458,-0.411 0.476,-0.326 0.476,-0.254C0.476,-0.15 0.438,-0.038 0.333,-0.038C0.281,-0.038 0.232,-0.064 0.208,-0.108L0.208,-0.075ZM0.005,0.171L0.005,0.191L0.279,0.191L0.279,0.171L0.005,0.171ZM0.006,-0.493L0.006,-0.483L0.154,-0.483L0.154,-0.503L0.006,-0.493Z" style="fill-rule:nonzero;"/>
                </g>
                <g transform="matrix(600,0,0,600,8464.15,7900.55)">
                    <path d="M0.255,-0.165C0.251,-0.18 0.249,-0.193 0.249,-0.208C0.249,-0.356 0.383,-0.41 0.383,-0.536C0.383,-0.629 0.312,-0.676 0.231,-0.676C0.13,-0.676 0.082,-0.598 0.082,-0.525C0.082,-0.497 0.09,-0.486 0.099,-0.486C0.112,-0.486 0.112,-0.496 0.112,-0.499C0.112,-0.509 0.106,-0.513 0.106,-0.536C0.106,-0.576 0.139,-0.66 0.232,-0.66C0.292,-0.66 0.361,-0.626 0.361,-0.536C0.361,-0.412 0.226,-0.369 0.226,-0.208C0.226,-0.193 0.227,-0.178 0.231,-0.165L0.255,-0.165ZM0.21,-0.165C0.206,-0.18 0.204,-0.194 0.204,-0.209C0.204,-0.37 0.342,-0.427 0.342,-0.538C0.342,-0.58 0.323,-0.607 0.307,-0.62C0.317,-0.605 0.325,-0.585 0.325,-0.541C0.325,-0.443 0.181,-0.379 0.181,-0.209C0.181,-0.194 0.181,-0.18 0.186,-0.165L0.21,-0.165ZM0.171,-0.62C0.144,-0.6 0.128,-0.569 0.128,-0.538C0.128,-0.518 0.133,-0.51 0.133,-0.499C0.133,-0.475 0.119,-0.466 0.104,-0.466C0.079,-0.466 0.061,-0.482 0.061,-0.525C0.061,-0.615 0.116,-0.692 0.229,-0.692C0.331,-0.692 0.403,-0.635 0.403,-0.539C0.403,-0.438 0.333,-0.373 0.303,-0.32C0.359,-0.364 0.425,-0.441 0.425,-0.537C0.425,-0.652 0.333,-0.709 0.231,-0.709C0.088,-0.709 0.04,-0.602 0.04,-0.523C0.04,-0.473 0.067,-0.445 0.104,-0.445C0.124,-0.445 0.151,-0.461 0.151,-0.495C0.151,-0.517 0.145,-0.528 0.145,-0.55C0.145,-0.571 0.152,-0.595 0.171,-0.62ZM0.221,-0.031C0.23,-0.031 0.238,-0.039 0.238,-0.048C0.238,-0.057 0.23,-0.065 0.221,-0.065C0.212,-0.065 0.204,-0.057 0.204,-0.048C0.204,-0.039 0.212,-0.031 0.221,-0.031ZM0.221,0.013C0.254,0.013 0.282,-0.014 0.282,-0.048C0.282,-0.082 0.254,-0.109 0.221,-0.109C0.187,-0.109 0.159,-0.082 0.159,-0.048C0.159,-0.014 0.187,0.013 0.221,0.013ZM0.221,-0.007C0.198,-0.007 0.18,-0.025 0.18,-0.048C0.18,-0.071 0.198,-0.089 0.221,-0.089C0.244,-0.089 0.262,-0.071 0.262,-0.048C0.262,-0.025 0.244,-0.007 0.221,-0.007Z" style="fill-rule:nonzero;"/>
                </g>
                <g transform="matrix(600,0,0,600,4577.95,8525.55)">
                    <path d="M0.32,-0.636L0.32,-0.036L0.516,-0.036L0.516,-0.046L0.342,-0.055L0.342,-0.655L0.197,-0.655C0.098,-0.655 0.059,-0.597 0.046,-0.508L0.06,-0.508C0.072,-0.585 0.104,-0.636 0.193,-0.636L0.32,-0.636ZM0.014,-0.508L0.034,-0.508L0.052,-0.671L0.596,-0.671L0.615,-0.508L0.634,-0.508L0.614,-0.691L0.035,-0.691L0.014,-0.508ZM0.383,-0.636L0.464,-0.636C0.544,-0.636 0.576,-0.581 0.588,-0.508L0.602,-0.508C0.588,-0.587 0.548,-0.655 0.464,-0.655L0.359,-0.655L0.359,-0.071C0.366,-0.071 0.376,-0.069 0.383,-0.069L0.383,-0.636ZM0.146,-0.046L0.146,-0.036L0.303,-0.036L0.303,-0.62L0.279,-0.62L0.279,-0.055L0.146,-0.046ZM0.146,-0L0.516,-0L0.516,-0.02L0.146,-0.02L0.146,-0ZM0.591,-0.59L0.583,-0.657L0.526,-0.657L0.526,-0.655C0.555,-0.643 0.577,-0.624 0.589,-0.59L0.591,-0.59ZM0.065,-0.657L0.055,-0.59L0.057,-0.59C0.07,-0.625 0.094,-0.643 0.123,-0.655L0.123,-0.657L0.065,-0.657Z" style="fill-rule:nonzero;"/>
                </g>
                <g transform="matrix(600,0,0,600,4934.35,8525.55)">
                    <path d="M0.464,-0.244C0.464,-0.327 0.435,-0.417 0.356,-0.451C0.419,-0.408 0.44,-0.321 0.44,-0.252C0.44,-0.141 0.387,-0.038 0.289,-0.038C0.194,-0.038 0.143,-0.135 0.143,-0.262C0.143,-0.306 0.149,-0.372 0.173,-0.411C0.137,-0.383 0.118,-0.316 0.118,-0.246C0.118,-0.117 0.182,-0.022 0.289,-0.022C0.398,-0.022 0.464,-0.119 0.464,-0.244ZM0.27,-0.503C0.123,-0.503 0.035,-0.405 0.035,-0.249C0.035,-0.091 0.127,0.01 0.27,0.01C0.414,0.01 0.508,-0.092 0.508,-0.249C0.508,-0.404 0.417,-0.503 0.27,-0.503ZM0.271,-0.006C0.133,-0.006 0.06,-0.118 0.06,-0.25C0.06,-0.373 0.123,-0.487 0.27,-0.487C0.418,-0.487 0.481,-0.371 0.481,-0.249C0.481,-0.118 0.408,-0.006 0.271,-0.006ZM0.077,-0.252C0.077,-0.171 0.102,-0.077 0.192,-0.039C0.12,-0.085 0.101,-0.183 0.101,-0.25C0.101,-0.361 0.153,-0.455 0.251,-0.455C0.347,-0.455 0.398,-0.365 0.398,-0.25C0.398,-0.205 0.39,-0.129 0.367,-0.085C0.405,-0.117 0.424,-0.192 0.424,-0.259C0.424,-0.383 0.359,-0.471 0.251,-0.471C0.143,-0.471 0.077,-0.383 0.077,-0.252Z" style="fill-rule:nonzero;"/>
                </g>
                <g transform="matrix(600,0,0,600,5258.35,8525.55)">
                    <path d="M0.055,-0.367C0.055,-0.271 0.131,-0.244 0.201,-0.218C0.26,-0.196 0.316,-0.176 0.316,-0.118C0.316,-0.111 0.316,-0.1 0.306,-0.079C0.321,-0.093 0.332,-0.122 0.332,-0.145C0.332,-0.193 0.279,-0.212 0.223,-0.234C0.155,-0.259 0.078,-0.289 0.078,-0.374C0.078,-0.445 0.133,-0.487 0.226,-0.487C0.323,-0.487 0.379,-0.446 0.379,-0.394C0.379,-0.365 0.363,-0.345 0.34,-0.345C0.325,-0.345 0.312,-0.352 0.312,-0.372C0.312,-0.385 0.317,-0.397 0.317,-0.397L0.3,-0.412C0.299,-0.411 0.289,-0.396 0.289,-0.373C0.289,-0.334 0.319,-0.323 0.34,-0.323C0.374,-0.323 0.4,-0.353 0.4,-0.395C0.4,-0.46 0.334,-0.503 0.227,-0.503C0.131,-0.503 0.055,-0.464 0.055,-0.367ZM0.1,-0.143C0.087,-0.143 0.078,-0.13 0.078,-0.111C0.078,-0.052 0.162,-0.021 0.229,-0.021C0.306,-0.021 0.371,-0.064 0.371,-0.142C0.371,-0.221 0.302,-0.247 0.236,-0.272C0.174,-0.295 0.116,-0.317 0.116,-0.378C0.116,-0.436 0.168,-0.457 0.22,-0.457C0.284,-0.457 0.334,-0.43 0.334,-0.399C0.334,-0.388 0.329,-0.383 0.329,-0.375C0.329,-0.371 0.329,-0.361 0.34,-0.361C0.351,-0.361 0.361,-0.376 0.361,-0.394C0.361,-0.444 0.293,-0.473 0.221,-0.473C0.154,-0.473 0.094,-0.445 0.094,-0.374C0.094,-0.302 0.158,-0.277 0.223,-0.253C0.288,-0.23 0.347,-0.207 0.347,-0.142C0.347,-0.086 0.305,-0.037 0.233,-0.037C0.176,-0.037 0.106,-0.066 0.106,-0.106C0.106,-0.116 0.111,-0.122 0.111,-0.13C0.111,-0.134 0.111,-0.143 0.1,-0.143ZM0.387,-0.146C0.387,-0.063 0.324,-0.007 0.223,-0.007C0.135,-0.007 0.06,-0.049 0.06,-0.11C0.06,-0.139 0.076,-0.159 0.1,-0.159C0.115,-0.159 0.128,-0.151 0.128,-0.132C0.128,-0.12 0.123,-0.107 0.123,-0.107L0.14,-0.092C0.142,-0.094 0.15,-0.11 0.15,-0.132C0.15,-0.17 0.121,-0.181 0.1,-0.181C0.065,-0.181 0.04,-0.15 0.04,-0.109C0.04,-0.037 0.118,0.009 0.22,0.009C0.332,0.009 0.413,-0.045 0.413,-0.147C0.413,-0.25 0.329,-0.282 0.256,-0.307C0.199,-0.327 0.148,-0.345 0.148,-0.391C0.148,-0.4 0.15,-0.417 0.154,-0.427C0.143,-0.419 0.132,-0.396 0.132,-0.376C0.132,-0.329 0.191,-0.31 0.239,-0.292C0.312,-0.265 0.387,-0.236 0.387,-0.146Z" style="fill-rule:nonzero;"/>
                </g>
                <g transform="matrix(600,0,0,600,5530.15,8525.55)">
                    <path d="M0.166,-0.705L0.166,-0.43L0.19,-0.466L0.19,-0.725L0.012,-0.715L0.012,-0.705L0.166,-0.705ZM0.166,-0.065L0.19,-0.062L0.19,-0.242C0.19,-0.379 0.245,-0.442 0.332,-0.442C0.404,-0.442 0.439,-0.394 0.439,-0.284L0.439,-0.031L0.578,-0.031L0.578,-0.04L0.463,-0.049L0.463,-0.274C0.463,-0.407 0.422,-0.462 0.334,-0.462C0.241,-0.462 0.166,-0.404 0.166,-0.242L0.166,-0.065ZM0.479,-0.065L0.503,-0.062L0.503,-0.275C0.503,-0.419 0.453,-0.498 0.328,-0.498C0.23,-0.498 0.172,-0.452 0.166,-0.366C0.191,-0.442 0.248,-0.478 0.332,-0.478C0.442,-0.478 0.479,-0.404 0.479,-0.278L0.479,-0.065ZM0.012,-0.691L0.012,-0.671L0.128,-0.671L0.128,-0.031L0.246,-0.031L0.246,-0.04L0.149,-0.049L0.149,-0.691L0.012,-0.691ZM0.011,-0.04L0.011,-0.031L0.111,-0.031L0.111,-0.655L0.087,-0.655L0.087,-0.049L0.011,-0.04ZM0.325,-0.04L0.325,-0.031L0.424,-0.031L0.424,-0.277C0.424,-0.347 0.413,-0.392 0.385,-0.413C0.401,-0.38 0.4,-0.328 0.4,-0.284L0.4,-0.049L0.325,-0.04ZM0.578,0.005L0.578,-0.015L0.325,-0.015L0.325,0.005L0.578,0.005ZM0.011,0.005L0.246,0.005L0.246,-0.015L0.011,-0.015L0.011,0.005Z" style="fill-rule:nonzero;"/>
                </g>
                <g transform="matrix(600,0,0,600,5882.35,8525.55)">
                    <path d="M0.129,-0.627C0.129,-0.618 0.135,-0.611 0.144,-0.611C0.152,-0.611 0.16,-0.617 0.16,-0.627C0.16,-0.637 0.152,-0.643 0.144,-0.643C0.135,-0.643 0.129,-0.636 0.129,-0.627ZM0.02,-0.469L0.02,-0.449L0.135,-0.449L0.135,-0.036L0.272,-0.036L0.272,-0.045L0.156,-0.054L0.156,-0.469L0.02,-0.469ZM0.118,-0.036L0.118,-0.434L0.094,-0.434L0.094,-0.054L0.019,-0.045L0.019,-0.036L0.118,-0.036ZM0.173,-0.483L0.173,-0.07L0.198,-0.067L0.198,-0.503L0.02,-0.493L0.02,-0.483L0.173,-0.483ZM0.144,-0.595C0.126,-0.595 0.112,-0.608 0.112,-0.627C0.112,-0.646 0.126,-0.659 0.144,-0.659C0.162,-0.659 0.175,-0.645 0.175,-0.627C0.175,-0.609 0.162,-0.595 0.144,-0.595ZM0.019,-0.02L0.019,-0L0.272,-0L0.272,-0.02L0.019,-0.02ZM0.144,-0.68C0.115,-0.68 0.091,-0.658 0.091,-0.627C0.091,-0.596 0.115,-0.574 0.145,-0.574C0.175,-0.574 0.197,-0.597 0.197,-0.627C0.197,-0.656 0.175,-0.68 0.144,-0.68Z" style="fill-rule:nonzero;"/>
                </g>
                <g transform="matrix(600,0,0,600,6208.15,8525.55)">
                    <path d="M0.31,-0.032C0.287,-0.015 0.267,-0.004 0.228,-0.004C0.16,-0.004 0.121,-0.036 0.121,-0.127L0.121,-0.465L0.013,-0.465L0.013,-0.442L0.097,-0.442L0.097,-0.127C0.097,-0.022 0.147,0.013 0.222,0.013C0.271,0.013 0.3,-0.003 0.315,-0.014L0.31,-0.032ZM0.306,-0.465L0.176,-0.465L0.176,-0.127C0.176,-0.05 0.205,-0.025 0.242,-0.025C0.271,-0.025 0.295,-0.041 0.306,-0.049L0.301,-0.067C0.285,-0.054 0.262,-0.044 0.243,-0.044C0.219,-0.044 0.2,-0.062 0.2,-0.125L0.2,-0.442L0.306,-0.442L0.306,-0.465ZM0.146,-0.662L0.137,-0.521L0.137,-0.127C0.137,-0.057 0.163,-0.029 0.204,-0.021C0.173,-0.039 0.16,-0.074 0.16,-0.127L0.16,-0.662L0.146,-0.662ZM0.176,-0.662L0.176,-0.479L0.306,-0.479L0.306,-0.503L0.2,-0.503L0.2,-0.662L0.176,-0.662ZM0.013,-0.479L0.121,-0.479L0.121,-0.503L0.013,-0.493L0.013,-0.479Z" style="fill-rule:nonzero;"/>
                </g>
                <g transform="matrix(600,0,0,600,6412.15,8525.55)">
                    <path d="M0.166,-0.705L0.166,-0.43L0.19,-0.466L0.19,-0.725L0.012,-0.715L0.012,-0.705L0.166,-0.705ZM0.166,-0.065L0.19,-0.062L0.19,-0.242C0.19,-0.379 0.245,-0.442 0.332,-0.442C0.404,-0.442 0.439,-0.394 0.439,-0.284L0.439,-0.031L0.578,-0.031L0.578,-0.04L0.463,-0.049L0.463,-0.274C0.463,-0.407 0.422,-0.462 0.334,-0.462C0.241,-0.462 0.166,-0.404 0.166,-0.242L0.166,-0.065ZM0.479,-0.065L0.503,-0.062L0.503,-0.275C0.503,-0.419 0.453,-0.498 0.328,-0.498C0.23,-0.498 0.172,-0.452 0.166,-0.366C0.191,-0.442 0.248,-0.478 0.332,-0.478C0.442,-0.478 0.479,-0.404 0.479,-0.278L0.479,-0.065ZM0.012,-0.691L0.012,-0.671L0.128,-0.671L0.128,-0.031L0.246,-0.031L0.246,-0.04L0.149,-0.049L0.149,-0.691L0.012,-0.691ZM0.011,-0.04L0.011,-0.031L0.111,-0.031L0.111,-0.655L0.087,-0.655L0.087,-0.049L0.011,-0.04ZM0.325,-0.04L0.325,-0.031L0.424,-0.031L0.424,-0.277C0.424,-0.347 0.413,-0.392 0.385,-0.413C0.401,-0.38 0.4,-0.328 0.4,-0.284L0.4,-0.049L0.325,-0.04ZM0.578,0.005L0.578,-0.015L0.325,-0.015L0.325,0.005L0.578,0.005ZM0.011,0.005L0.246,0.005L0.246,-0.015L0.011,-0.015L0.011,0.005Z" style="fill-rule:nonzero;"/>
                </g>
                <g transform="matrix(600,0,0,600,6764.35,8525.55)">
                    <path d="M0.129,-0.627C0.129,-0.618 0.135,-0.611 0.144,-0.611C0.152,-0.611 0.16,-0.617 0.16,-0.627C0.16,-0.637 0.152,-0.643 0.144,-0.643C0.135,-0.643 0.129,-0.636 0.129,-0.627ZM0.02,-0.469L0.02,-0.449L0.135,-0.449L0.135,-0.036L0.272,-0.036L0.272,-0.045L0.156,-0.054L0.156,-0.469L0.02,-0.469ZM0.118,-0.036L0.118,-0.434L0.094,-0.434L0.094,-0.054L0.019,-0.045L0.019,-0.036L0.118,-0.036ZM0.173,-0.483L0.173,-0.07L0.198,-0.067L0.198,-0.503L0.02,-0.493L0.02,-0.483L0.173,-0.483ZM0.144,-0.595C0.126,-0.595 0.112,-0.608 0.112,-0.627C0.112,-0.646 0.126,-0.659 0.144,-0.659C0.162,-0.659 0.175,-0.645 0.175,-0.627C0.175,-0.609 0.162,-0.595 0.144,-0.595ZM0.019,-0.02L0.019,-0L0.272,-0L0.272,-0.02L0.019,-0.02ZM0.144,-0.68C0.115,-0.68 0.091,-0.658 0.091,-0.627C0.091,-0.596 0.115,-0.574 0.145,-0.574C0.175,-0.574 0.197,-0.597 0.197,-0.627C0.197,-0.656 0.175,-0.68 0.144,-0.68Z" style="fill-rule:nonzero;"/>
                </g>
                <g transform="matrix(600,0,0,600,6940.15,8525.55)">
                    <path d="M0.175,-0.07L0.199,-0.067L0.199,-0.247C0.199,-0.384 0.254,-0.447 0.34,-0.447C0.413,-0.447 0.448,-0.402 0.448,-0.299L0.448,-0.036L0.587,-0.036L0.587,-0.045L0.472,-0.054L0.472,-0.289C0.472,-0.415 0.431,-0.467 0.342,-0.467C0.25,-0.467 0.175,-0.409 0.175,-0.247L0.175,-0.07ZM0.488,-0.07L0.512,-0.067L0.512,-0.29C0.512,-0.428 0.462,-0.503 0.336,-0.503C0.238,-0.503 0.181,-0.457 0.175,-0.371C0.2,-0.447 0.257,-0.483 0.34,-0.483C0.451,-0.483 0.488,-0.413 0.488,-0.293L0.488,-0.07ZM0.011,-0.469L0.011,-0.449L0.137,-0.449L0.137,-0.036L0.255,-0.036L0.255,-0.045L0.158,-0.054L0.158,-0.469L0.011,-0.469ZM0.01,-0.045L0.01,-0.036L0.12,-0.036L0.12,-0.434L0.096,-0.434L0.096,-0.054L0.01,-0.045ZM0.334,-0.045L0.334,-0.036L0.433,-0.036L0.433,-0.292C0.433,-0.355 0.42,-0.398 0.394,-0.418C0.408,-0.388 0.409,-0.338 0.409,-0.299L0.409,-0.054L0.334,-0.045ZM0.587,-0L0.587,-0.02L0.334,-0.02L0.334,-0L0.587,-0ZM0.01,-0L0.255,-0L0.255,-0.02L0.01,-0.02L0.01,-0ZM0.011,-0.493L0.011,-0.483L0.158,-0.483L0.158,-0.503L0.011,-0.493Z" style="fill-rule:nonzero;"/>
                </g>
                <g transform="matrix(600,0,0,600,7297.75,8525.55)">
                    <path d="M0.154,-0.691L0.016,-0.691L0.016,-0.671L0.131,-0.671L0.131,-0.036L0.25,-0.036L0.25,-0.045L0.154,-0.054L0.154,-0.691ZM0.015,-0.036L0.115,-0.036L0.115,-0.655L0.091,-0.655L0.091,-0.054L0.015,-0.045L0.015,-0.036ZM0.016,-0.705L0.17,-0.705L0.17,-0.205L0.194,-0.228L0.194,-0.725L0.016,-0.715L0.016,-0.705ZM0.559,-0.457L0.452,-0.457L0.318,-0.325L0.503,-0.036L0.583,-0.036L0.583,-0.046L0.517,-0.055L0.343,-0.323L0.46,-0.438L0.559,-0.447L0.559,-0.457ZM0.559,-0.493L0.436,-0.493L0.21,-0.271L0.21,-0.245L0.444,-0.473L0.559,-0.473L0.559,-0.493ZM0.307,-0.261L0.452,-0.036L0.482,-0.036L0.324,-0.278L0.307,-0.261ZM0.194,-0.176L0.315,-0.294L0.305,-0.311L0.17,-0.181L0.17,-0.07L0.194,-0.067L0.194,-0.176ZM0.583,-0.02L0.329,-0.02L0.329,-0L0.583,-0L0.583,-0.02ZM0.384,-0.065L0.41,-0.069L0.293,-0.249L0.276,-0.233L0.384,-0.065ZM0.25,-0.02L0.015,-0.02L0.015,-0L0.25,-0L0.25,-0.02ZM0.293,-0.473L0.393,-0.473L0.415,-0.493L0.293,-0.493L0.293,-0.473ZM0.329,-0.036L0.432,-0.036L0.42,-0.054L0.329,-0.046L0.329,-0.036ZM0.293,-0.447L0.356,-0.438L0.379,-0.457L0.293,-0.457L0.293,-0.447Z" style="fill-rule:nonzero;"/>
                </g>
                <g transform="matrix(600,0,0,600,7653.55,8525.55)">
                    <path d="M0.055,-0.367C0.055,-0.271 0.131,-0.244 0.201,-0.218C0.26,-0.196 0.316,-0.176 0.316,-0.118C0.316,-0.111 0.316,-0.1 0.306,-0.079C0.321,-0.093 0.332,-0.122 0.332,-0.145C0.332,-0.193 0.279,-0.212 0.223,-0.234C0.155,-0.259 0.078,-0.289 0.078,-0.374C0.078,-0.445 0.133,-0.487 0.226,-0.487C0.323,-0.487 0.379,-0.446 0.379,-0.394C0.379,-0.365 0.363,-0.345 0.34,-0.345C0.325,-0.345 0.312,-0.352 0.312,-0.372C0.312,-0.385 0.317,-0.397 0.317,-0.397L0.3,-0.412C0.299,-0.411 0.289,-0.396 0.289,-0.373C0.289,-0.334 0.319,-0.323 0.34,-0.323C0.374,-0.323 0.4,-0.353 0.4,-0.395C0.4,-0.46 0.334,-0.503 0.227,-0.503C0.131,-0.503 0.055,-0.464 0.055,-0.367ZM0.1,-0.143C0.087,-0.143 0.078,-0.13 0.078,-0.111C0.078,-0.052 0.162,-0.021 0.229,-0.021C0.306,-0.021 0.371,-0.064 0.371,-0.142C0.371,-0.221 0.302,-0.247 0.236,-0.272C0.174,-0.295 0.116,-0.317 0.116,-0.378C0.116,-0.436 0.168,-0.457 0.22,-0.457C0.284,-0.457 0.334,-0.43 0.334,-0.399C0.334,-0.388 0.329,-0.383 0.329,-0.375C0.329,-0.371 0.329,-0.361 0.34,-0.361C0.351,-0.361 0.361,-0.376 0.361,-0.394C0.361,-0.444 0.293,-0.473 0.221,-0.473C0.154,-0.473 0.094,-0.445 0.094,-0.374C0.094,-0.302 0.158,-0.277 0.223,-0.253C0.288,-0.23 0.347,-0.207 0.347,-0.142C0.347,-0.086 0.305,-0.037 0.233,-0.037C0.176,-0.037 0.106,-0.066 0.106,-0.106C0.106,-0.116 0.111,-0.122 0.111,-0.13C0.111,-0.134 0.111,-0.143 0.1,-0.143ZM0.387,-0.146C0.387,-0.063 0.324,-0.007 0.223,-0.007C0.135,-0.007 0.06,-0.049 0.06,-0.11C0.06,-0.139 0.076,-0.159 0.1,-0.159C0.115,-0.159 0.128,-0.151 0.128,-0.132C0.128,-0.12 0.123,-0.107 0.123,-0.107L0.14,-0.092C0.142,-0.094 0.15,-0.11 0.15,-0.132C0.15,-0.17 0.121,-0.181 0.1,-0.181C0.065,-0.181 0.04,-0.15 0.04,-0.109C0.04,-0.037 0.118,0.009 0.22,0.009C0.332,0.009 0.413,-0.045 0.413,-0.147C0.413,-0.25 0.329,-0.282 0.256,-0.307C0.199,-0.327 0.148,-0.345 0.148,-0.391C0.148,-0.4 0.15,-0.417 0.154,-0.427C0.143,-0.419 0.132,-0.396 0.132,-0.376C0.132,-0.329 0.191,-0.31 0.239,-0.292C0.312,-0.265 0.387,-0.236 0.387,-0.146Z" style="fill-rule:nonzero;"/>
                </g>
                <g transform="matrix(600,0,0,600,8075.35,8525.55)">
                    <path d="M0.055,-0.367C0.055,-0.271 0.131,-0.244 0.201,-0.218C0.26,-0.196 0.316,-0.176 0.316,-0.118C0.316,-0.111 0.316,-0.1 0.306,-0.079C0.321,-0.093 0.332,-0.122 0.332,-0.145C0.332,-0.193 0.279,-0.212 0.223,-0.234C0.155,-0.259 0.078,-0.289 0.078,-0.374C0.078,-0.445 0.133,-0.487 0.226,-0.487C0.323,-0.487 0.379,-0.446 0.379,-0.394C0.379,-0.365 0.363,-0.345 0.34,-0.345C0.325,-0.345 0.312,-0.352 0.312,-0.372C0.312,-0.385 0.317,-0.397 0.317,-0.397L0.3,-0.412C0.299,-0.411 0.289,-0.396 0.289,-0.373C0.289,-0.334 0.319,-0.323 0.34,-0.323C0.374,-0.323 0.4,-0.353 0.4,-0.395C0.4,-0.46 0.334,-0.503 0.227,-0.503C0.131,-0.503 0.055,-0.464 0.055,-0.367ZM0.1,-0.143C0.087,-0.143 0.078,-0.13 0.078,-0.111C0.078,-0.052 0.162,-0.021 0.229,-0.021C0.306,-0.021 0.371,-0.064 0.371,-0.142C0.371,-0.221 0.302,-0.247 0.236,-0.272C0.174,-0.295 0.116,-0.317 0.116,-0.378C0.116,-0.436 0.168,-0.457 0.22,-0.457C0.284,-0.457 0.334,-0.43 0.334,-0.399C0.334,-0.388 0.329,-0.383 0.329,-0.375C0.329,-0.371 0.329,-0.361 0.34,-0.361C0.351,-0.361 0.361,-0.376 0.361,-0.394C0.361,-0.444 0.293,-0.473 0.221,-0.473C0.154,-0.473 0.094,-0.445 0.094,-0.374C0.094,-0.302 0.158,-0.277 0.223,-0.253C0.288,-0.23 0.347,-0.207 0.347,-0.142C0.347,-0.086 0.305,-0.037 0.233,-0.037C0.176,-0.037 0.106,-0.066 0.106,-0.106C0.106,-0.116 0.111,-0.122 0.111,-0.13C0.111,-0.134 0.111,-0.143 0.1,-0.143ZM0.387,-0.146C0.387,-0.063 0.324,-0.007 0.223,-0.007C0.135,-0.007 0.06,-0.049 0.06,-0.11C0.06,-0.139 0.076,-0.159 0.1,-0.159C0.115,-0.159 0.128,-0.151 0.128,-0.132C0.128,-0.12 0.123,-0.107 0.123,-0.107L0.14,-0.092C0.142,-0.094 0.15,-0.11 0.15,-0.132C0.15,-0.17 0.121,-0.181 0.1,-0.181C0.065,-0.181 0.04,-0.15 0.04,-0.109C0.04,-0.037 0.118,0.009 0.22,0.009C0.332,0.009 0.413,-0.045 0.413,-0.147C0.413,-0.25 0.329,-0.282 0.256,-0.307C0.199,-0.327 0.148,-0.345 0.148,-0.391C0.148,-0.4 0.15,-0.417 0.154,-0.427C0.143,-0.419 0.132,-0.396 0.132,-0.376C0.132,-0.329 0.191,-0.31 0.239,-0.292C0.312,-0.265 0.387,-0.236 0.387,-0.146Z" style="fill-rule:nonzero;"/>
                </g>
                <g transform="matrix(600,0,0,600,8347.15,8525.55)">
                    <path d="M0.464,-0.244C0.464,-0.327 0.435,-0.417 0.356,-0.451C0.419,-0.408 0.44,-0.321 0.44,-0.252C0.44,-0.141 0.387,-0.038 0.289,-0.038C0.194,-0.038 0.143,-0.135 0.143,-0.262C0.143,-0.306 0.149,-0.372 0.173,-0.411C0.137,-0.383 0.118,-0.316 0.118,-0.246C0.118,-0.117 0.182,-0.022 0.289,-0.022C0.398,-0.022 0.464,-0.119 0.464,-0.244ZM0.27,-0.503C0.123,-0.503 0.035,-0.405 0.035,-0.249C0.035,-0.091 0.127,0.01 0.27,0.01C0.414,0.01 0.508,-0.092 0.508,-0.249C0.508,-0.404 0.417,-0.503 0.27,-0.503ZM0.271,-0.006C0.133,-0.006 0.06,-0.118 0.06,-0.25C0.06,-0.373 0.123,-0.487 0.27,-0.487C0.418,-0.487 0.481,-0.371 0.481,-0.249C0.481,-0.118 0.408,-0.006 0.271,-0.006ZM0.077,-0.252C0.077,-0.171 0.102,-0.077 0.192,-0.039C0.12,-0.085 0.101,-0.183 0.101,-0.25C0.101,-0.361 0.153,-0.455 0.251,-0.455C0.347,-0.455 0.398,-0.365 0.398,-0.25C0.398,-0.205 0.39,-0.129 0.367,-0.085C0.405,-0.117 0.424,-0.192 0.424,-0.259C0.424,-0.383 0.359,-0.471 0.251,-0.471C0.143,-0.471 0.077,-0.383 0.077,-0.252Z" style="fill-rule:nonzero;"/>
                </g>
                <g transform="matrix(600,0,0,600,8659.15,8525.55)">
                    <path d="M0.112,-0.031C0.121,-0.031 0.129,-0.039 0.129,-0.048C0.129,-0.057 0.121,-0.065 0.112,-0.065C0.103,-0.065 0.095,-0.057 0.095,-0.048C0.095,-0.039 0.103,-0.031 0.112,-0.031ZM0.112,0.013C0.145,0.013 0.173,-0.014 0.173,-0.048C0.173,-0.082 0.145,-0.109 0.112,-0.109C0.078,-0.109 0.05,-0.082 0.05,-0.048C0.05,-0.014 0.078,0.013 0.112,0.013ZM0.112,-0.007C0.089,-0.007 0.071,-0.025 0.071,-0.048C0.071,-0.071 0.089,-0.089 0.112,-0.089C0.135,-0.089 0.153,-0.071 0.153,-0.048C0.153,-0.025 0.135,-0.007 0.112,-0.007Z" style="fill-rule:nonzero;"/>
                </g>
            </g>
        </g>
    </g>
</svg>
